<svg xmlns="http://www.w3.org/2000/svg" width="550.5" height="751.75" viewBox="0 0 550.5 751.75">
  <g id="Group_6" data-name="Group 6" transform="translate(-234.5 -262.25)">
    <text id="Providing_all_you_need_to_escape_the_Rent_Trap_" data-name="Providing 
all you need to escape the Rent Trap!" transform="translate(300 364)" fill="#011640" font-size="69" font-family="Raleway-Light, Raleway" font-weight="300"><tspan x="0" y="65">Providing </tspan><tspan x="0" y="167">all you </tspan><tspan y="167" font-family="Raleway-Black, Raleway" font-weight="800">need</tspan><tspan y="167" xml:space="preserve"> to </tspan><tspan x="0" y="264" font-family="Raleway-Black, Raleway" font-weight="800">escape</tspan><tspan y="264" xml:space="preserve"> the </tspan><tspan x="0" y="361" font-family="Raleway-Black, Raleway" font-weight="800">Rent Trap!</tspan></text>
    <g id="Group_3" data-name="Group 3">
      <path id="Path_1" data-name="Path 1" d="M575.543,244.25h-432V837.139h432" transform="translate(92.957 20)" fill="none" stroke="#eabd00" stroke-width="4"/>
      <path id="Icon_awesome-quote-right" data-name="Icon awesome-quote-right" d="M96.024,2.25H69.534A9.936,9.936,0,0,0,59.6,12.183V38.673a9.936,9.936,0,0,0,9.933,9.933H86.09V61.851A13.257,13.257,0,0,1,72.846,75.1H71.19a4.955,4.955,0,0,0-4.967,4.967V90a4.955,4.955,0,0,0,4.967,4.967h1.656a33.1,33.1,0,0,0,33.112-33.112V12.183A9.936,9.936,0,0,0,96.024,2.25Zm-59.6,0H9.933A9.936,9.936,0,0,0,0,12.183V38.673a9.936,9.936,0,0,0,9.933,9.933H26.489V61.851A13.257,13.257,0,0,1,13.245,75.1H11.589a4.955,4.955,0,0,0-4.967,4.967V90a4.955,4.955,0,0,0,4.967,4.967h1.656A33.1,33.1,0,0,0,46.356,61.851V12.183A9.936,9.936,0,0,0,36.423,2.25Z" transform="translate(404 818.532)" fill="#eabd00" stroke="#f1ce15" stroke-width="1"/>
    </g>
    <g id="Group_4" data-name="Group 4">
      <rect id="Rectangle_3" data-name="Rectangle 3" width="221" height="55" rx="3" transform="translate(350 959)" fill="#011640"/>
      <text id="See_if_you_qualify" data-name="See if you qualify" transform="translate(383 993)" fill="#fff" font-size="18" font-family="Poppins-Bold, Poppins" font-weight="700"><tspan x="0" y="0">See if you qualify</tspan></text>
    </g>
  </g>
</svg>
