<svg xmlns="http://www.w3.org/2000/svg" width="434" height="651.745" viewBox="0 0 434 651.745">
  <g id="Group_3" data-name="Group 3" transform="translate(-234.5 -262.25)">
    <path id="Path_1" data-name="Path 1" d="M575.543,244.25h-432V837.139h432" transform="translate(92.957 20)" fill="none" stroke="#eabd00" stroke-width="4"/>
    <path id="Icon_awesome-quote-right" data-name="Icon awesome-quote-right" d="M96.024,2.25H69.534A9.936,9.936,0,0,0,59.6,12.183V38.673a9.936,9.936,0,0,0,9.933,9.933H86.09V61.851A13.257,13.257,0,0,1,72.846,75.1H71.19a4.955,4.955,0,0,0-4.967,4.967V90a4.955,4.955,0,0,0,4.967,4.967h1.656a33.1,33.1,0,0,0,33.112-33.112V12.183A9.936,9.936,0,0,0,96.024,2.25Zm-59.6,0H9.933A9.936,9.936,0,0,0,0,12.183V38.673a9.936,9.936,0,0,0,9.933,9.933H26.489V61.851A13.257,13.257,0,0,1,13.245,75.1H11.589a4.955,4.955,0,0,0-4.967,4.967V90a4.955,4.955,0,0,0,4.967,4.967h1.656A33.1,33.1,0,0,0,46.356,61.851V12.183A9.936,9.936,0,0,0,36.423,2.25Z" transform="translate(404 818.532)" fill="#eabd00" stroke="#f1ce15" stroke-width="1"/>
  </g>
</svg>
