<svg id="Group_1122" data-name="Group 1122" xmlns="http://www.w3.org/2000/svg" xmlns:xlink="http://www.w3.org/1999/xlink" width="25" height="25" viewBox="0 0 25 25">
  <defs>
    <clipPath id="clip-path">
      <rect id="Rectangle_1187" data-name="Rectangle 1187" width="25" height="25" fill="#fff"/>
    </clipPath>
  </defs>
  <g id="Group_1121" data-name="Group 1121" clip-path="url(#clip-path)">
    <path id="Path_64" data-name="Path 64" d="M7.165,4.78c0-.194,0-.37,0-.546.007-.541-.017-1.084.032-1.621A2.948,2.948,0,0,1,9.573.06,3.576,3.576,0,0,1,10.184,0Q12.542,0,14.9,0a2.978,2.978,0,0,1,2.975,2.519,3.886,3.886,0,0,1,.036.6c0,.545,0,1.091,0,1.66h.182c1.325,0,2.649,0,3.974,0a2.986,2.986,0,0,1,3.006,2.994q.006,7.15,0,14.3a2.977,2.977,0,0,1-3,3q-2.372,0-4.743,0a.588.588,0,0,1-.6-.5.58.58,0,0,1,.382-.654.962.962,0,0,1,.3-.042c1.544,0,3.088,0,4.631,0a1.788,1.788,0,0,0,1.829-1.752c.012-2.369.008-4.739.008-7.108,0-.018,0-.037-.006-.07-.037.02-.069.034-.1.053a3.045,3.045,0,0,1-1.726.523c-.527,0-1.054,0-1.581,0H20.3v.162c0,.522,0,1.045,0,1.567a.6.6,0,0,1-.661.657H17.384a.607.607,0,0,1-.668-.667c0-.564,0-1.128,0-1.705H8.362v.147c0,.518,0,1.035,0,1.553a.609.609,0,0,1-.678.672H5.431a.6.6,0,0,1-.651-.652c0-.522,0-1.045,0-1.567v-.166H4.6c-.606,0-1.213,0-1.818-.016A2.807,2.807,0,0,1,1.306,15L1.2,14.934V15.1c0,2.309.013,4.618-.006,6.926a1.844,1.844,0,0,0,1.864,1.863c3.918-.015,7.836-.006,11.753,0a1.048,1.048,0,0,1,.316.039.581.581,0,0,1,.39.649.59.59,0,0,1-.6.505c-.7,0-1.409,0-2.113,0q-4.9,0-9.795,0A2.969,2.969,0,0,1,.074,22.733,2.908,2.908,0,0,1,0,22.1Q0,14.925,0,7.754a2.961,2.961,0,0,1,2.93-2.97c1.343-.016,2.686,0,4.03,0h.2M20.3,14.33c.617,0,1.214,0,1.81,0a1.767,1.767,0,0,0,1.766-1.734c.014-1.632.007-3.265,0-4.9a1.677,1.677,0,0,0-.54-1.22,1.8,1.8,0,0,0-1.32-.509q-4.981,0-9.962,0-4.505,0-9.01,0A1.78,1.78,0,0,0,1.2,7.771q-.008,2.378,0,4.757a1.779,1.779,0,0,0,1.815,1.8c.541,0,1.082,0,1.623,0,.045,0,.089,0,.143-.008v-.165q0-.769,0-1.539a.6.6,0,0,1,.67-.674H7.688a.605.605,0,0,1,.674.674c0,.518,0,1.035,0,1.553,0,.049,0,.1.006.148h8.347c0-.585,0-1.158,0-1.732a.593.593,0,0,1,.634-.642q1.161,0,2.323,0a.584.584,0,0,1,.624.62c0,.532,0,1.063,0,1.595v.17M16.716,4.771v-.15c0-.527,0-1.054,0-1.581A1.779,1.779,0,0,0,14.872,1.2q-2.336,0-4.672,0A1.777,1.777,0,0,0,8.362,3.031c0,.532,0,1.063,0,1.595v.145ZM5.977,16.7H7.157V13.144H5.977Zm11.943,0H19.1V13.141H17.92Z" transform="translate(0.01 -0.078)" fill="#fff"/>
  </g>
</svg>
