<svg xmlns="http://www.w3.org/2000/svg" xmlns:xlink="http://www.w3.org/1999/xlink" width="363.822" height="196.349" viewBox="0 0 363.822 196.349">
  <defs>
    <clipPath id="clip-path">
      <rect id="Rectangle_1447" data-name="Rectangle 1447" width="363.822" height="196.349" fill="#fff"/>
    </clipPath>
  </defs>
  <g id="Group_1639" data-name="Group 1639" clip-path="url(#clip-path)">
    <path id="Path_6336" data-name="Path 6336" d="M325.991,196.307a3.987,3.987,0,0,0,0-2.072c-.327-2.559-.709-5.11-1.055-7.666-.4-2.929-.792-5.858-1.156-8.791-.41-3.307-.783-6.619-1.174-9.928-.361-3.043-.715-6.086-1.09-9.127-.355-2.881-.732-5.759-1.1-8.637-.385-2.985-.782-5.968-1.16-8.954q-.577-4.56-1.122-9.123a20.738,20.738,0,0,1-.169-3.857,2.3,2.3,0,0,0-.223-.4,2.463,2.463,0,0,0-.323-.39,2.829,2.829,0,0,0-.246-.213,1.718,1.718,0,0,1-.762-1.821,1.817,1.817,0,0,0,.026-.321,1.77,1.77,0,0,0-1.134-1.784,5.655,5.655,0,0,0-.913-.3,17.549,17.549,0,0,0-4.336-.312c-.484,0-.97.031-1.452.005a.893.893,0,0,1-.867-.8,3.9,3.9,0,0,1-.041-.643,17.287,17.287,0,0,1,2.539-9.853c.263-.406.477-.844.739-1.251a43.077,43.077,0,0,0,4.655-10.426c.114-.358.235-.717.313-1.084a.762.762,0,0,0-.525-.887.754.754,0,0,0-.971.324,7.067,7.067,0,0,0-.481,1.192,46.093,46.093,0,0,1-5.221,11.23,17.7,17.7,0,0,0-2.079,4.7,18.691,18.691,0,0,0-.662,5.429c.054,2.385-.733,2.271-2.411,2-1.8-.3-3.59-.689-5.389-1.022a53.627,53.627,0,0,0-11.221-1.129c-.538.014-1.077.046-1.614.045-.6,0-.782-.173-.73-.773q.212-2.413.478-4.821c.072-.651.495-.907,1.148-.75a1.811,1.811,0,0,1,1.6,1.76,1.19,1.19,0,0,0,1.177,1.271,15.962,15.962,0,0,1,2.343.582,82.509,82.509,0,0,0,8.973,1.974,7.511,7.511,0,0,0,1.446.072.783.783,0,0,0,.638-.808.689.689,0,0,0-.5-.742c-.678-.163-1.37-.27-2.06-.38a61.511,61.511,0,0,1-8.168-1.865c-1.724-.52-1.828-.7-1.171-2.385,1.194-3.054,2.424-6.094,3.653-9.134.084-.208.113-.522.492-.547a1.2,1.2,0,0,1,.221,1.58c-.464.856-.453,1,.231,1.465a2.782,2.782,0,0,1,1.066,1.733c.245.88.469,1.766.736,2.639a6.479,6.479,0,0,0,1.21,2.262,1.855,1.855,0,0,0,1.054.7,1.646,1.646,0,0,0,2-.972,10.573,10.573,0,0,0,.944-3.072q.578-3.58,1.144-7.163c.09-.053.179-.147.275-.155a2.956,2.956,0,0,0,2.6-2.321c.176-.507.38-1.005.546-1.516a26.991,26.991,0,0,0,1.1-6.345,10.106,10.106,0,0,1,.1-1.122,1.011,1.011,0,0,1,.986-.9,7.136,7.136,0,0,1,.968,0,1.1,1.1,0,0,0,.94-.532c.159-.215.265-.467.408-.695.22-.351.174-1.054.543-1.055.574,0,.516.724.664,1.14a25.464,25.464,0,0,1,.725,2.641c.2.837.366,1.682.512,2.529a2.431,2.431,0,0,0,2.726,1.756c.845-.03,1.243-.5,1.532-1.78.012-.053.02-.106.029-.159a35.326,35.326,0,0,0,.659-5.929,89.941,89.941,0,0,1,.421-9.676c.038-.319.021-.645.03-.968a10.526,10.526,0,0,0-1.61-5.828,17.1,17.1,0,0,0-1.729-2.331,58.627,58.627,0,0,1-3.856-5.176,1.823,1.823,0,0,1-.139-2.11c.08-.139.132-.294.2-.44q1.887-4.013,3.775-8.026c.137-.292.267-.589.427-.868a.707.707,0,0,1,.821-.357,3.138,3.138,0,0,1,.6.22,28.828,28.828,0,0,0,12.9,2.355c1.612-.046,3.223-.182,4.833-.3a14.336,14.336,0,0,0,9-3.892,18.7,18.7,0,0,0,5.2-8.6,54.356,54.356,0,0,0,2.287-16.239,22.568,22.568,0,0,0-1.535-8.525,41.427,41.427,0,0,0-8.767-12.86,11.884,11.884,0,0,0-5.088-3,44.406,44.406,0,0,0-7.37-1.725,27.99,27.99,0,0,0-10.892.575c-2.771.727-5.238,2.221-7.943,3.114-.524.173-.625.4-.454,1.024a.782.782,0,0,1-.269.975c-.173.128-.35.25-.526.373a21.871,21.871,0,0,0-7.212,8.541,36.5,36.5,0,0,0-3.589,13.15,17.169,17.169,0,0,0,1.046,7.609,26.8,26.8,0,0,0,11,13.529c.319.2.655.376.957.6a.976.976,0,0,1,.385,1.391,6.538,6.538,0,0,1-.389.7,47.253,47.253,0,0,0-3.508,6.711.654.654,0,0,1-.145.278.805.805,0,0,1-.422.2.388.388,0,0,1-.4-.408c0-.7.035-1.4.03-2.1a7.351,7.351,0,0,0-.916-3.556,2.656,2.656,0,0,0-2.595-1.566,54.8,54.8,0,0,0-6.92.492,7.715,7.715,0,0,0-5.887,4.3,15.11,15.11,0,0,0-1.155,3.175c-2.027,7.973-3.969,15.967-5.891,23.966a25.109,25.109,0,0,0-.384,8.815c.353,3.1.77,6.19.838,9.322.125,5.771-.363,11.511-.717,17.259a3.484,3.484,0,0,1-.059.48c-.187.927-.463,1.191-1.408,1.22-.861.026-1.724.018-2.584-.028-2.12-.115-2.065.006-2.107,1.975-.005.24-.016.483-.023.724,0,.121,0,.241,0,.361s.006.24.015.359a3.523,3.523,0,0,0,.119.706,2.6,2.6,0,0,0,.29.658c.015-.009.03-.013.045-.024h0c.013.02.029.036.042.055a4.338,4.338,0,0,0,.548.066.605.605,0,0,0,.654-.569c.055-.42.036-.849.065-1.273.061-.882.419-1.234,1.305-1.291a2.487,2.487,0,0,1,.48.006c1.962.259,2.194-.05,1.976,2.27-.108,1.147-.087,1.605-1.644,1.425-.634-.073-1.281-.025-1.921-.044a1.687,1.687,0,0,1-1.463-.589l-.075-.011c0-.007-.007-.014-.011-.021-.332.2-.675.052-1.014.014a1.2,1.2,0,0,0-.151-.008c-.606.01-.751.146-.821.859a1.349,1.349,0,0,0,0,.233c.007.078.016.157.02.235a3.363,3.363,0,0,0,1.2.631,6.166,6.166,0,0,1,.754.307q1.449.086,2.9.172a8.452,8.452,0,0,1,.962.073.975.975,0,0,1,.865,1,3.609,3.609,0,0,1-.041.643c-.215,1.6-.447,3.2-.652,4.8-.376,2.936-.809,5.867-1.085,8.812-.291,3.107-.445,6.229-.626,9.345q-.564,9.755-1.095,19.511c-.154,2.741-.334,5.481-.46,8.224a95.808,95.808,0,0,0,.242,13.876,7.468,7.468,0,0,0,.24,1.264.786.786,0,0,0,1.014.55.727.727,0,0,0,.631-.8,3.337,3.337,0,0,0-.053-.643,22.826,22.826,0,0,1-.314-3.7c-.18-5.116-.025-10.229.2-15.338.2-4.517.51-9.029.761-13.544.355-6.4.589-12.8,1.314-19.17q.557-4.893,1.129-9.784.219-1.844.516-3.677c.15-.926.47-1.2,1.368-1.277.322-.027.646-.02.968-.038,2.311-.133,4.625-.229,6.932-.414a66.447,66.447,0,0,1,8.391-.163,22.065,22.065,0,0,1,3.665.553,1.366,1.366,0,0,1,1.169,1.335q.044.4.068.8.536,9.19,1.071,18.38c.126,2.15.254,4.3.4,6.448.279,3.974.534,7.95.875,11.919q.483,5.63,1.131,11.245c.429,3.742.939,7.475,1.438,11.209.321,2.4.685,4.793,1.031,7.189l.742.007.742.007a4.842,4.842,0,0,0,.054-.973c-.006-.161-.019-.321-.037-.481-.035-.32-.089-.637-.148-.954-.089-.475-.19-.948-.257-1.424-.554-3.941-1.117-7.88-1.533-11.838-.494-4.707-1.011-9.412-1.461-14.123-.306-3.212-.542-6.432-.762-9.652q-.45-6.6-.824-13.206c-.168-2.9-.278-5.8-.439-8.7-.089-1.611-.251-3.218-.342-4.828-.087-1.541.08-1.711,1.569-1.671a10.094,10.094,0,0,0,2.726-.2,4.533,4.533,0,0,1,.96-.108c.735-.02.976.139,1.238.781a2.811,2.811,0,0,1,.142.462,1.116,1.116,0,0,0,1.078,1.013c.467.027.633.307.684.733q.466,3.844.949,7.685.593,4.8,1.185,9.607c.372,3.043.729,6.087,1.1,9.129s.763,6.082,1.142,9.124q.549,4.4,1.094,8.8c.475,3.788.944,7.577,1.433,11.364.406,3.146.837,6.289,1.258,9.433l1.1.024.385.008m-32.777-94.512c-.558,1.449-1.1,2.906-1.648,4.357q-1.174,3.077-2.36,6.149c-.114.3-.263.578-.387.846a1.277,1.277,0,0,1-.912-.344,1.1,1.1,0,0,1-.394-1.418,3.98,3.98,0,0,1,.158-.456q2.392-5.176,4.792-10.349a3.912,3.912,0,0,1,.308-.563.3.3,0,0,1,.247-.12.441.441,0,0,1,.236.206,1.869,1.869,0,0,1-.039,1.693m22.748-52.185a.616.616,0,0,1-.779.48,1.688,1.688,0,0,1-.431-.19.66.66,0,0,1-.181-.962.653.653,0,0,1,.959-.165.8.8,0,0,1,.431.837m-4.419-5.627a32.745,32.745,0,0,1-4.348-4.977,11.011,11.011,0,0,1-2.11-5.513,30.41,30.41,0,0,1,1.62-13.347,18.9,18.9,0,0,1,5.666-7.916A11.042,11.042,0,0,1,323.4,10.084c.41.125.8.3,1.217.419a.7.7,0,0,0,.9-.464.742.742,0,0,0-.229-.995,6.286,6.286,0,0,0-.857-.439c-.2-.088-.413-.128-.605-.22-.176-.085-.433-.034-.57-.416a20.432,20.432,0,0,1,8.856.431,16.531,16.531,0,0,1,11.332,9.741,25.451,25.451,0,0,1,2.051,10.69A29.423,29.423,0,0,1,343.01,40.26,14.556,14.556,0,0,1,332.8,49.1a23.1,23.1,0,0,1-11.8.217,22.025,22.025,0,0,1-9.454-5.332m-.209,3.887a33.53,33.53,0,0,1-6.63-5.875,19.777,19.777,0,0,1-4.635-15.929,31.68,31.68,0,0,1,1.828-7.507A26.837,26.837,0,0,1,310.73,7.04a41.691,41.691,0,0,1,3.86-2.645,2.845,2.845,0,0,1,2.261-.6.665.665,0,0,0,.867-.511c.2-.763.819-.94,1.482-1.034a36.909,36.909,0,0,1,8.214-.354A39,39,0,0,1,334.4,3.11a12.437,12.437,0,0,1,5.494,2.937,35.187,35.187,0,0,1,8.258,11.444A26.061,26.061,0,0,1,350.1,28.85a55.816,55.816,0,0,1-2.811,14.861,14.924,14.924,0,0,1-1.629,3.5,12.816,12.816,0,0,1-8.887,5.872,36.638,36.638,0,0,1-8.027.719,28.207,28.207,0,0,1-10.343-2.256,5.227,5.227,0,0,1-.966-.548.492.492,0,0,1-.065-.438.593.593,0,0,1,.319-.308,1.3,1.3,0,0,1,.937.119,24.5,24.5,0,0,0,10.187,1.187,22.946,22.946,0,0,0,6.735-1.543,15.725,15.725,0,0,0,7.38-6.033,25.767,25.767,0,0,0,3.406-8.318,35.322,35.322,0,0,0,.859-8.1,27.936,27.936,0,0,0-.768-6.788c-2.255-7.407-7.181-12.06-14.607-14.115a10.608,10.608,0,0,0-2.869-.419c-2.469.011-4.934-.36-7.407-.053a15.206,15.206,0,0,1-1.937.055A6.48,6.48,0,0,0,315.679,7.5a48.537,48.537,0,0,0-6.577,5.46,20.308,20.308,0,0,0-5.01,9.8,33.08,33.08,0,0,0-.666,10.114,15.953,15.953,0,0,0,3.446,8.727,28.305,28.305,0,0,0,4.733,4.61c.422.334.842.671,1.249,1.023a.647.647,0,0,1,.11.875c-.137.247-.332.445-.643.3a6.857,6.857,0,0,1-.988-.537m-2.155,11.37a8.914,8.914,0,0,1,.513-1.172c1.093-2.026,2.2-4.043,3.3-6.065.077-.141.133-.294.217-.43a.6.6,0,0,1,.955-.15,1.01,1.01,0,0,1,.454.664,3.923,3.923,0,0,1-.144.429q-2,4.38-4.015,8.756a.376.376,0,0,1-.647.117,1.819,1.819,0,0,1-.636-2.148m-7.35-5.844a.282.282,0,0,1,.2-.167,9.135,9.135,0,0,1,1.111-.033,1.42,1.42,0,0,1,1.168.726,3.653,3.653,0,0,1,.366,2.6c-.558-.615-.957-1.087-1.391-1.525s-.932-.865-1.388-1.308a.355.355,0,0,1-.07-.29M285.088,82.927q2.537-10.5,5.12-21a21.847,21.847,0,0,1,1.859-5.143,6.046,6.046,0,0,1,2.977-2.838,5.016,5.016,0,0,1,4.076.063,7.725,7.725,0,0,1,2.512,1.722,25.052,25.052,0,0,1,2.474,3.182,1.3,1.3,0,0,1,.2,1.072,3.522,3.522,0,0,0-.054.794.527.527,0,0,0,.568.442c.521-.021.916-.666,1.484-.334.476.278.309.882.558,1.3a.961.961,0,0,0,.958.453c.38-.01.783-.083,1.018.3a1.381,1.381,0,0,1,.017,1.247,3.37,3.37,0,0,1-1.265,1.632.771.771,0,0,0-.287.863.929.929,0,0,0,1.6.508,9.956,9.956,0,0,0,.712-.872c.234-.283.358-.674.794-.8a26.711,26.711,0,0,0,3.5,4.812,18.61,18.61,0,0,1,3,4.571,5,5,0,0,1,.457,2.669,75.527,75.527,0,0,0-.374,9.191,55.042,55.042,0,0,1-.667,7.066,1.11,1.11,0,0,1-.133.456.632.632,0,0,1-.359.273.456.456,0,0,1-.521-.282,2.061,2.061,0,0,1-.157-.618,15.868,15.868,0,0,0-.949-4.072,13.352,13.352,0,0,1-.888-5.371c.081-.927-.14-1.152-1.128-1.428a.906.906,0,0,1-.764-.862,20.727,20.727,0,0,0-1.517-5.251,10.761,10.761,0,0,0-1.288-2.23,2.262,2.262,0,0,0-2.572-.888,2.43,2.43,0,0,0-1.619,2.041.978.978,0,0,0,.522,1.086.683.683,0,0,0,.875-.148c.151-.22.257-.469.39-.7.474-.83.859-.846,1.325.023a21.1,21.1,0,0,1,2.334,6.836,15.926,15.926,0,0,1,.047,5.144c-.037.212-.053.429-.109.635a.82.82,0,0,1-1.138.56,1.358,1.358,0,0,1-.882-.877,5.6,5.6,0,0,1-.184-.944,21.943,21.943,0,0,0-2.939-7.8,5.021,5.021,0,0,0-2.043-2.011,2.98,2.98,0,0,0-.75-.271.926.926,0,0,0-.966.69.619.619,0,0,0,.373.8,5.214,5.214,0,0,1,2.538,2.8,20.325,20.325,0,0,1,2.286,11.383,33.6,33.6,0,0,1-1.132,6.015,10.217,10.217,0,0,1-.375,1.058c-.067.171-.413.191-.563.064a1.471,1.471,0,0,1-.473-1.308,22.125,22.125,0,0,0-.132-3.869,20.685,20.685,0,0,0-1.661-6.208,8.457,8.457,0,0,0-4.993-4.759,4.511,4.511,0,0,0-3.454.07,1.763,1.763,0,0,0-.519.363.915.915,0,0,0-.039,1.055c.172.281.447.264.71.242a2.488,2.488,0,0,0,.628-.135,3.5,3.5,0,0,1,3.346.611,8.943,8.943,0,0,1,3.379,4.6,20.838,20.838,0,0,1,.959,5.386,43.9,43.9,0,0,1-.762,10.762c-.259,1.428-.561,2.849-.861,4.27a8.076,8.076,0,0,1-.337,1.071.323.323,0,0,1-.525.069,4.181,4.181,0,0,1-.967-2.011c-.368-1.348-.694-2.707-1.034-4.063a32.768,32.768,0,0,0-1.614-5.064,3.707,3.707,0,0,1-.292-1.888.859.859,0,0,0-.536-.895c-.515-.287-1-.636-1.5-.947-1.161-.72-1.43-.633-1.873.6-.055.152-.085.312-.138.464a85.362,85.362,0,0,1-5.669,12.288c-.063.118-.114.183-.356.12a7.662,7.662,0,0,1-.026-1.792c.133-3.067.162-6.133.07-9.2a59.611,59.611,0,0,0-.754-7.707,22.912,22.912,0,0,1,.472-9.125m20.835,43.012a.513.513,0,0,1-.4.186c-.37-.044-.732-.15-1.1-.225a38.632,38.632,0,0,0-7.683-.385c-1.229,0-2.459,0-3.688,0-.573.117-1.149.2-1.727.263a23.47,23.47,0,0,1-2.468.122q-.3,0-.6-.006a3.69,3.69,0,0,1-1.48.267c-.143,0-.287,0-.43-.007a11.163,11.163,0,0,0-1.5,0,.708.708,0,0,1-.653-.38,1.008,1.008,0,0,1,.029-1.171c-.02-2.646.273-2.286,2.32-2.416a39.98,39.98,0,0,1,9.308.63c.422.073.845.144,1.268.219a23.23,23.23,0,0,1,3.75.918,15.269,15.269,0,0,1,3.29.235c.207.027.415.052.623.073.186.019.372.034.559.045.7.04,1.024,1,.588,1.629m8.752-.376c-.052.833-.052.861-.574.867a24.8,24.8,0,0,0-3.5.33,6.258,6.258,0,0,1-1.752.005,1.341,1.341,0,0,1-1.058-1.916c.1-.248.264-.526.549-.526.511,0,1.024-.04,1.537-.076.307-.022.615-.042.923-.051q.154,0,.307-.006c.2,0,.409,0,.613.019a5.244,5.244,0,0,1,1.521.321c.1,0,.2-.011.307-.016a2.729,2.729,0,0,1,.306,0c.836.058.855.088.822,1.051" transform="translate(-182.558 0)" fill="#fff"/>
    <path id="Path_6337" data-name="Path 6337" d="M281.228,371.657c-.014.01-.029.014-.043.023,0,.007.007.014.011.021l.033-.044" transform="translate(-186.48 -246.48)" fill="#fff"/>
    <path id="Path_6338" data-name="Path 6338" d="M401.585,379.7a2.292,2.292,0,0,0-.223-.4,2.292,2.292,0,0,1,.223.4" transform="translate(-266.18 -251.553)" fill="#fff"/>
    <path id="Path_6339" data-name="Path 6339" d="M425.1,582.826l-.385-.008.385.008" transform="translate(-281.671 -386.52)" fill="#fff"/>
    <path id="Path_6340" data-name="Path 6340" d="M281.185,371.725h0c0,.007.006.014.011.021s-.007-.014-.011-.021" transform="translate(-186.48 -246.525)" fill="#fff"/>
    <path id="Path_6341" data-name="Path 6341" d="M279.923,365.9c0-.12,0-.241,0-.362,0,.121,0,.241,0,.362" transform="translate(-185.642 -242.42)" fill="#fff"/>
    <path id="Path_6342" data-name="Path 6342" d="M384.953,582.766h0l.742.007-.742-.007" transform="translate(-255.298 -386.486)" fill="#fff"/>
    <path id="Path_6343" data-name="Path 6343" d="M275.29,374.983c.006.078.015.157.02.235,0-.078-.013-.157-.02-.235" transform="translate(-182.57 -248.686)" fill="#fff"/>
    <path id="Path_6344" data-name="Path 6344" d="M281.228,371.655h0c-.015.01-.03.015-.045.024h0c.014-.008.029-.013.043-.023" transform="translate(-186.479 -246.478)" fill="#fff"/>
    <path id="Path_6345" data-name="Path 6345" d="M284.053,378.636q-1.448-.088-2.9-.172,1.448.085,2.9.172" transform="translate(-186.46 -250.994)" fill="#fff"/>
    <path id="Path_6346" data-name="Path 6346" d="M79.348,168.176a2.945,2.945,0,0,0-1.859-.389,5.71,5.71,0,0,0-2.119.734,35.684,35.684,0,0,1-4.877,2.11,118.426,118.426,0,0,1-18.837,4.352c-1.6.245-3.2.441-4.794.68a.783.783,0,0,0-.641.957.731.731,0,0,0,.738.71,7.213,7.213,0,0,0,1.284-.1c3.069-.542,6.183-.808,9.217-1.558a.934.934,0,0,1,1.141,1.238,5.321,5.321,0,0,1-.425,1.041c-1.635,3.21-3.212,6.452-5.122,9.514-.256.41-.479.842-.7,1.274a7.833,7.833,0,0,0-.912,4.519c.114.972-.064,1.142-1,1.219-.214.018-.431.009-.646.014-2.206.061-4.412.137-6.618.181-3.017.06-6.024.238-9.021.589-1.435.168-2.869.346-4.359.525-.075-.413-.148-.778-.207-1.144-.274-1.7-.5-3.408-.824-5.1A31.025,31.025,0,0,0,22.2,175.186a24.236,24.236,0,0,1-3.461-5.241,24.825,24.825,0,0,1-2.143-12.432,11.433,11.433,0,0,1,2.627-6.648c1.062-1.288,2.069-2.62,3.136-3.9,2.995-3.6,6.022-7.178,9.008-10.787,1.456-1.76,1.479-2.208,4.724-1.787.053.007.1.026.158.033a36.762,36.762,0,0,1,6.823,1.849,15.948,15.948,0,0,1,7.5,5.635,4.4,4.4,0,0,1,.722,1.43c.192.613-.034.954-.659.964-1.077.017-2.154-.008-3.231-.006a35.818,35.818,0,0,1-8.977-.863,6.1,6.1,0,0,0-1.926-.081,1.813,1.813,0,0,0-1.829,1.875c-.031.32,0,.646-.019.969a9.7,9.7,0,0,1-.352,2.39c-.2.668-.385,1.345-.53,2.028a8.8,8.8,0,0,0,.317,5.079c1.034,2.713,2.034,5.438,3.065,8.153a43.948,43.948,0,0,0,3.6,7.565,16.691,16.691,0,0,1,2.652,6.011.883.883,0,0,0,.05.153.776.776,0,0,0,1.3.335,1.028,1.028,0,0,0,.345-1.159,13.909,13.909,0,0,0-1.437-3.579,41.627,41.627,0,0,1-3.262-6.3q-2.064-4.907-4.068-9.838a15.444,15.444,0,0,1-.6-1.84,9.608,9.608,0,0,1,.1-5.721,9.462,9.462,0,0,0,.584-3.48c-.034-.812.317-1.071,1.091-.94,1.06.18,2.117.377,3.178.544a76.031,76.031,0,0,0,8.865.45,9.883,9.883,0,0,0,1.611-.09c1.714-.214,2.291-1.091,1.887-2.81a7.609,7.609,0,0,0-1.879-3.339,18.885,18.885,0,0,0-6.733-4.9,30.685,30.685,0,0,0-5.187-1.755,22.066,22.066,0,0,0-4.8-.588,4.722,4.722,0,0,0-4.239,2.2,4.252,4.252,0,0,1-1.269,1.4,1.52,1.52,0,0,1-.57-.8c-1.187-2.476-2.195-5.027-3.156-7.6-3.771-10.081-6.913-20.362-9.693-30.756a52.508,52.508,0,0,0-2.915-8.347c-.515-1.125-1.029-2.25-1.519-3.385a29.926,29.926,0,0,1-2.336-7.7,3.566,3.566,0,0,0-.079-.477.868.868,0,0,0-.823-.645.8.8,0,0,0-.793.843,7.72,7.72,0,0,0,.3,2.864c.644,1.767,1.2,3.567,1.781,5.357.169.517.106.669-.305.924-1.165.721-1.8.543-2.43-.7-.534-1.056-1.04-2.126-1.583-3.177a4.284,4.284,0,0,0-.64-.918.87.87,0,0,0-1.175.009c-.331.232-.407.526-.183.979.286.578.589,1.149.921,1.7a10.886,10.886,0,0,1,1.058,2.52c.151.5.075.78-.388.9C3.156,88.086,2.173,89.029.9,89.326a.858.858,0,0,0-.667.971,3.986,3.986,0,0,0,.112.633,2.031,2.031,0,0,0,1.985-.2A23.88,23.88,0,0,1,4.47,89.611c.939-.425,1.359-.277,1.809.658a20.469,20.469,0,0,1,.817,2.1c1.176,3.346,2.412,6.668,3.9,9.89.719,1.561,1.48,3.1,2.264,4.632a92.917,92.917,0,0,1,7.116,19.139,133.956,133.956,0,0,0,4.365,13.989,1.308,1.308,0,0,1,.108,1.085,1.387,1.387,0,0,1-.519.581c-.312.17-.473-.145-.621-.351a18.155,18.155,0,0,1-3.165-6.831c-1.18-5.573-3.535-10.7-5.811-15.852-3.3-7.472-7-14.752-10.7-22.031-.608-1.2-1.169-2.417-1.751-3.627-.093-.193-.2-.383-.277-.581a1.265,1.265,0,0,0-1.681-.817,1.453,1.453,0,0,0-.2.27.947.947,0,0,0-.021.913c.391.824.78,1.649,1.2,2.459,1.106,2.143,2.257,4.264,3.335,6.421,1.9,3.791,3.794,7.581,5.61,11.41,1.7,3.592,3.315,7.228,4.938,10.857.438.979.808,1.992,1.147,3.01.254.763.409,1.559.608,2.34a1.487,1.487,0,0,1-.524,1.587c-.2.175-.428.324-.642.486A7.986,7.986,0,0,0,12.5,138.82c.134,1.554.247,3.112.462,4.656.3,2.129.639,4.252,1.135,6.347a2.081,2.081,0,0,0,2.294,1.89,7.512,7.512,0,0,0-1.153,3.075c-.2,1.818-.391,3.633-.425,5.467a20.48,20.48,0,0,0,3.476,12.205c2.051,3.027,4.058,6.085,6.122,9.1a8.79,8.79,0,0,1,1.388,3.057c.39,1.73.83,3.45,1.183,5.187.386,1.9.694,3.807,1.044,5.71a.565.565,0,0,1-.418.739c-1.174.364-2.313.846-3.572.158a1.015,1.015,0,0,0-1.42.862,1.988,1.988,0,0,0,.138,1.105,9.8,9.8,0,0,1,.492,1.362c.214.911-.012,1.117-.811,1.152a9.131,9.131,0,0,1-1.291,0,28.113,28.113,0,0,0-6.411.581,2.907,2.907,0,0,0-2.03,1.194c-.857,1.169-.624,2.215.3,2.813a2.964,2.964,0,0,1,1.263,2.138c.679,3.591,1.431,7.169,2.137,10.755.582,2.953,1.216,5.9,1.684,8.871.61,3.877,1.045,7.782,1.621,11.665.284,1.912.7,3.806,1.087,5.7a6.846,6.846,0,0,0,.52,1.519,1.383,1.383,0,0,0,1.4.89c.244-.014.488-.023.733-.031s.479-.013.718-.022a3.383,3.383,0,0,0,.685-4.137,5.579,5.579,0,0,1-.317-1.079,74.958,74.958,0,0,1-1.26-7.8q-.421-3.282-.877-6.56c-.536-3.839-1.314-7.636-2.123-11.423-.719-3.363-1.206-6.777-2.165-10.089a1,1,0,0,1-.021-.32.472.472,0,0,1,.353-.474,1.645,1.645,0,0,1,.48-.034,30.84,30.84,0,0,0,7.078-.32c.686-.134,1.383-.221,2.078-.288,3.8-.367,7.612-.685,11.439-.726,3.122-.034,6.242-.144,9.364-.187a23.114,23.114,0,0,1,2.413.165,1.9,1.9,0,0,1,1.741,1.449c.112.359.225.719.3,1.086.281,1.366.567,2.731.813,4.1,1.131,6.3,2.241,12.606,3.374,18.907a92.018,92.018,0,0,0,2.236,9.912,9.867,9.867,0,0,0,.5,1.357.779.779,0,0,0,.969.367.829.829,0,0,0,.64-.828,7.153,7.153,0,0,0-.275-1.09c-.247-.824-.556-1.633-.753-2.468-1.182-5.03-2.121-10.108-3-15.2-.746-4.294-1.531-8.58-2.294-12.87-.15-.847-.31-1.694-.408-2.548-.174-1.52-.139-1.542,1.374-1.511,1.048.022,1.431.337,1.644,1.375.054.263.064.535.1.8.462,3.195.875,6.4,1.4,9.583.738,4.458,1.568,8.9,2.347,13.353,1.01,5.779,1.9,11.574,2.443,17.419a35.959,35.959,0,0,0,5.139.1.436.436,0,0,0,.43-.654c-.36-.893-.645-1.809-.955-2.718a42.87,42.87,0,0,1-1.783-8.328c-.488-3.728-1.158-7.423-1.831-11.119-.74-4.065-1.468-8.133-2.128-12.212-.471-2.913-.829-5.846-1.223-8.772a4.184,4.184,0,0,0-1.661-3.006,11.972,11.972,0,0,0-3.044,0c-.5.029-.677-.113-.778-.6a4.149,4.149,0,0,1,.068-2.683c-.008-.188-.011-.377-.017-.565s-.015-.377-.037-.563c-.093-.782-.278-.981-1.1-1.14-.527-.1-1.065-.15-1.6-.214-.288-.034-.53-.143-.587-.447-.327-1.733-.388-3.409.773-4.931a18.413,18.413,0,0,0,1.545-2.458c1.4-2.606,2.765-5.229,4.129-7.853a4.216,4.216,0,0,0,.516-2.486c-.094-.819.1-1.066.88-1.274,1.3-.346,2.613-.63,3.916-.957a46.613,46.613,0,0,0,11.341-4.095,2.365,2.365,0,0,1,2.3-.2.742.742,0,0,0,1.05-.452.9.9,0,0,0-.442-1.1M20.277,119.555a.3.3,0,0,1-.227-.176c-.228-.747-.823-1.391-.635-2.262.027-.123-.083-.3-.169-.419a8.238,8.238,0,0,1-1.107-3.141C15.827,108.465,13.5,103.38,11.21,98.28a72.327,72.327,0,0,1-2.8-7.384c-.165-.509-.4-.994-.6-1.494-.145-.374-.055-.67.3-.794,1.8-.634,2.126-1.141,3.06,1.071a80.282,80.282,0,0,1,2.991,8.345c1.379,4.638,2.7,9.293,4.04,13.942.079.274.14.553.2.832.031.141.061.282.093.422a3.21,3.21,0,0,1,.657,1.281,4.479,4.479,0,0,1,.1.458c.238,1.472.837,2.833,1.18,4.268.038.158.055.315-.152.329m3.594,10.8c0-.145-.023-.313.235-.431a2.922,2.922,0,0,1,.773,1.28c.548,1.335,1.087,2.676,1.571,4.036a7.1,7.1,0,0,0,1.057,2.142.812.812,0,0,1-.445,1.131.312.312,0,0,1-.27-.055,13.2,13.2,0,0,1-1.255-1.656,12.4,12.4,0,0,1-1.666-6.447m-7.4,20.4c-1.39-2.579-1.374-5.483-1.886-8.26a27.144,27.144,0,0,1-.39-4.5,6.178,6.178,0,0,1,3.339-5.782,1,1,0,0,1,.535.643c1.343,3.282,2.667,6.571,4.043,9.839a1.842,1.842,0,0,1-.3,2.2,58.585,58.585,0,0,0-4.934,6.168,1.165,1.165,0,0,1-.247.2c-.237-.117-.077-.361-.162-.519m34.881,49c-2.582-.73-5.192-.161-7.786-.228-.85-.022-1.7-.012-2.551-.016-4.074.211-8.148.41-12.221.643-.908.052-1.808.229-2.714.332a1.128,1.128,0,0,1-1.25-1.248.6.6,0,0,1,.268-.358,6.9,6.9,0,0,1,2.409-.869,97.1,97.1,0,0,1,10.359-1.4c4.234-.3,8.478-.2,12.711-.452.107-.006.215-.012.322-.01.666.012.882.191.943.825.03.32.012.644.017.966.017.036.036.071.054.107.035.07.07.139.106.208.056.107.111.215.157.325a1.756,1.756,0,0,1,.076.222.742.742,0,0,1-.9.955m3.042-3.7c.351.046.628.337.524.648a3.912,3.912,0,0,0,.012,2.647.431.431,0,0,1-.413.543.425.425,0,0,1-.485-.311c-.187-.88-.345-1.767-.453-2.329-.034-.952.268-1.27.815-1.2" transform="translate(0 -50.715)" fill="#fff"/>
    <path id="Path_6347" data-name="Path 6347" d="M.579,121.371h0a1.438,1.438,0,0,0-.2.27,1.438,1.438,0,0,1,.2-.27" transform="translate(-0.252 -80.492)" fill="#fff"/>
    <path id="Path_6348" data-name="Path 6348" d="M168.265,432.937c-.008-.188-.01-.377-.017-.565.006.189.008.377.017.565" transform="translate(-111.581 -286.745)" fill="#fff"/>
    <path id="Path_6349" data-name="Path 6349" d="M69.643,582.726l.718-.021h0c-.239.008-.479.015-.718.022" transform="translate(-46.187 -386.445)" fill="#fff"/>
    <path id="Path_6350" data-name="Path 6350" d="M913.307,44.994a27.481,27.481,0,0,0-7.137-11.546,43.865,43.865,0,0,0-9.413-6.756,29.851,29.851,0,0,0-14.714-3.617,4.714,4.714,0,0,1-2.346-.436,1.779,1.779,0,0,0-2.237.179.9.9,0,0,1-.9.154,19.308,19.308,0,0,0-11.393,1,42.61,42.61,0,0,0-14.368,8.761A57.758,57.758,0,0,0,834.453,59.35a35.59,35.59,0,0,0-1.559,10.336,38.711,38.711,0,0,0,3.839,15.707,2.83,2.83,0,0,0,.747,1.041,35.356,35.356,0,0,1,4.112,4.539c1.434,1.678,2.868,3.354,4.456,4.892a22.11,22.11,0,0,0,8.668,5.43,4.954,4.954,0,0,1,.713.36.87.87,0,0,1,.316-.029c2.667.82,5.42,1.271,8.134,1.886.063.014.129.024.193.036a.49.49,0,0,1,.45.331c-.007.1-.014.2-.021.306a15.642,15.642,0,0,1-.764,3.54A16.9,16.9,0,0,1,862.2,111a17.026,17.026,0,0,0-1.448,2.877,17.376,17.376,0,0,0-.9,6.519,111.138,111.138,0,0,1-.338,12.579,22.261,22.261,0,0,1-1.241,6.146,54.493,54.493,0,0,0-1.933,5.641,1.252,1.252,0,0,1-.763.929c-.837.37-.933.586-.579,1.36a4.712,4.712,0,0,1,.173,3.458c-.2.669-.393,1.342-.556,2.021a.911.911,0,0,1-.83.819c-.576.1-.733.434-.564.911a9.513,9.513,0,0,0,.469,1.024.925.925,0,0,1,.053.927,8.457,8.457,0,0,0-.763,2.454c-.994,3.457-2.005,6.909-2.756,10.43-.178.838-.365,1.675-.574,2.506-.2.781-.451,1.547-.637,2.33q-1.228,5.179-2.428,10.364c-1.622,7.018-3.445,13.991-4.846,21.06-.334,1.688-.608,3.387-.911,5.081-.039.216-.076.446.12.59a.94.94,0,0,0,1.356-.541c.364-1.9.655-3.818,1.079-5.706q1.891-8.419,3.871-16.817c.653-2.773,1.447-5.512,2.086-8.288,1.351-5.867,2.646-11.748,4.236-17.557.511-1.867,1.073-3.719,1.616-5.577a.447.447,0,0,1,.623-.317c.1.028.207.058.308.1a21.145,21.145,0,0,0,6.63,1.231c1.99.08,3.98.149,5.967.279,1.34.088,2.68.241,4.01.428a17.817,17.817,0,0,1,2.357.534.846.846,0,0,1,.713,1.077c-.029.266-.106.526-.156.79-.819,4.28-1.531,8.577-2.1,12.9-.381,2.88-.774,5.759-1.142,8.64-.327,2.559-.749,5.113-1.018,7.67-.444,4.224-1.194,8.408-1.541,12.642-.206,2.521-.473,5.036-.707,7.555a3.757,3.757,0,0,0,0,.644.4.4,0,0,0,.424.388,8.715,8.715,0,0,0,.965-.012.423.423,0,0,0,.411-.414c.034-.321.046-.644.075-.965.249-2.788.464-5.579.76-8.362.346-3.263.741-6.522,1.152-9.778q.677-5.364,1.427-10.719c.589-4.154,1.225-8.3,1.84-12.451q.474-3.192.947-6.385a3.986,3.986,0,0,1,.489-1.634c.518.341.326.82.38,1.22a1.14,1.14,0,0,0,.9,1.015,1.175,1.175,0,0,0,1.285-.459,2.666,2.666,0,0,0,.274-.4,27.022,27.022,0,0,0,3.08-7.248,16.639,16.639,0,0,0,.4-5.927,4.569,4.569,0,0,0-.78-2.261A2.023,2.023,0,0,0,880.07,146c-.187.157-.29.446-.682.371a3.277,3.277,0,0,1,.785-2.2,14.3,14.3,0,0,0,2.207-3.92c.753-1.9,1.6-3.755,2.482-5.6a44.893,44.893,0,0,0,4.078-22.773,27.521,27.521,0,0,1,.446-8.985,6.856,6.856,0,0,0,.169-1.28,3.841,3.841,0,0,0-.752-2.734c-.2-.254-.372-.526-.557-.789q-1.331-.543-2.661-1.087a.952.952,0,0,0-1.068.089,2.712,2.712,0,0,1-2.575.49,40.977,40.977,0,0,0-5.774-.55,1.178,1.178,0,0,0-.775.53c-.274.462-.563.916-.845,1.373-1.5,2.425-2.982,4.856-4.492,7.273-.684,1.094-1.389,2.176-2.136,3.228-.329.464-.547,1.055-1.148,1.287a2.459,2.459,0,0,1-.855-1.794A5.007,5.007,0,0,1,867,104.844a7.161,7.161,0,0,1,1.781-1.623.894.894,0,0,0,.468-1.079,1.671,1.671,0,0,1,.607-1.734,21.717,21.717,0,0,0,2.919-3.845,17.016,17.016,0,0,1,2.658-3.425,3.77,3.77,0,0,1,1.359-1.559,3.626,3.626,0,0,1,.514-.272c.119-.052.239-.1.364-.139a5.3,5.3,0,0,1,1.414-.236,9.326,9.326,0,0,1,2.718.278,19.1,19.1,0,0,1,3.725,1.521,12.02,12.02,0,0,0,1.167.541.575.575,0,0,0,.7-.257.661.661,0,0,0,.015-.761,2.1,2.1,0,0,0-.573-.551,14.364,14.364,0,0,0-7.767-2.359,5.541,5.541,0,0,0-4.5,2.156c-.263.326-.393.782-.889.94a3.49,3.49,0,0,1-.774-1.547c-.511-2.352-2.277-3.421-4.35-4.1a1.97,1.97,0,0,0-2.389.884,8.226,8.226,0,0,0-.732,1.431,13.994,13.994,0,0,0-.776,6.827c.129,1.231.259,2.462.339,3.7.133,2.069-.045,2.24-2.146,1.928a36.77,36.77,0,0,1-8.235-2.228,22,22,0,0,1-9.418-6.845c-1.163-1.479-2.434-2.872-3.656-4.3a5.9,5.9,0,0,1-1.833-2.268c-.015-.023.051-.1.109-.166.019-.023.037-.045.052-.065a4.431,4.431,0,0,0,.452-.4c.4-.461.334-.77-.242-1.064a2.026,2.026,0,0,0-.442-.113c-.2.086-.392.18-.593.254a.524.524,0,0,1-.694-.219c-.138-.229-.262-.468-.385-.707a26.658,26.658,0,0,1-3.045-9.95A28,28,0,0,1,834.666,69c.019-.9.077-1.8.169-2.7a27.61,27.61,0,0,1,.89-4.881,1.228,1.228,0,0,1,1.382-1.059,12.176,12.176,0,0,1,1.274.127,2.278,2.278,0,0,1,1.25-.041,4.844,4.844,0,0,1,1.571-.176h.012c.207,0,.415.015.623.026l.316.015c1.323.058,2.645.153,3.967.232a3.581,3.581,0,0,1,1.591-.029c.472.015.944.027,1.416.039,1.1.028,2.194.053,3.29.1.522.021,1.045.045,1.567.077,3.428.207,6.849.527,10.278.717a40.351,40.351,0,0,1,11.069,1.869,2.558,2.558,0,0,0,.306.1,1.729,1.729,0,0,0,2.219-1.316c.13-.406.2-.829.3-1.244a63.625,63.625,0,0,1-.111-7.26c.077-4.252.282-8.5.736-12.727a4.444,4.444,0,0,1-.068-.9c.007-.5.072-1,.1-1.5.114-1.921.257-3.841.382-5.762.083-1.28.155-2.56.232-3.839a7.856,7.856,0,0,1-.175-2.96,1.563,1.563,0,0,1,.1-.454,1.032,1.032,0,0,1,1-.635,2.246,2.246,0,0,1,.312-.089A1.653,1.653,0,0,1,881,24.7H881a1.475,1.475,0,0,1,.324.039,1.519,1.519,0,0,1,.322.118l.32.128a14.351,14.351,0,0,1,3.478-.056c.693.063,1.383.159,2.073.265a7.75,7.75,0,0,1,2.892.839,4.2,4.2,0,0,1,2.908,1.205,6.118,6.118,0,0,1,.606.208,50.6,50.6,0,0,1,8.964,5.351,12.815,12.815,0,0,1,3.35,3.423,21.443,21.443,0,0,1,3.494,5.177,41.323,41.323,0,0,1,3.875,11.884,4.319,4.319,0,0,1,0,.8,27.506,27.506,0,0,1,.617,9.371q.1,1.257.087,2.5a26.829,26.829,0,0,1-1.089,7.372,42.2,42.2,0,0,1-1.725,4.848c-1.065,2.462-2.1,4.936-3.241,7.364a31.25,31.25,0,0,1-12.577,13.434,8,8,0,0,1-1.91.833c-.215.063-.431.131-.648.193a3.359,3.359,0,0,1-2.015.093.76.76,0,0,0-.724.483.937.937,0,0,0-.03.35c.032.394.252.611.739.7a7.726,7.726,0,0,0,1.918.1,11,11,0,0,0,3.829-1.1,27.638,27.638,0,0,1,3.349-2.72,25.3,25.3,0,0,0,4.571-4.235,19.922,19.922,0,0,1,2.415-2.744l0,0a.329.329,0,0,1,.278-.389h0c.232-.331.454-.669.671-1.009s.412-.656.609-.99q.471-.8.9-1.626.388-.751.744-1.52.178-.384.348-.772c.908-2.065,1.772-4.151,2.615-6.245a41.065,41.065,0,0,0,2.844-14.966,55.433,55.433,0,0,0-.637-8.684,53.563,53.563,0,0,0-2.242-9.729m-33.061,107.66a1.128,1.128,0,0,1,.491-.954c.322-.178.737-.269.9-.626.2-.431.325-.9.592-1.664a14.5,14.5,0,0,1-1.692,8.081,4.833,4.833,0,0,1-.354.522.161.161,0,0,1-.142.055c-.081-.036-.2-.095-.213-.159a5.133,5.133,0,0,1-.049-.8,32.785,32.785,0,0,1,.462-4.458M866.782,89.606a6.946,6.946,0,0,1,.3-.741,1.318,1.318,0,0,1,1.66-.577,4.459,4.459,0,0,1,2.636,2.652,11,11,0,0,0,.448,1.118c.1.225.207.449.31.674.065.142.131.284.193.427l.011.006a1.924,1.924,0,0,1,.443.272c.156.144.156.283.029.477-.381.584-.773,1.162-1.189,1.721-1.122,1.505-2.249,3.007-3.4,4.492a3.365,3.365,0,0,1-1.122,1.119c-.049.156-.12.323-.3.321a.265.265,0,0,1-.288-.292,58.465,58.465,0,0,0-.423-6.11,12.828,12.828,0,0,1,.684-5.56m8.946,67.408a5.159,5.159,0,0,1-.956-.145,43.461,43.461,0,0,0-8.812-.9c-2.153-.075-4.3-.228-6.437-.44a10.769,10.769,0,0,1-1.743-.316c-1.2-.325-1.642-1-1.539-2.584.19-.963.429-2.231.7-3.492.085-.4.3-.493.732-.333a48.994,48.994,0,0,0,7.287,2.031,80.033,80.033,0,0,0,8.621,1.2c.749.067,1.5.152,2.24.277.472.079.749.37.66.765a9.2,9.2,0,0,0,.117,3.037.771.771,0,0,1-.865.9m-9.111-42.25c1.195-2.042,2.362-4.1,3.611-6.112,1.9-3.062,3.864-6.087,5.8-9.128.087-.136.169-.275.259-.409a1.234,1.234,0,0,1,1.659-.555c.074.032.15.059.227.084s.154.049.231.075l2.316.2q1.157.1,2.315.2a2.586,2.586,0,0,0,1.707-.282,1.554,1.554,0,0,1,2.333.536,3.062,3.062,0,0,1,.279,3.21,2.368,2.368,0,0,1-2.239,1.572,7.849,7.849,0,0,1-1.6-.148,7.325,7.325,0,0,0-6.67,2.037,12.8,12.8,0,0,0-1.178,1.326q-3.386,4.219-6.751,8.453c-.416.524-.86.816-1.515.451-.357-.2-.6.108-.892.175-.256.058-.38-.093-.394-.351a2.392,2.392,0,0,1,.5-1.337m-1.313-3.4c.305.281.718.158,1.12.365a5.428,5.428,0,0,1-.8,1.673,9.223,9.223,0,0,0-.943,2.219,1.756,1.756,0,0,0,1.2,2.432c.287.124.649.093.9.5-.29.616-.614,1.282-.917,1.956a9.911,9.911,0,0,0-.611,1.49,2.982,2.982,0,0,0,3.613,3.726c.665-.2,1.3-.5,2.158-.84a13.809,13.809,0,0,1-.888,2.242,12.116,12.116,0,0,0-.952,3.072,1.747,1.747,0,0,0,.657,1.866,2.116,2.116,0,0,0,2.281.233,4.152,4.152,0,0,0,1.3-1.182q3.362-4.028,6.723-8.057c.31-.371.629-.738.909-1.131a.756.756,0,0,0-.167-1.131.815.815,0,0,0-1.25.23c-1.4,2.465-3.427,4.408-5.267,6.511-.566.647-1.062,1.354-1.609,2.017-.341.413-.7.809-1.082,1.189a.541.541,0,0,1-.727.111.638.638,0,0,1-.238-.716,8.386,8.386,0,0,1,.341-1.243,47.044,47.044,0,0,1,5.273-9.951,2.939,2.939,0,0,1,.385-.363l.39.727a.571.571,0,0,0,.67.312.7.7,0,0,0,.575-.5,12.981,12.981,0,0,0,.3-1.583,6.874,6.874,0,0,1,.45-2.2.74.74,0,0,0-.285-.986.788.788,0,0,0-1.126.268,38.33,38.33,0,0,1-4.173,4.484,12.608,12.608,0,0,0-1.945,2.565,6.485,6.485,0,0,1-2.076,2.218,2.135,2.135,0,0,1-1.683.369,1.337,1.337,0,0,1-1.124-1.523,5.758,5.758,0,0,1,.425-1.379,16.846,16.846,0,0,1,2.263-3.707c1.255-1.615,2.529-3.213,3.8-4.813q1.76-2.209,3.539-4.4a16.664,16.664,0,0,1,1.174-1.328,5.564,5.564,0,0,1,5.642-1.494,3.321,3.321,0,0,0,2.492-.132,2.813,2.813,0,0,1,.769-.225.268.268,0,0,1,.33.249,5.692,5.692,0,0,1,.026.642c-.052,3.283.073,6.562.128,9.843a37.259,37.259,0,0,1-3.51,16.745c-.942,1.994-1.834,4.006-2.654,6.051a20.028,20.028,0,0,1-2.7,4.937,4.886,4.886,0,0,0-.962,2.363c-.114.8-.2,1.6-.3,2.4-.048.373-.079.751-.163,1.116-.186.81-.417.977-1.224.922-.536-.037-1.073-.086-1.608-.141a71.821,71.821,0,0,1-14.1-2.563c-.41-.127-.829-.238-1.223-.4a1.578,1.578,0,0,1-1.081-2.175,12.125,12.125,0,0,1,.4-1.224c.409-1.166.816-2.333,1.237-3.5a31.058,31.058,0,0,0,1.821-9.951c.076-3.335.211-6.669.093-10.006a16.616,16.616,0,0,1,.652-5.424,11.111,11.111,0,0,1,2.42-4.508c.341.268.649.483.923.735m12.223-81.375c-.059,3.927-.348,7.842-.632,11.758q-.588,8.127-.646,16.278c-.007.913.072,1.826.1,2.739.021.771-.26,1.011-.965.769a21.021,21.021,0,0,0-4.04-1.073c-1.438-.19-2.875-.4-4.319-.527-1.767-.16-3.54-.253-5.311-.37-.121-.008-.242-.017-.362-.03a3.711,3.711,0,0,1-.709-.133,2.43,2.43,0,0,1-.341-.132c-1.555.066-3.108.021-4.66-.053-.517-.025-1.035-.053-1.552-.081-.85-.046-1.7-.14-2.545-.219a1.37,1.37,0,0,1-.9-.242q-5.889-.04-11.777-.084a8.677,8.677,0,0,1-1.127-.059c-.878-.122-1.126-.5-.892-1.32a7.4,7.4,0,0,1,.269-.76,67.768,67.768,0,0,1,9.276-16.535A44.32,44.32,0,0,1,866.011,25.49a17.361,17.361,0,0,1,8.694-1.135,12.827,12.827,0,0,1,1.578.313c.926.255,1.175.52,1.213,1.449.052,1.289.05,2.582.031,3.872" transform="translate(-552.368 -14.809)" fill="#fff"/>
    <path id="Path_6351" data-name="Path 6351" d="M1054.28,222.849c.232-.332.454-.669.671-1.009-.217.34-.439.677-.671,1.009" transform="translate(-699.19 -147.123)" fill="#fff"/>
    <path id="Path_6352" data-name="Path 6352" d="M1058.978,214.071q-.428.826-.9,1.626.471-.8.9-1.626" transform="translate(-701.71 -141.97)" fill="#fff"/>
    <path id="Path_6353" data-name="Path 6353" d="M1053.446,226l0,0Z" transform="translate(-698.637 -149.877)" fill="#fff"/>
    <path id="Path_6354" data-name="Path 6354" d="M1074.47,146.913q.011-1.246-.087-2.5.1,1.257.087,2.5" transform="translate(-712.523 -95.772)" fill="#fff"/>
    <path id="Path_6355" data-name="Path 6355" d="M857.6,134.978c.208,0,.415.016.623.026-.208-.01-.416-.021-.623-.026" transform="translate(-568.754 -89.516)" fill="#fff"/>
    <path id="Path_6356" data-name="Path 6356" d="M878.309,135.744q-.708-.018-1.416-.039h0q.707.022,1.416.039" transform="translate(-581.549 -89.999)" fill="#fff"/>
    <path id="Path_6357" data-name="Path 6357" d="M854.471,134.972a4.846,4.846,0,0,0-1.571.176h0a4.844,4.844,0,0,1,1.571-.176" transform="translate(-565.637 -89.511)" fill="#fff"/>
    <path id="Path_6358" data-name="Path 6358" d="M968.944,74.69a4.484,4.484,0,0,0,.068.9,4.484,4.484,0,0,1-.068-.9" transform="translate(-642.596 -49.534)" fill="#fff"/>
    <path id="Path_6359" data-name="Path 6359" d="M982.085,29.877a14.352,14.352,0,0,0-3.478.056h0a14.35,14.35,0,0,1,3.478-.056" transform="translate(-649.005 -19.762)" fill="#fff"/>
    <path id="Path_6360" data-name="Path 6360" d="M960.554,227.932a3.773,3.773,0,0,0-1.359,1.559h0a3.769,3.769,0,0,1,1.358-1.559" transform="translate(-636.131 -151.163)" fill="#fff"/>
    <path id="Path_6361" data-name="Path 6361" d="M964.755,226.849c.119-.051.239-.1.364-.139-.125.04-.246.088-.364.139" transform="translate(-639.818 -150.352)" fill="#fff"/>
    <path id="Path_6362" data-name="Path 6362" d="M1012.915,37.1a6.089,6.089,0,0,0-.606-.208h0a6,6,0,0,1,.606.208" transform="translate(-671.356 -24.464)" fill="#fff"/>
    <path id="Path_6363" data-name="Path 6363" d="M1005.743,253.013h0a3.359,3.359,0,0,0,2.015-.093,3.359,3.359,0,0,1-2.015.093" transform="translate(-667.001 -167.735)" fill="#fff"/>
    <path id="Path_6364" data-name="Path 6364" d="M838.145,160.886a27.978,27.978,0,0,0,.256,4.492,27.978,27.978,0,0,1-.256-4.492" transform="translate(-555.846 -106.698)" fill="#fff"/>
    <path id="Path_6365" data-name="Path 6365" d="M854.062,209.252a4.427,4.427,0,0,1-.452.4,4.427,4.427,0,0,0,.452-.4" transform="translate(-566.108 -138.774)" fill="#fff"/>
    <path id="Path_6366" data-name="Path 6366" d="M473.228,183.843a2.276,2.276,0,0,1,1.409-2.261c2.823-1.657,5.607-3.384,8.408-5.077,1.794-1.084,3.524-2.264,5.2-3.517a8.644,8.644,0,0,0,1.435-1.285,3.413,3.413,0,0,0-.232-4.554,2.411,2.411,0,0,0-1.572-.728,8.962,8.962,0,0,0-2.4.172,23.829,23.829,0,0,0-6.868,2.681c-2.577,1.444-5.092,2.989-7.583,4.575-.589.375-1.179.748-1.775,1.11a7.233,7.233,0,0,1-4.592,1.179l-.405.594a2.62,2.62,0,0,0,1.051,1.176,6.9,6.9,0,0,1,2.72,6.809,4.269,4.269,0,0,0-.025,1.591.775.775,0,0,1-.2.747c-.316.018-.234-.279-.311-.432a1.3,1.3,0,0,1-.1-.468,20.494,20.494,0,0,0-1.192-4.829,11.44,11.44,0,0,0-1.217-2.445,6.384,6.384,0,0,0-1.978-2.063l-.474-.1c-.158-.033-.316-.066-.475-.093a3.983,3.983,0,0,0-4.614,2.355c-.073.142-.169.273-.273.44-.578-.031-1.165-.092-1.751-.089a2.2,2.2,0,0,0-2.368,1.763c-.128.391,0,.879-.477,1.193a3.625,3.625,0,0,0-3.229.96c-1.607,1.263-3.233,2.5-4.845,3.757a16.394,16.394,0,0,0-4.939,6.278q-2.483,5.51-4.625,11.163a12.141,12.141,0,0,0-.422,7.445c1.265,5,2.5,10.007,3.813,14.994,2.65,10.078,5.444,20.118,7.76,30.281,1.91,8.383,3.815,16.768,5.026,25.29a.861.861,0,0,1,.172,1.033q.048.453.1.906c.288.138.288.417.332.677.864,5.063,1.715,10.129,2.6,15.188a36.562,36.562,0,0,0,1.673,6.353,5.861,5.861,0,0,0,1.809-.017,46.524,46.524,0,0,1-1.885-7.337c-1.146-6.626-2.323-13.247-3.465-19.874-1.637-9.492-3.693-18.894-6.065-28.226-2.358-9.279-4.758-18.548-7.138-27.821-1.043-4.064-2.1-8.124-3.114-12.194a9.532,9.532,0,0,1,.452-6.168c1.55-3.667,3.064-7.349,4.624-11.011a11.156,11.156,0,0,1,4.291-5.494,4.579,4.579,0,0,0,.6-.541c1.529-1.368,3.28-2.442,4.9-3.692a1.451,1.451,0,0,1,1.8-.023c.227.144.448.3.662.459a51.641,51.641,0,0,1,5.153,4.4,37.47,37.47,0,0,1,5.67,7.016,4.092,4.092,0,0,1,.056,4.561c-1.165,2-2.275,4.03-3.393,6.056a28.289,28.289,0,0,1-2.086,3.262,7.162,7.162,0,0,1-.727.863,2.072,2.072,0,0,1-1.944.522,1.252,1.252,0,0,1-1.122-1.623c.224-1.216.483-2.426.731-3.638a23.208,23.208,0,0,0,.618-3.657,5.212,5.212,0,0,0-2.356-5,5.679,5.679,0,0,0-5.418-.3,1.478,1.478,0,0,0-.606.5.852.852,0,0,0,.052,1.052.643.643,0,0,0,.852.216,5.613,5.613,0,0,1,.9-.35c3.358-.808,4.963,1.392,4.8,3.726a12.453,12.453,0,0,1-.193,1.437c-.282,1.48-.544,2.965-.885,4.431a5.31,5.31,0,0,0,.165,3.476,2.3,2.3,0,0,1-.354,2.429,12.476,12.476,0,0,1-1.053,1.22c-.668.7-1.361,1.38-2.029,2.082a4.722,4.722,0,0,0-.589.76.69.69,0,0,0,.157.88.734.734,0,0,0,.882.18,1.359,1.359,0,0,0,.392-.273c.924-.9,1.849-1.8,2.757-2.724a5.768,5.768,0,0,0,1.368-1.981,1.56,1.56,0,0,1,1.563-1.138,4.144,4.144,0,0,0,2.748-1.2,6.6,6.6,0,0,0,1.2-1.512c.768-1.3,1.546-2.586,2.285-3.9a8.747,8.747,0,0,1,3.709-3.646c.22.218.144.5.107.739-.138.9-.3,1.8-.467,2.7a6.406,6.406,0,0,0-.114,2.086.68.68,0,0,0,.524.552.7.7,0,0,0,.852-.278,2.642,2.642,0,0,0,.3-.9c.266-1.591.549-3.182.749-4.783.18-1.44-.131-1.883-1.494-2.468-.674-.289-.71-.3-.582-1.047a5.149,5.149,0,0,0-.559-3.591,1.853,1.853,0,0,1,.217-2.232,32.932,32.932,0,0,0,4.142-7.824c.087-.237.119-.585.476-.529.229.036.206.33.274.518a4.148,4.148,0,0,1,.147.461,45.759,45.759,0,0,1,.964,16.194,50.021,50.021,0,0,1-3.028,12.02,36.537,36.537,0,0,0-1.563,4.917,12.954,12.954,0,0,0-.357,5.125c.313,1.811.332,3.64.546,5.456.416,3.527.764,7.063,1.163,10.592.1.906.217,1.81.336,2.714s.24,1.808.356,2.712c.2,1.471.409,2.942.6,4.415.048.366.055.737.08,1.105q1.168,7.476,2.336,14.952c.882,5.62,1.842,11.225,3.021,16.792q.95,4.487,1.759,9a11.116,11.116,0,0,1,.6,2.816c.424,1.887.862,3.772,1.269,5.662.418,1.942.8,3.891,1.205,5.838a2.058,2.058,0,0,0,1.066.152c.121-.005.242-.011.361-.012a.348.348,0,0,0,.375-.406,2.552,2.552,0,0,0-.081-.474c-.613-2.726-1.245-5.449-1.838-8.179q-2.206-10.166-4.079-20.4c-.852-4.654-1.634-9.321-2.4-13.99q-.964-5.89-1.807-11.8c-.52-3.674-.977-7.358-1.422-11.042q-.619-5.126-1.148-10.264a54.136,54.136,0,0,1-.462-8.212,17.212,17.212,0,0,1,1.485-6.235,22.44,22.44,0,0,0,1.44-4.087c.254-1.1.553-2.188.807-3.288a47.4,47.4,0,0,0,1.394-9.886,67.456,67.456,0,0,0-.944-11.567c-.158-.093-.243-.211-.128-.393q-.03-.268-.059-.537c-.307-.693.077-1.376.037-2.05m-7.349,5.467a19.1,19.1,0,0,1-.486,2.675,1.3,1.3,0,0,1-.21.431.7.7,0,0,1-1.2.071,26.9,26.9,0,0,0-3.216-3.592,36.729,36.729,0,0,0-4.98-4.57,1.638,1.638,0,0,1-.763-1.912.5.5,0,0,0,.014-.116,1.123,1.123,0,0,0-.008-.137c-.009-.076-.021-.153-.025-.228-.137-.4-.16-.64-.047-.776a.5.5,0,0,1,.354-.143,3.729,3.729,0,0,1,3.219.994,10,10,0,0,1,4.3,4.213,6.674,6.674,0,0,1,.944,3.531,4.488,4.488,0,0,0,.052.96.639.639,0,0,0,.627.614.853.853,0,0,0,.784-.468,1.014,1.014,0,0,0,.121-.459,8.188,8.188,0,0,0-.488-3.634,13.112,13.112,0,0,0-4.709-5.784c-.13-.09-.246-.2-.368-.3a3.676,3.676,0,0,1-.347-.159c-.03-.015-.062-.026-.091-.042a5.872,5.872,0,0,1-.843-.569c-.144-.113-.292-.236-.447-.367a7.6,7.6,0,0,0,2.235-1.087,1.7,1.7,0,0,1,2.1.014,9.339,9.339,0,0,1,2.57,4.181,17.3,17.3,0,0,1,.911,6.661m5.807-7.573c-.557.408-1.113.819-1.63,1.2a.823.823,0,0,1-.467-.7,14.013,14.013,0,0,0-1.175-3.666c-.337-.711-.272-1.014.313-1.367,3.953-2.381,7.722-5.069,11.88-7.108a22.79,22.79,0,0,1,5.119-1.9,6.325,6.325,0,0,1,1.919-.154,1.026,1.026,0,0,1,.936.76,2.055,2.055,0,0,1-.936,2.627c-2.527,1.627-5,3.34-7.55,4.932-2.823,1.762-5.72,3.407-8.41,5.377" transform="translate(-287.907 -110.357)" fill="#fff"/>
    <path id="Path_6367" data-name="Path 6367" d="M499.055,582.655h0a5.858,5.858,0,0,0,1.809-.017,5.858,5.858,0,0,1-1.809.017" transform="translate(-330.969 -386.401)" fill="#fff"/>
    <path id="Path_6368" data-name="Path 6368" d="M566.13,553.912c-.406-1.891-.845-3.775-1.269-5.662.424,1.887.862,3.771,1.269,5.662" transform="translate(-374.612 -363.595)" fill="#fff"/>
    <path id="Path_6369" data-name="Path 6369" d="M626.588,230.995c.125-.577.271-1.15.374-1.731.738-4.178,1.494-8.354,2.19-12.539.6-3.6,1.284-7.189,1.973-10.776a154.708,154.708,0,0,0,1.969-16.961c.264-3.32.583-6.637.873-9.955.173-1.98.378-3.959.5-5.942a19.883,19.883,0,0,0-.392-5.29,23.145,23.145,0,0,0-1.274-3.628,4.2,4.2,0,0,1-.408-1.488c-.041-.1-.087-.192-.13-.289a2.7,2.7,0,0,1-.115-.293,19.1,19.1,0,0,1-.438-3.16c-.441-3.173-.945-6.337-1.4-9.508-.282-1.954-.525-3.915-.785-5.873a1.277,1.277,0,0,1-.221-.3,3.368,3.368,0,0,1-.275-1.036c-.123-.7.331-1.042,1.095-.878a2.156,2.156,0,0,1,.436.2c.107,0,.214-.009.322-.013a2.471,2.471,0,0,1,.32,0c1.285.116,2.567.278,3.853.358,3.279.206,6.563.071,9.844.124,1.613.026,3.225.111,4.835.213.811.051,1.047.328,1.1,1.1.019.268.007.538.009.807q.024,3.713.047,7.426a3.238,3.238,0,0,0,.135,1.272,1.01,1.01,0,0,0,1.147.672c.417-.083.636-.4.613-.987-.05-1.343-.142-2.685-.179-4.029-.05-1.774.006-3.554-.106-5.324-.437-6.937,1.244-13.443,3.93-19.751a8.786,8.786,0,0,1,1.741-2.7c1.168-1.21,1.862-1.076,2.421.489a9.74,9.74,0,0,1,.308,6.177,12.769,12.769,0,0,0-.509,4.467,29.067,29.067,0,0,0,1.26,6.315,2.448,2.448,0,0,0,.454.837,1.017,1.017,0,0,0,1.327.091.821.821,0,0,0,.287-1c-.127-.353-.314-.684-.459-1.031a14,14,0,0,1-1.15-5.487,21.745,21.745,0,0,1,.537-4.474,11.2,11.2,0,0,0-.742-7.1c-.917-2.025-2.8-2.405-4.456-.9-.592.538-1.052,1.22-1.594,1.815-.238.262-.249.735-.751.8a2.26,2.26,0,0,1,.033-1.248c.09-.419.222-.829.29-1.251.879-5.415,1.73-10.834,2.64-16.243.044-.263.08-.528.116-.794s.072-.532.118-.8a5.91,5.91,0,0,1,.453-1.547c-.008-.134-.026-.269-.038-.4-.006-.067-.01-.134-.011-.2a1.481,1.481,0,0,1,.01-.2c.226-1.76.473-3.517.709-5.275.5-3.73,1.017-7.458,1.491-11.191a58.552,58.552,0,0,1,1.643-8.868c.951-3.3,1.943-6.6,2.94-9.886a4.183,4.183,0,0,0,.3-1.569c-.044-.542-.2-.767-.749-.885-.735-.158-1.484-.253-2.219-.413-3.411-.745-6.822-1.488-10.226-2.263a68.763,68.763,0,0,0-10-1.726,63.393,63.393,0,0,1-9.387-1.474,78.4,78.4,0,0,0-11.924-1.913,50.823,50.823,0,0,1-8.627-1.126,2.853,2.853,0,0,0-.957-.029c-.485.05-.693.432-.517.957a2.416,2.416,0,0,0,.35.529,50.589,50.589,0,0,0,7.643,1.121,94.66,94.66,0,0,1,14.04,2.01q4.244.943,8.525,1.719a28.43,28.43,0,0,0,3.534.333,40.91,40.91,0,0,1,10.576,2.041,16.9,16.9,0,0,0,6.112,1.271,7.193,7.193,0,0,1,1.869.386,1.153,1.153,0,0,1-.079.944c-.983,3.181-1.874,6.391-3.1,9.493a5.712,5.712,0,0,0-.356,1.878c-.06,1.339-.253,2.675-.445,4-.693,4.79-1.445,9.573-2.108,14.367-1.12,8.1-2.569,16.144-3.888,24.209q-1.3,7.961-2.558,15.93c-.277,1.753-.487,3.516-.73,5.274a5.459,5.459,0,0,1-.131.793,1.136,1.136,0,0,1-1.17.915,10.869,10.869,0,0,1-1.451-.053,72.3,72.3,0,0,0-9.671-.233,46.559,46.559,0,0,1-8.985-.8c-3.877-.643-7.664-1.671-11.48-2.569-1.63-.383-3.286-.561-4.936-.785a6.173,6.173,0,0,1-4.083-2.034c-.433-.505-.654-.523-1.211-.055a1.36,1.36,0,0,1-1.332.291c-1.3-.325-2.615-.617-3.914-.956a31.729,31.729,0,0,0-4.591-.865c-.829-.089-.97-.293-.9-1.164a67.551,67.551,0,0,1,1.625-9.7c1.932-8.436,3.89-16.867,5.591-25.354.909-4.535,1.678-9.1,2.385-13.667,1.059-6.855,2.026-13.727,3.522-20.506.452-2.047.948-4.084,1.471-6.114a2.317,2.317,0,0,0-.078-1.719c-.611-.2-.99-.23-1.255-.027a1.285,1.285,0,0,0-.382.626,10.925,10.925,0,0,0-.4,1.56q-.5,2.7-.971,5.4c-.8,4.609-1.587,9.22-2.4,13.827q-1.545,8.817-3.119,17.63c-.764,4.232-1.485,8.472-2.452,12.665q-1.921,8.327-3.829,16.658a59.317,59.317,0,0,0-1.357,8.6,6.863,6.863,0,0,0,.028,1.606,1.382,1.382,0,0,0,1.432,1.281,21.355,21.355,0,0,1,5.537.99c6.075,1.63,12.246,2.839,18.383,4.2,1.888.419,3.767.878,5.657,1.291a1.665,1.665,0,0,1,1.411,1.538c.038.266.055.536.093.8.277,1.916.566,3.83.835,5.747.41,2.928.984,5.83,1.173,8.793a20.414,20.414,0,0,0,1.813,7.644,13.763,13.763,0,0,1,1.078,4.2,41.069,41.069,0,0,1-.221,9.5c-.24,2.409-.617,4.807-.759,7.22-.174,2.954-.333,5.907-.629,8.853-.441,4.391-1.1,8.751-1.88,13.091q-1.191,6.587-2.411,13.168a59.219,59.219,0,0,1-2.14,9.379,1.8,1.8,0,0,0,.5.351,2.866,2.866,0,0,0,1.623.1" transform="translate(-394.62 -34.741)" fill="#fff"/>
    <path id="Path_6370" data-name="Path 6370" d="M683.906,582.378a2.865,2.865,0,0,0,1.623.1,2.865,2.865,0,0,1-1.623-.1" transform="translate(-453.561 -386.229)" fill="#fff"/>
    <path id="Path_6371" data-name="Path 6371" d="M784.126,192.456c-.008-.134-.026-.269-.038-.4C784.1,192.187,784.118,192.322,784.126,192.456Z" transform="translate(-520.001 -127.368)" fill="#fff"/>
    <path id="Path_6372" data-name="Path 6372" d="M640.634,57.763h0c-.611-.2-.99-.23-1.255-.027.265-.2.644-.175,1.255.027" transform="translate(-424.031 -38.198)" fill="#fff"/>
    <path id="Path_6373" data-name="Path 6373" d="M784.065,191.659c-.006-.067-.01-.134-.011-.2,0,.067.005.134.011.2" transform="translate(-519.979 -126.973)" fill="#fff"/>
    <path id="Path_6374" data-name="Path 6374" d="M701.445,317.077a2.479,2.479,0,0,1,.32,0,2.479,2.479,0,0,0-.32,0" transform="translate(-465.193 -210.281)" fill="#fff"/>
    <path id="Path_6375" data-name="Path 6375" d="M783.307,193.25a5.923,5.923,0,0,0-.453,1.547A5.923,5.923,0,0,1,783.307,193.25Z" transform="translate(-519.183 -128.162)" fill="#fff"/>
    <path id="Path_6376" data-name="Path 6376" d="M705.688,379.3h0c-.041-.1-.087-.192-.13-.289.043.1.089.192.13.289" transform="translate(-467.921 -251.36)" fill="#fff"/>
    <path id="Path_6377" data-name="Path 6377" d="M782.622,197.843c-.046.264-.082.531-.118.8.036-.266.072-.532.118-.8" transform="translate(-518.951 -131.208)" fill="#fff"/>
    <path id="Path_6378" data-name="Path 6378" d="M784.2,193.25Z" transform="translate(-520.075 -128.162)" fill="#fff"/>
    <path id="Path_6379" data-name="Path 6379" d="M102.622,137.84a205.124,205.124,0,0,1-5.574-20.367c-1.295-5.716-2.535-11.444-3.872-17.15-1.24-5.29-2.365-10.6-3.3-15.952-.744-4.236-1.478-8.478-2.5-12.66C85.883,65.59,84.8,59.4,83.9,53.164c-.176-1.222-.383-2.44-.562-3.661-.125-.851-.222-1.706-.344-2.557a17.819,17.819,0,0,1-.168-6.419c.046-.21.063-.426.092-.64a.953.953,0,0,0-.184-.76c-.011-.01-.026-.017-.037-.027a.748.748,0,0,0-.472-.151,1.953,1.953,0,0,0-.249.009,9.6,9.6,0,0,0-.948.181c-6.38,1.276-12.7,2.8-18.992,4.457C52,46.232,41.987,48.916,31.965,51.581a9.1,9.1,0,0,0-1.075.343.807.807,0,0,0-.51.9.786.786,0,0,0,.914.712,8.049,8.049,0,0,0,1.268-.2c1.206-.27,2.4-.59,3.612-.832a106.539,106.539,0,0,0,12.075-3.46c2.2-.717,4.386-1.46,6.636-1.992q10.435-2.463,20.878-4.89c1.36-.319,2.715-.66,4.074-.987.735-.176.975,0,1.037.763.009.107.007.215.008.323a82.312,82.312,0,0,0,1.775,14.4q1.34,7.053,2.736,14.1c1.327,6.754,2.587,13.522,4.022,20.254,1.929,9.044,3.97,18.065,6.016,27.084,1.558,6.869,3.334,13.683,5.476,20.4a13.861,13.861,0,0,0,.484,1.364.831.831,0,0,0,.925.491.866.866,0,0,0,.7-.948,9.367,9.367,0,0,0-.394-1.556" transform="translate(-20.139 -25.831)" fill="#fff"/>
    <path id="Path_6380" data-name="Path 6380" d="M186.026,40.238c-.03.214-.046.43-.092.639.046-.209.062-.426.092-.639a.954.954,0,0,0-.185-.76.954.954,0,0,1,.184.76" transform="translate(-123.249 -26.182)" fill="#fff"/>
    <path id="Path_6381" data-name="Path 6381" d="M184.331,38.951a.75.75,0,0,1,.472.151.75.75,0,0,0-.472-.151" transform="translate(-122.247 -25.832)" fill="#fff"/>
    <path id="Path_6382" data-name="Path 6382" d="M781.945,216.573a17.492,17.492,0,0,0-.163-5.612c-1.289-5.444-2.713-10.85-4.43-16.175a75.638,75.638,0,0,0-3.862-10.425,5.956,5.956,0,0,1-.663-3.284,2.488,2.488,0,0,0,.006-.483.69.69,0,0,0-.419-.633.9.9,0,0,0-1.015.283,1.66,1.66,0,0,0-.307.9,4.938,4.938,0,0,0,.172,1.6c.1.389.2.781.29,1.173s.181.785.274,1.177a.467.467,0,0,1,.246.541c-.092.3-.261.583-.381.879-.311.769-.217,1.1.592,1.334a2.817,2.817,0,0,1,2.02,2.286c.038.157.078.313.115.471.864,3.667,1.94,7.274,3.064,10.869.722,2.31,1.453,4.619,2.1,6.951a19.792,19.792,0,0,1,.5,9.424c-.274,1.315-.626,2.615-.944,3.921-1.563,6.428-3.095,12.863-4.809,19.254a33.067,33.067,0,0,1-5.97,12.417c-.437.545-.833,1.125-1.224,1.7a2.437,2.437,0,0,0-.325.726.714.714,0,0,0,.35.827.806.806,0,0,0,.914.005,2.522,2.522,0,0,0,.538-.59c.257-.342.485-.7.746-1.044a.315.315,0,0,1,.282-.053.3.3,0,0,1,.177.212,7.081,7.081,0,0,1-.018.8c-.241,4.03-.461,8.061-.735,12.089-.175,2.577-.381,5.155-.66,7.723-.638,5.888-1.676,11.716-2.683,17.549q-.96,5.566-1.793,11.154c-.444,2.98-.8,5.973-1.182,8.962a6.253,6.253,0,0,0-.068,2.088c.376,0,.752.021,1.127,0a.438.438,0,0,0,.439-.391c.115-.744.242-1.486.336-2.232.466-3.682.845-7.376,1.4-11.044.815-5.368,1.758-10.717,2.64-16.075.4-2.44.868-4.872,1.163-7.325.4-3.31.663-6.637.978-9.957.041-.427.032-.859.058-1.288.049-.8.1-1.608.162-2.411.04-.536.111-1.07.145-1.606.123-1.933.226-3.866.363-5.8a9.636,9.636,0,0,1,.255-1.26,5.931,5.931,0,0,1,.172-2.854c.4-1.785,1.059-3.493,1.637-5.224,1.173-3.515,2.558-6.966,3.438-10.569,1.541-6.31,3.207-12.592,4.47-18.968a12.158,12.158,0,0,1,.373-1.222h0c.036-.266.083-.53.106-.8" transform="translate(-505.759 -119.31)" fill="#fff"/>
    <path id="Path_6383" data-name="Path 6383" d="M819.7,289.577h0c.036-.266.084-.531.106-.8-.023.267-.07.532-.106.8" transform="translate(-543.617 -191.516)" fill="#fff"/>
    <path id="Path_6384" data-name="Path 6384" d="M789.435,193c-.093-.392-.182-.785-.274-1.177C789.253,192.211,789.342,192.6,789.435,193Z" transform="translate(-523.365 -127.213)" fill="#fff"/>
    <path id="Path_6385" data-name="Path 6385" d="M273.878,444.527c-.133-7.052-.286-14.1-.23-21.157.03-3.876.087-7.752.1-11.627q.044-10.662.053-21.323c0-.592-.021-1.184-.031-1.776l-.148-8.718a6.463,6.463,0,0,1-.384-2,.739.739,0,0,0-.386-.646,1.946,1.946,0,0,0-.607-.055,1.327,1.327,0,0,0-.488.957,5.21,5.21,0,0,0-.012.663c.034,1.506.086,3.013.073,4.518-.011,1.235-.151,2.468-.156,3.7-.01,2.474.16,4.945.238,7.417.182,5.754.3,11.51.139,17.272q-.234,8.553-.192,17.113c.024,5.379.213,10.759.335,16.137.009.4,0,.692.008.908a1.3,1.3,0,0,0,.032.268.456.456,0,0,0,.036.1.3.3,0,0,0,.129.13,1.326,1.326,0,0,0,.585.077c.216,0,.49-.012.839-.023.023-.644.075-1.288.063-1.931" transform="translate(-180.166 -250.171)" fill="#fff"/>
    <path id="Path_6386" data-name="Path 6386" d="M275.561,582.81c.215,0,.489-.013.839-.023-.349.011-.623.022-.839.023" transform="translate(-182.75 -386.5)" fill="#fff"/>
    <path id="Path_6387" data-name="Path 6387" d="M272.438,377.222h0a1.327,1.327,0,0,0-.488.957,1.327,1.327,0,0,1,.488-.957" transform="translate(-180.355 -250.171)" fill="#fff"/>
    <path id="Path_6388" data-name="Path 6388" d="M92.576,65.025c-.524.107-1.041.257-1.557.4-1.34.379-2.683.749-4.015,1.152a25.206,25.206,0,0,1-3.5.493,81.544,81.544,0,0,0-8.64,1.915c-3.937,1.06-7.819,2.3-11.672,3.631a6,6,0,0,1-2.255.506c-.252-.025-.412-.055-.572-.054-.583.005-.873.219-.93.669a.815.815,0,0,0,.64.968,3.533,3.533,0,0,0,1.748.083,17.4,17.4,0,0,0,2.931-.862,113.633,113.633,0,0,1,21.315-5.5A30.62,30.62,0,0,0,92,66.973a10.553,10.553,0,0,0,1.048-.4.715.715,0,0,0,.355-.95c-.139-.435-.43-.673-.822-.593" transform="translate(-39.406 -43.114)" fill="#fff"/>
    <path id="Path_6389" data-name="Path 6389" d="M127.522,179.085a7.756,7.756,0,0,0-1.114.14,56.411,56.411,0,0,0-12.258,3.868c-4.544,1.941-8.929,4.223-13.416,6.284a3.7,3.7,0,0,0-.428.221.762.762,0,0,0-.417.938.9.9,0,0,0,.883.58,2.267,2.267,0,0,0,1.066-.316c1.742-.835,3.509-1.621,5.234-2.492,6.294-3.178,12.7-6.047,19.691-7.355a4.48,4.48,0,0,0,1.061-.366.715.715,0,0,0,.434-.713c-.037-.487-.333-.8-.736-.79" transform="translate(-66.213 -118.768)" fill="#fff"/>
    <path id="Path_6390" data-name="Path 6390" d="M142.724,192.515a1.077,1.077,0,0,0,.415-.33c.071-.677-.16-1.047-.557-1.143a5.3,5.3,0,0,0-2.07-.1,48.081,48.081,0,0,0-12.184,3.564,40.737,40.737,0,0,1-8.132,3.047,4.665,4.665,0,0,0-1.859.938.808.808,0,0,0-.317.987.925.925,0,0,0,1.037.577,5.312,5.312,0,0,0,.768-.243c1.607-.606,3.224-1.19,4.816-1.834,2.539-1.028,5.042-2.143,7.593-3.138a29.065,29.065,0,0,1,9.7-2.2,2.346,2.346,0,0,0,.788-.126" transform="translate(-78.229 -126.59)" fill="#fff"/>
    <path id="Path_6391" data-name="Path 6391" d="M72.26,128.2a6.377,6.377,0,0,1-.539-1.678c-.492-2.7-1.013-5.391-1.537-8.083a58.088,58.088,0,0,0-1.922-7.99,7.753,7.753,0,0,0-.328-.906.833.833,0,0,0-.946-.443.87.87,0,0,0-.647.825,4.485,4.485,0,0,0,.493,2.338,3.945,3.945,0,0,1,.431.851q.372,1.483.663,2.985,1.464,7.6,2.909,15.209a3.615,3.615,0,0,0,.225.768.9.9,0,0,0,1.068.511.844.844,0,0,0,.673-.8c.023-.321,0-.645,0-.968a3.9,3.9,0,0,0-.549-2.621" transform="translate(-43.995 -72.335)" fill="#fff"/>
    <path id="Path_6392" data-name="Path 6392" d="M91.418,137.419a1.143,1.143,0,0,0-.2-1.07A7.222,7.222,0,0,1,89.755,133c-.625-2.333-1.258-4.665-1.876-7a2.182,2.182,0,0,0-.435-1.022.766.766,0,0,0-1.2.234,4.353,4.353,0,0,0-.111.508,10.4,10.4,0,0,0,.155,1.081c.815,3.338,1.666,6.667,2.794,9.918a7.792,7.792,0,0,0,.417,1.044.907.907,0,0,0,1.066.517,1.057,1.057,0,0,0,.854-.857" transform="translate(-57.121 -82.751)" fill="#fff"/>
    <path id="Path_6393" data-name="Path 6393" d="M156.21,210.639a8.226,8.226,0,0,0-.843.1c-.679.157-1.361.307-2.026.512a37.681,37.681,0,0,0-7.115,2.952,2.958,2.958,0,0,0-1.144.863.729.729,0,0,0,.021.9.7.7,0,0,0,.826.336,7.331,7.331,0,0,0,1.017-.475,30.585,30.585,0,0,1,8.979-3.415,3.852,3.852,0,0,0,.912-.288.684.684,0,0,0,.35-.676.768.768,0,0,0-.4-.656,2.068,2.068,0,0,0-.574-.156" transform="translate(-96.121 -139.694)" fill="#fff"/>
    <path id="Path_6394" data-name="Path 6394" d="M105.493,138.8a.757.757,0,0,0,.97.322,1.053,1.053,0,0,0,.7-1.053,2.407,2.407,0,0,0-.043-.408q-.882-3.5-1.781-7.005a1.982,1.982,0,0,0-.352-.706.668.668,0,0,0-.716-.245.719.719,0,0,0-.616.648,2.822,2.822,0,0,0,.033.8q.771,3.532,1.572,7.058a2.344,2.344,0,0,0,.238.589" transform="translate(-68.731 -86.002)" fill="#fff"/>
    <path id="Path_6395" data-name="Path 6395" d="M121.822,135.518a25.513,25.513,0,0,0,.877,2.9,2.152,2.152,0,0,0,1.1,1.313.911.911,0,0,0,1.284-.709,1.2,1.2,0,0,0-.177-.46,7.089,7.089,0,0,1-1.316-3.221c-.206-.879-.531-1.731-.806-2.594a1.906,1.906,0,0,0-.594-.934.892.892,0,0,0-1.046-.1.778.778,0,0,0-.327.965,2.73,2.73,0,0,0,.2.432,8.3,8.3,0,0,1,.8,2.414" transform="translate(-80.094 -87.264)" fill="#fff"/>
    <path id="Path_6396" data-name="Path 6396" d="M144.647,139.549a.8.8,0,0,0,1.028-.712,9.966,9.966,0,0,0-.186-1.421c-.146-.895-.288-1.79-.463-2.68a.764.764,0,0,0-.792-.65.841.841,0,0,0-.758.7c-.045.208-.068.42-.116.727.107.6.216,1.281.355,1.959.106.52.233,1.038.385,1.547a.728.728,0,0,0,.547.527" transform="translate(-95.075 -88.923)" fill="#fff"/>
    <path id="Path_6397" data-name="Path 6397" d="M625.4,130.015a1.4,1.4,0,0,0,.19.258,1.885,1.885,0,0,1,.381,1.362,46.41,46.41,0,0,1-1.476,11.648q-1.517,5.181-2.727,10.451c-1.127,4.925-2.122,9.881-3.151,14.828-.284,1.367-.489,2.751-.659,3.722-.039,2.2.587,2.979,2.365,3.253a20.785,20.785,0,0,0,2.249.178c1.022.045,2.046.023,3.066.089,1.127.074,2.252.19,3.372.334.972.125,1.177.37,1.276,1.319a3.77,3.77,0,0,0,.056.637.766.766,0,0,0,.673.6.78.78,0,0,0,.906-.5c.095-.3.106-.631.176-.943a.6.6,0,0,1,.709-.5,4.888,4.888,0,0,1,.64.075c2,.429,4,.842,5.985,1.308,1.1.257,2.175.6,3.256.919a1.057,1.057,0,0,1,.89,1.166c-.009.107-.012.215-.012.323a.554.554,0,0,0,.021.16.78.78,0,0,0,.65.626.7.7,0,0,0,.78-.405c.578-.963.59-.941,1.611-.672,1.039.275,2.082.53,3.128.779.663.158,1.24.343,1.189,1.227-.019.333.268.568.633.619a.774.774,0,0,0,.812-.4.664.664,0,0,0,.066-.147c.211-.657.671-.7,1.277-.609,2.128.328,4.216.843,6.315,1.3a2.244,2.244,0,0,0,2.9-1.623,4.041,4.041,0,0,0,.215-.774c.221-1.489.481-2.976.627-4.473.272-2.785.471-5.576.71-8.364.1-1.2.2-2.406,1.7-2.767.216-.052.279-.54.112-.712a5.859,5.859,0,0,0-.609-.516,1.718,1.718,0,0,1-.663-1.564,4.887,4.887,0,0,1,.147-1.117,21.641,21.641,0,0,0,.565-3.5c.075-.532.08-1.073.135-1.609a69.937,69.937,0,0,1,1.615-9.045c.659-2.765.9-5.636,2.058-8.277a.891.891,0,0,0,.035-.157,1.13,1.13,0,0,0-1.35-1.458,4.59,4.59,0,0,1-2.219-.064c-3-.615-6-1.24-9.016-1.787-4.019-.73-8.041-1.461-12.082-2.056a67.328,67.328,0,0,1-8.674-1.8c-2.841-.81-5.661-1.7-8.56-2.293a12.458,12.458,0,0,0-1.592-.247c-.731-.053-1.044.5-.7,1.183m19.574,40.25q-.442,2.946-.881,5.893a6.978,6.978,0,0,1-.142.79.6.6,0,0,1-.707.5,3.509,3.509,0,0,1-.631-.128,66.158,66.158,0,0,0-8.763-2.075c-.211-.038-.426-.061-.635-.11-.8-.189-1.057-.553-.927-1.394.18-1.167.364-2.335.609-3.49.489-2.31,1.019-4.611,1.534-6.915a5.557,5.557,0,0,1,.173-.618,1.054,1.054,0,0,1,1.071-.8c1.665.021,3.335-.028,4.994.085,1.5.1,2.985.355,4.469.588a.886.886,0,0,1,.814,1.145q-.49,3.265-.98,6.531m3.378-19.743c-.239,1.483-.525,2.958-.8,4.433s-.568,2.949-.85,4.424c-.04.211-.053.427-.1.636-.191.8-.448.99-1.245.877-.743-.1-1.484-.225-2.221-.367a23.954,23.954,0,0,0-4.332-.28c-.805,0-1.611.009-2.416,0-.882-.012-1.12-.271-.916-1.059q1.412-5.45,2.851-10.893a2.541,2.541,0,0,1,.1-.307.771.771,0,0,1,1.014-.537c1.252.3,2.5.61,3.749.908,1.46.347,2.925.673,4.383,1.031.747.184.911.394.792,1.135m1.64.419c.151-.755.48-.944,1.281-.811,1.428.236,2.856.478,4.281.739.779.143.924.348.851,1.181-.038.2-.095.519-.158.835q-.768,3.865-1.54,7.73c-.063.316-.134.631-.218.941-.19.707-.366.838-1.153.722q-2.229-.327-4.449-.713c-.672-.116-.88-.436-.743-1.15q.908-4.74,1.848-9.474m1.587,26.8c-.05.209-.066.427-.126.633-.272.935-.554,1.141-1.512,1.023a13.118,13.118,0,0,1-2.973-.716,1.7,1.7,0,0,1-1.2-1.727,7.969,7.969,0,0,1,.055-.966c.171-1.443.372-2.882.522-4.327a5.334,5.334,0,0,1,1.519-3.3.451.451,0,0,1,.569-.154.528.528,0,0,1,.293.528,9.379,9.379,0,0,1-.177,1.112c-.065.315-.191.619-.236.935-.109.775.048,1.041.762,1.4,1.3.649,1.338.831.454,1.984-.163.213-.359.4-.5.627a.749.749,0,0,0,.188,1,.692.692,0,0,0,1.014.033,6.19,6.19,0,0,0,.892-.925,2.958,2.958,0,0,0-.34-3.884,1.4,1.4,0,0,1-.4-1.473,3.424,3.424,0,0,0,.014-1.44,1.83,1.83,0,0,0-1.294-1.5c-.2-.066-.411-.121-.617-.177-.352-.1-.817.1-1.052-.247-.255-.374-.06-.833-.017-1.252a3.113,3.113,0,0,1,.161-.623c.22-.681.438-.838,1.171-.862.107,0,.215,0,.66,0,.786.133,1.909.272,3.008.522s1.424.732,1.282,1.87c-.159,1.281-.367,2.556-.585,3.828-.464,2.7-.9,5.411-1.535,8.081m11.44-11.594q-.5,5.385-1,10.769a9.9,9.9,0,0,1-.48,2.365,5.749,5.749,0,0,0-.247,1.1c-.164,1.186-.159,1.2-1.238.941a54.653,54.653,0,0,0-5.847-1.18,4.886,4.886,0,0,1-.944-.205.555.555,0,0,1-.371-.637,3.291,3.291,0,0,1,.1-.47c.972-3.646,1.49-7.378,2.1-11.092.131-.8.245-1.6.408-2.385.15-.719.428-.924,1.126-.849q2.728.3,5.451.626c.714.087,1.016.424.939,1.021m1.409-12.622c-.072.8-.2,1.6-.292,2.4-.24,2.136-.471,4.272-.708,6.408a5.033,5.033,0,0,1-.112.634c-.115.473-.287.595-.8.579-.161,0-.321-.028-.482-.043l0,.017c-1.7-.225-3.41-.439-5.112-.679-.681-.1-.895-.426-.756-1.137q.894-4.586,1.811-9.167c.194-.962.418-1.129,1.285-.957,1.474.293,2.944.611,4.411.935.651.144.818.357.76,1.01m-4.182-14.561a5.915,5.915,0,0,1,.1-.635.8.8,0,0,1,.99-.59c.893.182,1.778.4,2.671.579.84.172,1.689.3,2.526.486.822.181.942.4.787,1.249-.019.105-.05.208-.073.313q-.959,4.317-1.917,8.634c-.388,1.757-.772,2.013-2.573,1.651-1.1-.222-2.207-.449-3.3-.7-.724-.168-.855-.383-.813-1.177.232-1.444.467-2.927.709-4.409q.442-2.7.892-5.4m-5.293-2.67a3.886,3.886,0,0,1,1.245.293,5.986,5.986,0,0,0,1.859.476c.582.03.747.294.716.585-.451,2.838-.863,5.431-1.276,8.024-.143.9-.268,1.8-.444,2.7-.16.816-.47,1.066-1.214.884-1.409-.343-2.835-.561-4.266-.775-.727-.109-.924-.412-.776-1.109.7-3.3,1.366-6.612,2.38-9.836a1.485,1.485,0,0,1,1.777-1.239m-13.339-1.283a.579.579,0,0,1,.7-.494,44.371,44.371,0,0,0,7.51.919,8.934,8.934,0,0,1,1.573.325.6.6,0,0,1,.409.577,2.667,2.667,0,0,1-.071.367,85.133,85.133,0,0,0-2.45,9.678c-.437,1.885-.391,1.733-2.079,1.3-2.183-.564-4.374-1.1-6.56-1.646-.312-.078-.62-.174-.929-.265a.608.608,0,0,1-.472-.73c.055-.37.155-.734.247-1.1.631-2.5,1.4-4.964,1.872-7.5.089-.475.149-.956.247-1.428m-14.891,7.028c.32-1.192.689-2.371,1.047-3.553.342-1.13.709-2.253,1.037-3.387.241-.833.155-.995-.593-1.4-.839-.458-.84-.459-.7-1.363q.036-.239.079-.477c.128-.7.272-.831.916-.81a14.155,14.155,0,0,1,3.33.57c2.431.668,4.846,1.4,7.264,2.113.758.225.882.4.783,1.15a19.734,19.734,0,0,1-.4,2.218c-.613,2.447-1.25,4.888-1.892,7.328-.191.723-.41.871-1.16.731-2.006-.374-4.005-.78-6.008-1.171-.948-.185-1.9-.349-2.846-.551-.847-.182-1.079-.54-.849-1.394m.515,3a5.42,5.42,0,0,1,.8.1q3.793.766,7.583,1.542c.158.032.321.045.474.091a.773.773,0,0,1,.582.993,6.27,6.27,0,0,1-.144.628q-1.3,4.993-2.6,9.984c-.068.26-.121.525-.2.78a1.256,1.256,0,0,1-1.388,1.079c-.591.023-1.184,0-1.836,0a40.232,40.232,0,0,1-5.231-.568,6.8,6.8,0,0,0-1.279-.147.647.647,0,0,0-.667.58.747.747,0,0,0,.278.856,2.36,2.36,0,0,0,.736.29,27.168,27.168,0,0,0,4.632.618c.968.037,1.937.053,2.9.093,1.018.041,1.078.116.849,1.152-.441,1.995-.923,3.98-1.336,5.98-.316,1.526-.549,3.069-.826,4.6-.136.755-.293.905-1.089.809a42.974,42.974,0,0,0-4.98-.436c-.914,0-1.828-.01-2.742-.013-.269,0-.54.028-.806.006-1.022-.083-1.484-.577-1.34-1.592.2-1.383.452-2.759.741-4.126q1.718-8.125,3.474-16.242a2.27,2.27,0,0,1,1.126-1.819,1.679,1.679,0,0,0,.815-1.333c.075-.531.127-1.066.181-1.6.049-.481.045-.971.14-1.442a.973.973,0,0,1,1.153-.871" transform="translate(-409.824 -85.438)" fill="#fff"/>
    <path id="Path_6398" data-name="Path 6398" d="M649.779,85a9.216,9.216,0,0,0,2.546.387,19.8,19.8,0,0,1,6.469,1.189c2.691.926,5.383,1.85,8.082,2.751a36.724,36.724,0,0,0,7.835,1.81,27.524,27.524,0,0,1,6.6,1.439,54.214,54.214,0,0,0,6.8,1.97c.68.15,1.377.225,1.781.29,1.473-.021,2.057-.392,2.549-1.481a10.959,10.959,0,0,0,.364-1.065c.44-1.325.806-2.681,1.333-3.971,1.052-2.571,1.294-5.317,1.818-8,.262-1.342-.226-1.851-1.612-2.033a3.023,3.023,0,0,0-.322-.02,16.983,16.983,0,0,1-6.24-1.472,53.7,53.7,0,0,0-13.22-3.44c-3.032-.441-6.073-.829-9.111-1.227a76.045,76.045,0,0,0-8.5-.868,15.575,15.575,0,0,1-5.081-.78,2.737,2.737,0,0,0-.955-.1c-.793.011-1.024.221-1.1,1.061a72.487,72.487,0,0,1-1.041,7.18c-.228,1.214-.549,2.412-.765,3.627-.272,1.534.256,2.319,1.764,2.753M690.2,81.271c.309.059.36.473.1,1.1-.14.341-.323.663-.487.994a.571.571,0,0,1,0,.13.254.254,0,0,1-.118.191.368.368,0,0,1-.13.045l-.009.014a2.6,2.6,0,0,1-.752,1.525.665.665,0,0,1-.969.17.813.813,0,0,1,.028-1.241,3.044,3.044,0,0,1,.272-.149c.28-.136.58-.242.866-.368.032-.313.056-.627.1-.938a3.169,3.169,0,0,1,.155-.766,1.016,1.016,0,0,1,.941-.7m-40.305.013a63.94,63.94,0,0,0,1.177-6.507,13.474,13.474,0,0,1,.366-1.734.905.905,0,0,1,1.129-.667,5.941,5.941,0,0,1,.921.279,6.429,6.429,0,0,0,2.539.385c3.8-.262,7.508.436,11.224,1.06,1.379.231,2.76.441,4.249.678a6.313,6.313,0,0,0-.556,1.386,25.363,25.363,0,0,1-1.312,4.652c-.264.762-.5,1.534-.721,2.31a2.831,2.831,0,0,0-.067,1.438.914.914,0,0,0,.767.721.743.743,0,0,0,.78-.668,29.573,29.573,0,0,1,1.534-5.422c.275-.87.451-1.771.657-2.661a1.53,1.53,0,0,0-.53-1.788,9.574,9.574,0,0,1,1.464.01,58.4,58.4,0,0,1,11.4,2.845c1.3.509,2.656.862,3.985,1.293a4.327,4.327,0,0,1,.585.263.3.3,0,0,1,0,.515c-1.613.8-2.292,2.387-3.136,3.8a2.363,2.363,0,0,0,.614,3.3c1.07.72,2.24.484,3.243-.769a6.937,6.937,0,0,0,1.657-5.241,3.671,3.671,0,0,1-.064-.64.306.306,0,0,1,.292-.315,3.933,3.933,0,0,1,.8.018c.444.087,1.119-.184,1.258.434a1.821,1.821,0,0,1-.558,2.044c-.13.1-.277.166-.4.265a3.271,3.271,0,0,0-1.1,4.287,2.4,2.4,0,0,1,.079,1.991c-.423,1.16-.721,2.365-1.109,3.539a1.007,1.007,0,0,1-1.233.776,7.259,7.259,0,0,1-1.115-.183,62.048,62.048,0,0,1-6.513-1.839,30.472,30.472,0,0,0-6.908-1.576,45.12,45.12,0,0,1-9.08-2.175c-2.8-.944-5.546-2.047-8.405-2.817a23.28,23.28,0,0,0-6.048-.886c-2.1,0-2.4-.388-1.87-2.4" transform="translate(-429.713 -46.671)" fill="#fff"/>
    <path id="Path_6399" data-name="Path 6399" d="M649.025,196.211c.378-.184.848-.352.829-.874s-.45-.671-.905-.72a.689.689,0,0,1-.159-.023c-.463-.166-.6-.38-.46-.862.233-.825.523-1.635.741-2.464.2-.775.348-1.566.518-2.35a1.388,1.388,0,0,0-.772-1.338,1.209,1.209,0,0,0-1.532.518,13.045,13.045,0,0,0-2.3,4.031,4.465,4.465,0,0,0-.264,1.252,2.964,2.964,0,0,0,4.3,2.831" transform="translate(-427.574 -124.33)" fill="#fff"/>
    <path id="Path_6400" data-name="Path 6400" d="M636.318,238.723a.637.637,0,0,0,.736-.154,1.625,1.625,0,0,0,.4-.676c.47-1.871.914-3.749,1.363-5.626a3.531,3.531,0,0,0,.057-.405c.016-.63-.211-.981-.626-1.045a.887.887,0,0,0-1,.625,2.055,2.055,0,0,0-.09.309c-.447,1.877-.9,3.753-1.331,5.632a2.42,2.42,0,0,0-.038.792c.031.293.261.441.525.548" transform="translate(-421.642 -153.069)" fill="#fff"/>
    <path id="Path_6401" data-name="Path 6401" d="M680.088,245.092c-.363-.089-.75.114-1.259-.195.162-.437.321-.83.451-1.231a3.908,3.908,0,0,0,.044-2.37,1.473,1.473,0,0,0-1.742-1.073,1.524,1.524,0,0,0-1.44,1.28c-.166.744.078,1.038.889,1.089.237.015.531-.133.677.181a1.151,1.151,0,0,1-.053.329q-.365.712-.754,1.412a2.783,2.783,0,0,0-.446,1.189.95.95,0,0,0,.454.956,3.909,3.909,0,0,0,3.528-.205.754.754,0,0,0,.229-.868.735.735,0,0,0-.579-.493" transform="translate(-448.38 -159.307)" fill="#fff"/>
    <path id="Path_6402" data-name="Path 6402" d="M656.953,148.373c.521.1,1.04.2,1.588.309a14.794,14.794,0,0,1-1.033,2.574c-.228.6-.49,1.191-.663,1.806a1,1,0,0,0,.528,1.225.623.623,0,0,0,1-.38,10.575,10.575,0,0,1,1.2-3.133,6.516,6.516,0,0,0,.667-2.137,1.366,1.366,0,0,0-1.279-1.693,7.7,7.7,0,0,1-2.346-.478.625.625,0,0,0-.838.26.792.792,0,0,0,.072,1.026,1.909,1.909,0,0,0,1.1.62" transform="translate(-434.808 -97.087)" fill="#fff"/>
    <path id="Path_6403" data-name="Path 6403" d="M733.037,251.667a.716.716,0,0,0-.826.363.859.859,0,0,0-.139.9,1.593,1.593,0,0,0,.264.4.733.733,0,0,1,.035,1.125,3.405,3.405,0,0,0-.575.954,1.369,1.369,0,0,0,1.389,1.834c.536-.026.977-.471.809-.953a5.084,5.084,0,0,1-.138-2.136c.209.023.315.028.418.049.157.031.31.088.468.108a.819.819,0,0,0,.656-1.35,5.77,5.77,0,0,0-2.36-1.295" transform="translate(-485.264 -166.88)" fill="#fff"/>
    <path id="Path_6404" data-name="Path 6404" d="M682.688,196.023c-.637-.079-1.279-.145-1.92-.164a.744.744,0,0,0-.548.266,4.723,4.723,0,0,0-1,2.173,3.087,3.087,0,0,0,.846,2.351,2.587,2.587,0,0,1,.827,1.678.7.7,0,0,0,.68.748.9.9,0,0,0,.92-.516,1.815,1.815,0,0,0-.251-2.1c-.354-.47-.768-.895-1.12-1.365a.545.545,0,0,1,.209-.921c.519-.272,1.08-.467,1.587-.757a.723.723,0,0,0,.3-.851.647.647,0,0,0-.527-.541" transform="translate(-450.454 -129.892)" fill="#fff"/>
    <path id="Path_6405" data-name="Path 6405" d="M691.9,162.722a3.771,3.771,0,0,0,1.5-2.028,12.37,12.37,0,0,1,.766-2.111,2.467,2.467,0,0,0,.183-1.982c-.145-.559-.338-.733-.87-.747a1.738,1.738,0,0,0-2.049,1.887,3.711,3.711,0,0,1-.782,2.229,7.565,7.565,0,0,0-.728,1.058,1.293,1.293,0,0,0,.358,1.6,1.209,1.209,0,0,0,1.617.092" transform="translate(-457.458 -103.361)" fill="#fff"/>
    <path id="Path_6406" data-name="Path 6406" d="M749.774,170.571c.254.076.52.111.84.176a9.54,9.54,0,0,0,2.114-.615.852.852,0,0,0,.412-1.093.685.685,0,0,0-.919-.416,4.632,4.632,0,0,1-1.892.312,1.633,1.633,0,0,0-.473.074.789.789,0,0,0-.606.839.711.711,0,0,0,.525.723" transform="translate(-496.896 -111.794)" fill="#fff"/>
    <path id="Path_6407" data-name="Path 6407" d="M743.643,204.709a4.489,4.489,0,0,0-.481-.008c-.16,0-.321,0-.479-.023a.415.415,0,0,1-.262-.613c.253-.562.836-.824,1.162-1.313a.7.7,0,0,0-.071-.894.716.716,0,0,0-.726-.232,2.4,2.4,0,0,0-1.284.913,5.346,5.346,0,0,0-1.286,3.4,4.017,4.017,0,0,0,.155,1.742.737.737,0,0,0,.745.5.658.658,0,0,0,.645-.6c.068-.356-.049-.766.32-1.028a2.1,2.1,0,0,1,1.083-.233c.16-.016.322-.014.479-.045a.76.76,0,0,0,.646-.793.709.709,0,0,0-.646-.775" transform="translate(-490.894 -133.703)" fill="#fff"/>
    <path id="Path_6408" data-name="Path 6408" d="M724.987,166.932a6.924,6.924,0,0,0-.365.893c-.171.505-.321,1.018-.4,1.275-.046.679.092.929.406,1.043a.729.729,0,0,0,.945-.36c.4-.879.789-1.762,1.142-2.66.441-1.124.619-2.2-.721-2.906-.237-.125-.118-.492.179-.6.2-.073.421-.1.616-.182.447-.192.637-.485.586-.85a1.041,1.041,0,0,0-.923-.954,1.6,1.6,0,0,0-1.2.342,2.821,2.821,0,0,0-1.062,1.744,1.933,1.933,0,0,0,.6,1.9,1.029,1.029,0,0,1,.2,1.322" transform="translate(-480.245 -107.186)" fill="#fff"/>
    <path id="Path_6409" data-name="Path 6409" d="M714.967,204.957a2.687,2.687,0,0,0,.636-.182,2.455,2.455,0,0,0,.754-3.587,2.3,2.3,0,0,1-.489-2.646c.189-.5.386-1,.534-1.514a.667.667,0,0,0-.37-.805.8.8,0,0,0-1.02.173,3.028,3.028,0,0,0-.406.689,18.846,18.846,0,0,0-1.216,5.639,4.631,4.631,0,0,0,.1,1.12,1.29,1.29,0,0,0,1.477,1.112" transform="translate(-473.11 -130.063)" fill="#fff"/>
    <path id="Path_6410" data-name="Path 6410" d="M727.218,99.019a4.081,4.081,0,0,0,.9-.674,11.09,11.09,0,0,0,3.23-6.358,3.543,3.543,0,0,0-.128-1.6,1.83,1.83,0,0,0-2.306-1.206,3.921,3.921,0,0,0-1.923,1.408,12.314,12.314,0,0,0-2.43,5.389,8.017,8.017,0,0,0-.074.8,2.718,2.718,0,0,0,.315,1.407,1.681,1.681,0,0,0,2.42.83m-1.084-2.556a8.5,8.5,0,0,1,.608-2.165,10.438,10.438,0,0,1,.453-1.031c.144-.278.178-.643.518-.783.363-.15.573.2.851.307.831.334.827.352.5,1.128a11.6,11.6,0,0,1-2.014,3.275.58.58,0,0,1-.563.232c-.3-.08-.364-.357-.353-.963" transform="translate(-480.466 -59.092)" fill="#fff"/>
    <path id="Path_6411" data-name="Path 6411" d="M746.364,102.038a1.642,1.642,0,0,0,1.824.041,3.967,3.967,0,0,0,1.709-1.871c.347-.785.72-1.559,1.1-2.327a4.361,4.361,0,0,0,.424-1.764,1.935,1.935,0,0,0-3.387-1.382,2.141,2.141,0,0,0-.451.46,18.694,18.694,0,0,0-2.036,5.218,1.509,1.509,0,0,0,.817,1.626m1.948-4.02a1.117,1.117,0,0,0,.52-.939.726.726,0,0,1,.166-.434.624.624,0,0,1,.4-.177.328.328,0,0,1,.338.43,5.886,5.886,0,0,1-2.379,3.816c-.026.017-.086-.018-.221-.051a3.229,3.229,0,0,1,1.175-2.646" transform="translate(-494.416 -62.378)" fill="#fff"/>
  </g>
</svg>
