<svg id="Group_1124" data-name="Group 1124" xmlns="http://www.w3.org/2000/svg" xmlns:xlink="http://www.w3.org/1999/xlink" width="20.236" height="21" viewBox="0 0 20.236 21">
  <defs>
    <clipPath id="clip-path">
      <rect id="Rectangle_1188" data-name="Rectangle 1188" width="20.236" height="21" fill="#fff"/>
    </clipPath>
  </defs>
  <g id="Group_1123" data-name="Group 1123" clip-path="url(#clip-path)">
    <path id="Path_65" data-name="Path 65" d="M1.114,47.059c.236,0,.461,0,.686,0a3.431,3.431,0,0,1,.62.014c.587.113.64.375.571.849a2.121,2.121,0,0,1-.232.582c-.065.133-.161.251-.237.379a.858.858,0,0,0,.1,1.1,1.111,1.111,0,0,0,1.1.391.754.754,0,0,0,.43-.243A4.546,4.546,0,0,0,5.3,47.7a1.881,1.881,0,0,1,1.238-1.609,1.4,1.4,0,0,1,1.83.8,1.277,1.277,0,0,1-.088,1.129,2.308,2.308,0,0,1-.4.554c-.241.247-.518.459-.766.7a3.541,3.541,0,0,0-.351.43.626.626,0,0,0-.085.188.43.43,0,0,0,.2.582c.235.159.481.3.713.466a1.857,1.857,0,0,1,.827,1.367,3.011,3.011,0,0,1-.3,1.665c-.094.189-.2.373-.3.555a1.974,1.974,0,0,1-.611.66c-.346.229-.7.448-1.054.662a1.825,1.825,0,0,1-.784.23.42.42,0,0,0,.056.053A8.837,8.837,0,0,0,9.06,57.389a8.863,8.863,0,0,0,5.723-1.222,8.892,8.892,0,0,0,4.175-5.687c.095-.384.145-.779.2-1.171a.543.543,0,0,1,.69-.515.522.522,0,0,1,.382.576,9.178,9.178,0,0,1-.34,1.755,10,10,0,0,1-4.652,6,9.826,9.826,0,0,1-3.7,1.268,9.939,9.939,0,0,1-7.632-2.053A9.888,9.888,0,0,1,.3,50.753,9.732,9.732,0,0,1,.039,47.5a10.057,10.057,0,0,1,2.415-5.764,9.723,9.723,0,0,1,4.83-3.091,9.93,9.93,0,0,1,1.595-.31.529.529,0,0,1,.568.435.516.516,0,0,1-.395.584c-.281.058-.567.092-.849.15a8.7,8.7,0,0,0-3.069,1.263,8.981,8.981,0,0,0-3.912,5.679c-.028.12-.049.243-.071.364-.015.082-.025.165-.037.248" transform="translate(0 -37.493)" fill="#fff"/>
    <path id="Path_66" data-name="Path 66" d="M448.887,5.25a6.191,6.191,0,0,1-.493,2.013,15.842,15.842,0,0,1-1.908,3.386c-.443.618-.908,1.221-1.382,1.817a1.4,1.4,0,0,1-2.2.039,23.2,23.2,0,0,1-2.733-3.982,9.564,9.564,0,0,1-.976-2.56,4.883,4.883,0,0,1,.677-3.654A4.586,4.586,0,0,1,442.487.252a4.681,4.681,0,0,1,5.094,1.367,5.123,5.123,0,0,1,1.306,3.63m-4.9-2.1a1.749,1.749,0,1,0,1.749,1.754,1.755,1.755,0,0,0-1.749-1.754" transform="translate(-429.487 0)" fill="#fff"/>
  </g>
</svg>
