<svg id="Group_3" data-name="Group 3" xmlns="http://www.w3.org/2000/svg" xmlns:xlink="http://www.w3.org/1999/xlink" width="201.527" height="60" viewBox="0 0 201.527 60">
  <defs>
    <clipPath id="clip-path">
      <rect id="Rectangle_3" data-name="Rectangle 3" width="201.527" height="60" fill="none"/>
    </clipPath>
  </defs>
  <path id="Path_1" data-name="Path 1" d="M41.8,57.43,42,1.247,40.153,57.43Z" transform="translate(-21.294 -0.661)" fill="#1072ba" fill-rule="evenodd"/>
  <path id="Path_2" data-name="Path 2" d="M34.561,60.542l.811-53.426L32.918,60.542Z" transform="translate(-17.457 -3.774)" fill="#1072ba" fill-rule="evenodd"/>
  <path id="Path_3" data-name="Path 3" d="M27.084,63.291,28.9,12.3,25.441,63.291Z" transform="translate(-13.492 -6.523)" fill="#1072ba" fill-rule="evenodd"/>
  <path id="Path_4" data-name="Path 4" d="M20.775,66.447l2.02-48.2-3.662,48.2Z" transform="translate(-10.147 -9.679)" fill="#1072ba" fill-rule="evenodd"/>
  <path id="Path_5" data-name="Path 5" d="M14.263,70.654,16.83,23.837,12.62,70.654Z" transform="translate(-6.693 -13.885)" fill="#1072ba" fill-rule="evenodd"/>
  <path id="Path_6" data-name="Path 6" d="M7.671,74.086l2.757-43.777-4.4,43.777Z" transform="translate(-3.197 -17.317)" fill="#1072ba" fill-rule="evenodd"/>
  <path id="Path_7" data-name="Path 7" d="M0,78.39H1.642L4.229,38.426Z" transform="translate(0 -21.622)" fill="#1072ba"/>
  <path id="Path_8" data-name="Path 8" d="M48.527,56.749H71.483L67.027,17.642,48.432,0Z" transform="translate(-25.685)" fill="#313638"/>
  <g id="Group_2" data-name="Group 2">
    <g id="Group_1" data-name="Group 1" clip-path="url(#clip-path)">
      <path id="Path_9" data-name="Path 9" d="M117.149,53.669l-5.761-22.02h3.221l3.92,17.409c.07.288.127.566.173.834a4.181,4.181,0,0,1,.067.556,3.375,3.375,0,0,1,.077-.594c.05-.273.108-.539.172-.8l4.659-17.409h3.355l4.63,17.313a6.74,6.74,0,0,1,.191.834,3.785,3.785,0,0,1,.077.6,4.183,4.183,0,0,1,.067-.575c.044-.28.1-.568.173-.862l3.968-17.313h3.212l-5.771,22.02h-3.2l-4.784-17.035c-.076-.288-.148-.568-.211-.844a3.406,3.406,0,0,1-.086-.594,3.759,3.759,0,0,1-.077.613,6.848,6.848,0,0,1-.192.825l-4.668,17.035Zm28.89.432a5.331,5.331,0,0,1-3.729-1.256,4.379,4.379,0,0,1-1.37-3.4,4.568,4.568,0,0,1,1.294-3.423,6.374,6.374,0,0,1,3.777-1.591l3.672-.47a4.772,4.772,0,0,0,.853-.144,1.344,1.344,0,0,0,.806-.537,1.745,1.745,0,0,0,.288-1.026v-.134a2.374,2.374,0,0,0-.978-2.013,4.433,4.433,0,0,0-2.7-.728,3.979,3.979,0,0,0-2.608.776,3.387,3.387,0,0,0-1.122,2.3h-2.492a5.308,5.308,0,0,1,1.859-3.959,7.48,7.48,0,0,1,4.765-1.333,6.811,6.811,0,0,1,4.448,1.265,4.517,4.517,0,0,1,1.534,3.691v8.81a.843.843,0,0,0,.91.9,3.114,3.114,0,0,0,.346-.029,4.116,4.116,0,0,0,.508-.1v1.946a5.154,5.154,0,0,1-.825.24,3.607,3.607,0,0,1-.738.1,2.7,2.7,0,0,1-2.215-.843,3.465,3.465,0,0,1-.642-1.571,5.762,5.762,0,0,1-.69.719A7.154,7.154,0,0,1,146.039,54.1Zm5.589-6.787V45.578a5.588,5.588,0,0,1-1.659.5l-2.473.355a6.585,6.585,0,0,0-2.847.911,2,2,0,0,0-.9,1.726,2.782,2.782,0,0,0,.738,2.08,2.855,2.855,0,0,0,2.08.719,5.645,5.645,0,0,0,3.595-1.15,3.856,3.856,0,0,0,1.333-1.822,3.734,3.734,0,0,0,.1-.623C151.614,47.984,151.628,47.665,151.628,47.313Z" transform="translate(-60.134 -17.086)" fill="#313638"/>
      <path id="Path_10" data-name="Path 10" d="M219.6,64.67a4.331,4.331,0,0,0,3.537-1.457,6.5,6.5,0,0,0,1.218-4.256v-.528l-.02.01A5.25,5.25,0,0,1,220,60.567a6.21,6.21,0,0,1-5.128-2.4,10.207,10.207,0,0,1-1.9-6.5,8.722,8.722,0,0,1,1.87-5.819,6.11,6.11,0,0,1,4.9-2.224,5.282,5.282,0,0,1,4.592,2.5l.191.288v-2.31h2.531V58.957q-.021,4.055-1.83,6T219.652,66.9a6.866,6.866,0,0,1-4.334-1.256A5.325,5.325,0,0,1,213.392,62h2.751a3.087,3.087,0,0,0,1.141,1.975A3.711,3.711,0,0,0,219.6,64.67Zm.527-18.588a3.81,3.81,0,0,0-3.307,1.438,7.935,7.935,0,0,0-1.035,4.572,7.806,7.806,0,0,0,1.131,4.554,3.7,3.7,0,0,0,3.211,1.591,3.887,3.887,0,0,0,3.163-1.466,5.97,5.97,0,0,0,1.2-3.883,9.542,9.542,0,0,0-1.093-5.1A3.617,3.617,0,0,0,220.131,46.082Z" transform="translate(-114.975 -23.553)" fill="#313638"/>
      <path id="Path_11" data-name="Path 11" d="M257.375,60.567a6.837,6.837,0,0,1-5.349-2.157,8.569,8.569,0,0,1-1.946-5.963,9.481,9.481,0,0,1,2.061-6.422,6.926,6.926,0,0,1,5.531-2.4,6.284,6.284,0,0,1,5.08,2.339,9.316,9.316,0,0,1,1.937,6.135l-.039.958h-11.7a6.937,6.937,0,0,0,1.093,3.662,4.179,4.179,0,0,0,3.6,1.524,4.363,4.363,0,0,0,2.693-.863,3.554,3.554,0,0,0,1.409-2.224H264.4A6.786,6.786,0,0,1,262,59.187,7.363,7.363,0,0,1,257.375,60.567Zm4.5-9.673a6.059,6.059,0,0,0-1.112-3.48,3.855,3.855,0,0,0-3.2-1.371,4.146,4.146,0,0,0-3.4,1.582,6.041,6.041,0,0,0-1.208,3.269Z" transform="translate(-135.009 -23.553)" fill="#313638"/>
      <path id="Path_12" data-name="Path 12" d="M308.1,53.669V31.649h2.981V51.033h11.158v2.636Z" transform="translate(-166.33 -17.086)" fill="#313638"/>
      <path id="Path_13" data-name="Path 13" d="M344.609,37.641H347.3V53.669h-2.694Zm-.029-5.992h2.761v3.058H344.58Z" transform="translate(-186.026 -17.086)" fill="#313638"/>
      <path id="Path_14" data-name="Path 14" d="M355.486,44.671h3.144l4.3,13.123,4.429-13.123h2.982L364.373,60.7h-2.895Z" transform="translate(-191.914 -24.116)" fill="#313638"/>
      <path id="Path_15" data-name="Path 15" d="M398.26,60.567a6.837,6.837,0,0,1-5.349-2.157,8.569,8.569,0,0,1-1.946-5.963,9.481,9.481,0,0,1,2.061-6.422,6.926,6.926,0,0,1,5.531-2.4,6.286,6.286,0,0,1,5.081,2.339,9.319,9.319,0,0,1,1.936,6.135l-.039.958h-11.7a6.937,6.937,0,0,0,1.093,3.662,4.179,4.179,0,0,0,3.6,1.524,4.361,4.361,0,0,0,2.693-.863,3.553,3.553,0,0,0,1.409-2.224h2.665a6.786,6.786,0,0,1-2.406,4.026A7.363,7.363,0,0,1,398.26,60.567Zm4.5-9.673a6.062,6.062,0,0,0-1.112-3.48,3.856,3.856,0,0,0-3.2-1.371,4.146,4.146,0,0,0-3.4,1.582,6.041,6.041,0,0,0-1.208,3.269Z" transform="translate(-211.068 -23.553)" fill="#313638"/>
      <path id="Path_16" data-name="Path 16" d="M432.137,48.389l-.7-10V31.546h2.982v6.845l-.71,10Zm-.729,2.137h3.02v3.087h-3.02Z" transform="translate(-232.901 -17.031)" fill="#313638"/>
      <path id="Path_17" data-name="Path 17" d="M111.388,114.317v-8.858h1.195v7.795h4.49v1.063Zm6.763-6.446h1.085v6.446h-1.085Zm-.011-2.412h1.108v1.228H118.14Z" transform="translate(-60.134 -56.933)" fill="#1072ba"/>
      <path id="Path_18" data-name="Path 18" d="M130.453,110.7h1.262l1.729,5.277,1.785-5.277h1.2l-2.407,6.446H132.86Z" transform="translate(-70.427 -59.764)" fill="#1072ba"/>
      <path id="Path_19" data-name="Path 19" d="M147.654,117.1a2.747,2.747,0,0,1-2.148-.865,3.46,3.46,0,0,1-.782-2.4,3.823,3.823,0,0,1,.826-2.583,2.782,2.782,0,0,1,2.226-.964,2.52,2.52,0,0,1,2.043.942,3.742,3.742,0,0,1,.777,2.468l-.011.386h-4.71a2.81,2.81,0,0,0,.435,1.471,1.7,1.7,0,0,0,1.449.611,1.758,1.758,0,0,0,1.085-.347,1.435,1.435,0,0,0,.567-.892h1.069a2.71,2.71,0,0,1-.964,1.619,2.956,2.956,0,0,1-1.862.557m1.807-3.895a2.408,2.408,0,0,0-.441-1.4,1.563,1.563,0,0,0-1.294-.551,1.663,1.663,0,0,0-1.366.639,2.424,2.424,0,0,0-.485,1.311Z" transform="translate(-78.131 -59.538)" fill="#1072ba"/>
      <path id="Path_20" data-name="Path 20" d="M160.906,122.515v-.655h1.283v1.1a2.647,2.647,0,0,1-.3,1.4,1.529,1.529,0,0,1-.986.634v-.573a.654.654,0,0,0,.523-.419,2.476,2.476,0,0,0,.138-.826h-.661Z" transform="translate(-86.867 -65.788)" fill="#1072ba"/>
      <path id="Path_21" data-name="Path 21" d="M182.54,111.067a3.206,3.206,0,0,1-3.487,3.492,3.122,3.122,0,0,1-3.487-3.492v-5.608h1.2v5.519a2.708,2.708,0,0,0,.583,1.879,2.588,2.588,0,0,0,3.4,0,2.712,2.712,0,0,0,.584-1.879v-5.519h1.2Z" transform="translate(-94.782 -56.933)" fill="#1072ba"/>
      <path id="Path_22" data-name="Path 22" d="M194.381,110.475h1.03v.914l.055-.077a2.135,2.135,0,0,1,1.84-1.03,2.491,2.491,0,0,1,2,.871,3.525,3.525,0,0,1,.739,2.352,4.2,4.2,0,0,1-.744,2.638,2.465,2.465,0,0,1-2.06.953,2.074,2.074,0,0,1-1.735-.837l-.039-.05v3.261h-1.085Zm2.8,5.679a1.467,1.467,0,0,0,1.289-.639,3.318,3.318,0,0,0,.441-1.873,3.044,3.044,0,0,0-.425-1.79,1.5,1.5,0,0,0-1.3-.584,1.435,1.435,0,0,0-1.311.656,4.029,4.029,0,0,0-.413,2.082,2.5,2.5,0,0,0,.446,1.592,1.535,1.535,0,0,0,1.272.556" transform="translate(-104.939 -59.537)" fill="#1072ba"/>
      <path id="Path_23" data-name="Path 23" d="M218.566,115.022a6.162,6.162,0,0,1-.8.082,1.327,1.327,0,0,1-1-.314,1.562,1.562,0,0,1-.292-1.074v-4.253h-.893v-.881h.893v-1.807h1.079v1.807h1.019v.881h-1.019v4.253a.4.4,0,0,0,.171.341.766.766,0,0,0,.463.127h.386Z" transform="translate(-116.381 -57.644)" fill="#1072ba"/>
      <path id="Path_24" data-name="Path 24" d="M226.567,117.1a2.752,2.752,0,0,1-2.165-.942,4.094,4.094,0,0,1,0-4.931,2.972,2.972,0,0,1,4.341,0,4.091,4.091,0,0,1,0,4.931,2.756,2.756,0,0,1-2.176.942m0-.937a1.612,1.612,0,0,0,1.36-.666,3.463,3.463,0,0,0,0-3.608,1.714,1.714,0,0,0-2.721,0,3.5,3.5,0,0,0,0,3.608,1.62,1.62,0,0,0,1.361.666" transform="translate(-120.7 -59.538)" fill="#1072ba"/>
      <path id="Path_25" data-name="Path 25" d="M248.764,114.493a2.492,2.492,0,0,1-2.06-.964,4.105,4.105,0,0,1-.766-2.617,3.534,3.534,0,0,1,.738-2.341,2.4,2.4,0,0,1,1.934-.893,2.179,2.179,0,0,1,1.884,1l.082.121v-3.343h1.086v8.858h-1.009v-.881l-.138.2a2.112,2.112,0,0,1-1.752.86m.061-5.839a1.54,1.54,0,0,0-1.334.584,4.068,4.068,0,0,0,.033,3.68,1.5,1.5,0,0,0,1.3.645,1.549,1.549,0,0,0,1.266-.589,2.414,2.414,0,0,0,.485-1.57,3.764,3.764,0,0,0-.457-2.033A1.445,1.445,0,0,0,248.825,108.654Z" transform="translate(-132.773 -56.933)" fill="#1072ba"/>
      <path id="Path_26" data-name="Path 26" d="M262.946,117.1a2.148,2.148,0,0,1-1.5-.507,1.763,1.763,0,0,1-.551-1.366,1.856,1.856,0,0,1,.518-1.383,2.579,2.579,0,0,1,1.526-.639l1.476-.188a1.871,1.871,0,0,0,.341-.06.559.559,0,0,0,.325-.215.693.693,0,0,0,.116-.408v-.055a.956.956,0,0,0-.391-.81,1.8,1.8,0,0,0-1.091-.292,1.6,1.6,0,0,0-1.047.309,1.38,1.38,0,0,0-.457.925h-1a2.117,2.117,0,0,1,.744-1.592,3.019,3.019,0,0,1,1.917-.535,2.726,2.726,0,0,1,1.79.513,1.811,1.811,0,0,1,.617,1.482v3.542a.349.349,0,0,0,.1.259.358.358,0,0,0,.264.1,1.136,1.136,0,0,0,.144-.011c.062-.007.129-.017.2-.033v.783a2.1,2.1,0,0,1-.336.093,1.431,1.431,0,0,1-.292.039,1.1,1.1,0,0,1-.893-.336,1.412,1.412,0,0,1-.259-.634,2.589,2.589,0,0,1-.275.286A2.867,2.867,0,0,1,262.946,117.1Zm2.247-2.732v-.7a2.2,2.2,0,0,1-.672.2l-.992.149a2.627,2.627,0,0,0-1.146.364.8.8,0,0,0-.358.694,1.129,1.129,0,0,0,.292.837,1.141,1.141,0,0,0,.837.292,2.274,2.274,0,0,0,1.448-.463,1.254,1.254,0,0,0,.573-.986c.011-.113.017-.242.017-.385" transform="translate(-140.845 -59.538)" fill="#1072ba"/>
      <path id="Path_27" data-name="Path 27" d="M278.221,115.022a6.163,6.163,0,0,1-.8.082,1.327,1.327,0,0,1-1-.314,1.562,1.562,0,0,1-.292-1.074v-4.253h-.892v-.881h.892v-1.807H277.2v1.807h1.019v.881H277.2v4.253a.4.4,0,0,0,.171.341.765.765,0,0,0,.462.127h.386Z" transform="translate(-148.587 -57.644)" fill="#1072ba"/>
      <path id="Path_28" data-name="Path 28" d="M286.292,117.1a2.746,2.746,0,0,1-2.148-.865,3.458,3.458,0,0,1-.782-2.4,3.821,3.821,0,0,1,.826-2.583,2.781,2.781,0,0,1,2.225-.964,2.519,2.519,0,0,1,2.043.942,3.742,3.742,0,0,1,.777,2.468l-.011.386h-4.71a2.81,2.81,0,0,0,.435,1.471,1.7,1.7,0,0,0,1.449.611,1.758,1.758,0,0,0,1.085-.347,1.436,1.436,0,0,0,.568-.892h1.068a2.71,2.71,0,0,1-.964,1.619A2.956,2.956,0,0,1,286.292,117.1ZM288.1,113.2a2.408,2.408,0,0,0-.441-1.4,1.563,1.563,0,0,0-1.294-.551,1.662,1.662,0,0,0-1.366.639,2.421,2.421,0,0,0-.485,1.311Z" transform="translate(-152.977 -59.538)" fill="#1072ba"/>
      <path id="Path_29" data-name="Path 29" d="M311.7,107.741a1.775,1.775,0,0,0-.667-1.289,2.448,2.448,0,0,0-1.559-.457,2.546,2.546,0,0,0-1.537.391,1.339,1.339,0,0,0-.524,1.146.884.884,0,0,0,.347.766,4.415,4.415,0,0,0,1.4.5l1.542.364a3.458,3.458,0,0,1,1.774.876,2.573,2.573,0,0,1-.385,3.531,3.939,3.939,0,0,1-2.473.7,4.1,4.1,0,0,1-2.711-.815,2.7,2.7,0,0,1-.953-2.193V111.2h1.107a1.851,1.851,0,0,0,.694,1.488,2.955,2.955,0,0,0,1.862.523,3.021,3.021,0,0,0,1.674-.38,1.251,1.251,0,0,0,.573-1.113,1.151,1.151,0,0,0-.38-.947,4.26,4.26,0,0,0-1.5-.573l-1.542-.364a3.566,3.566,0,0,1-1.669-.771,1.839,1.839,0,0,1-.5-1.372,2.514,2.514,0,0,1,.865-2.01,3.447,3.447,0,0,1,2.336-.75,3.578,3.578,0,0,1,2.38.75,2.734,2.734,0,0,1,.947,2.06Z" transform="translate(-165.174 -56.648)" fill="#1072ba"/>
      <path id="Path_30" data-name="Path 30" d="M325.588,117.1a2.148,2.148,0,0,1-1.5-.507,1.764,1.764,0,0,1-.551-1.366,1.858,1.858,0,0,1,.518-1.383,2.581,2.581,0,0,1,1.526-.639l1.476-.188a1.871,1.871,0,0,0,.341-.06.559.559,0,0,0,.325-.215.693.693,0,0,0,.115-.408v-.055a.956.956,0,0,0-.391-.81,1.8,1.8,0,0,0-1.09-.292,1.6,1.6,0,0,0-1.047.309,1.381,1.381,0,0,0-.457.925h-1a2.118,2.118,0,0,1,.744-1.592,3.019,3.019,0,0,1,1.917-.535,2.726,2.726,0,0,1,1.79.513,1.811,1.811,0,0,1,.617,1.482v3.542a.349.349,0,0,0,.1.259.358.358,0,0,0,.264.1,1.125,1.125,0,0,0,.143-.011c.062-.007.13-.017.2-.033v.783a2.112,2.112,0,0,1-.336.093,1.423,1.423,0,0,1-.292.039,1.1,1.1,0,0,1-.893-.336,1.411,1.411,0,0,1-.259-.634,2.6,2.6,0,0,1-.276.286,2.865,2.865,0,0,1-1.988.733m2.247-2.732v-.7a2.2,2.2,0,0,1-.672.2l-.992.149a2.627,2.627,0,0,0-1.146.364.8.8,0,0,0-.358.694,1.02,1.02,0,0,0,1.129,1.13,2.274,2.274,0,0,0,1.449-.463,1.6,1.6,0,0,0,.534-.738,1.624,1.624,0,0,0,.039-.248C327.83,114.638,327.835,114.508,327.835,114.365Z" transform="translate(-174.664 -59.538)" fill="#1072ba"/>
      <rect id="Rectangle_1" data-name="Rectangle 1" width="1.085" height="8.858" transform="translate(156.117 48.526)" fill="#1072ba"/>
      <path id="Path_31" data-name="Path 31" d="M346.484,117.1a2.146,2.146,0,0,1-1.5-.507,1.764,1.764,0,0,1-.551-1.366,1.856,1.856,0,0,1,.518-1.383,2.579,2.579,0,0,1,1.526-.639l1.476-.188a1.871,1.871,0,0,0,.341-.06.558.558,0,0,0,.325-.215.693.693,0,0,0,.115-.408v-.055a.956.956,0,0,0-.391-.81,1.8,1.8,0,0,0-1.091-.292,1.6,1.6,0,0,0-1.047.309,1.381,1.381,0,0,0-.457.925h-1a2.116,2.116,0,0,1,.744-1.592,3.017,3.017,0,0,1,1.917-.535,2.727,2.727,0,0,1,1.79.513,1.812,1.812,0,0,1,.617,1.482v3.542a.349.349,0,0,0,.1.259.359.359,0,0,0,.265.1,1.136,1.136,0,0,0,.143-.011c.062-.007.129-.017.2-.033v.783a2.1,2.1,0,0,1-.336.093,1.427,1.427,0,0,1-.292.039,1.1,1.1,0,0,1-.893-.336,1.422,1.422,0,0,1-.259-.634,2.545,2.545,0,0,1-.275.286A2.867,2.867,0,0,1,346.484,117.1Zm2.247-2.732v-.7a2.2,2.2,0,0,1-.672.2l-.992.149a2.627,2.627,0,0,0-1.146.364.8.8,0,0,0-.358.694,1.129,1.129,0,0,0,.292.837,1.141,1.141,0,0,0,.837.292,2.274,2.274,0,0,0,1.448-.463,1.254,1.254,0,0,0,.573-.986C348.726,114.638,348.731,114.508,348.731,114.365Z" transform="translate(-185.945 -59.538)" fill="#1072ba"/>
      <path id="Path_32" data-name="Path 32" d="M360.46,116.92v-6.446h1.03v1.1a3.747,3.747,0,0,1,.292-.468,1.836,1.836,0,0,1,1.515-.826.974.974,0,0,1,.308.056v1.107l-.226-.005a1.736,1.736,0,0,0-1.355.529,2.142,2.142,0,0,0-.479,1.5v3.454Z" transform="translate(-194.599 -59.537)" fill="#1072ba"/>
      <path id="Path_33" data-name="Path 33" d="M373.537,110.7l-2.451,6.655a6.286,6.286,0,0,1-1.014,1.945,2.126,2.126,0,0,1-1.851.4V118.69a2.128,2.128,0,0,0,.623.1.756.756,0,0,0,.612-.3,4.432,4.432,0,0,0,.562-1.129l.017-.1-2.391-6.556h1.234l1.724,5.333,1.746-5.333Z" transform="translate(-198.477 -59.764)" fill="#1072ba"/>
      <rect id="Rectangle_2" data-name="Rectangle 2" width="1.201" height="8.858" transform="translate(179.738 48.526)" fill="#1072ba"/>
      <path id="Path_34" data-name="Path 34" d="M397.362,116.92v-6.446H398.4v.948l.237-.314a2.19,2.19,0,0,1,3.988,1.394v4.418h-1.085v-4.049a1.836,1.836,0,0,0-.331-1.223,1.325,1.325,0,0,0-1.058-.38,1.5,1.5,0,0,0-1.245.6,2.561,2.561,0,0,0-.457,1.6v3.454Z" transform="translate(-214.521 -59.537)" fill="#1072ba"/>
      <path id="Path_35" data-name="Path 35" d="M412.911,108.62v5.547h-1.079V108.62h-.892v-.9h.892v-1.1a1.344,1.344,0,0,1,.419-1.08,1.9,1.9,0,0,1,1.267-.364l.474.017v.981l-.424-.022a.6.6,0,0,0-.485.2.865.865,0,0,0-.171.573v.788h1.08v.9Z" transform="translate(-221.851 -56.784)" fill="#1072ba"/>
      <path id="Path_36" data-name="Path 36" d="M421.93,117.1a2.75,2.75,0,0,1-2.165-.942,4.091,4.091,0,0,1,0-4.931,2.971,2.971,0,0,1,4.34,0,4.091,4.091,0,0,1,0,4.931,2.755,2.755,0,0,1-2.176.942m0-.937a1.612,1.612,0,0,0,1.361-.666,3.466,3.466,0,0,0,0-3.608,1.714,1.714,0,0,0-2.721,0,3.5,3.5,0,0,0,0,3.608,1.619,1.619,0,0,0,1.361.666" transform="translate(-226.17 -59.538)" fill="#1072ba"/>
      <path id="Path_37" data-name="Path 37" d="M435.623,112.193l-.287-4.016v-2.754h1.2v2.754l-.28,4.016Zm-.3.865h1.218v1.24h-1.218Z" transform="translate(-235.016 -56.914)" fill="#1072ba"/>
    </g>
  </g>
</svg>
