<svg xmlns="http://www.w3.org/2000/svg" xmlns:xlink="http://www.w3.org/1999/xlink" width="34.97" height="34.98" viewBox="0 0 34.97 34.98">
  <defs>
    <clipPath id="clip-path">
      <rect id="Rectangle_1174" data-name="Rectangle 1174" width="34.97" height="34.98" fill="#313638"/>
    </clipPath>
  </defs>
  <g id="Group_1111" data-name="Group 1111" transform="translate(0 0)">
    <g id="Group_1110" data-name="Group 1110" transform="translate(0 0)" clip-path="url(#clip-path)">
      <path id="Path_61" data-name="Path 61" d="M0,17.484a17.485,17.485,0,1,1,17.5,17.5A17.5,17.5,0,0,1,0,17.484M29.239,27.42A15.412,15.412,0,1,0,5.542,7.709c-5.439,6.725-3.8,15.4.133,19.606.008-.153.018-.289.021-.425a3.732,3.732,0,0,1,1.386-2.88,9.377,9.377,0,0,1,.96-.741,26.6,26.6,0,0,1,4.883-2.582,5.141,5.141,0,0,0,.719-.337,1.5,1.5,0,0,0,.6-2.175,9.35,9.35,0,0,0-.7-.988,11.024,11.024,0,0,1-2.324-5.758,7.943,7.943,0,0,1,.687-4.364,5.89,5.89,0,0,1,5.6-3.294A6.033,6.033,0,0,1,21.632,5.12a6.46,6.46,0,0,1,2.214,5.049,10.422,10.422,0,0,1-2.177,6.681,7.48,7.48,0,0,0-.99,1.687,1.413,1.413,0,0,0,.687,1.91,6.284,6.284,0,0,0,.875.449c.686.292,1.389.542,2.067.848a12.081,12.081,0,0,1,3.827,2.409,3.556,3.556,0,0,1,1.1,2.232c.026.321,0,.645,0,1.034" transform="translate(0 0)" fill="#313638"/>
    </g>
  </g>
</svg>
