<svg xmlns="http://www.w3.org/2000/svg" width="1920" height="879.663" viewBox="0 0 1920 879.663">
  <g id="Group_76380" data-name="Group 76380" transform="translate(0 -11238)">
    <path id="Path_308" data-name="Path 308" d="M0,0H1920V836.706H0Z" transform="translate(0 11238)" fill="#ff92b9"/>
    <g id="Group_402" data-name="Group 402" transform="translate(76.538 11754.938)" opacity="0.4">
      <path id="Path_324" data-name="Path 324" d="M412.827,206.973c.207-.425.42-.843.62-1.277.3-.657-.737-1.305-1.117-.662-.106.176-.225.336-.333.512.059-.134.124-.256.181-.387a.353.353,0,0,0-.65-.277,62.927,62.927,0,0,1-3.429,5.969c-31.341,13.706-54.4,41.565-68.6,72.371,3.352-13.29,6.544-26.63,10.079-39.842,1.6-4.178,3.6-8.436,4.626-12.807a.464.464,0,0,0,.183-.246c.23-.824.5-1.606.777-2.385a.523.523,0,0,0,.185-.265c.066-.251.115-.516.178-.768,5.774-14.95,19.78-22.1,28.944-35,8.924-12.56,6.8-30.937,10.408-45.225.223-.9-1.082-1.338-1.6-.681-3.878,5-9.908,8.291-12.525,13.844a69.167,69.167,0,0,0-3.087-17.367.868.868,0,0,0-1.469-.211,71.361,71.361,0,0,0-9.868,13.217c.007-8.622,2.821-17.2,4.964-25.653.023-.009.044-.028.068-.038.1.136.178.272.289.413a.788.788,0,0,0,1.4-.566,13.135,13.135,0,0,1,.23-4.523c.141-.493.291-.986.425-1.486.031-.087.049-.178.082-.265l0,0c.035-.122.073-.239.106-.364.437-1.615-2.033-2.084-2.7-.737a8.338,8.338,0,0,0-1.1,4.352l-.446,1.62a1.307,1.307,0,0,0,.425,1.38c-1.922,9.316-5.594,18.28-4.911,27.942-.174.322-.371.631-.54.955.5-5.953,1.235-15.952-2.169-17.565a.921.921,0,0,0-1.075.272c-8.65,10.476-15.1,24.163-14.745,38.042.195,7.558,3.178,13.99,5.852,20.527-.324.012-.657.319-.488.671a30.074,30.074,0,0,1,2.861,11.732,30.749,30.749,0,0,0-1.988-6.338.566.566,0,0,0-1.049.423c1.547,4.622,1.462,9.124,1.812,13.76a36.615,36.615,0,0,0-2.12,7.72c-3.744,12.1-6.347,24.651-9.213,36.993.439-35.754-.594-78.737-23.369-107.61a22.391,22.391,0,0,1,.324-8.657c.249-.979-1.366-1.4-1.7-.465a55.726,55.726,0,0,0-2.49,9.549c-4.744,19.266-4.594,39.328-.735,58.738,2.061,10.384,6.328,20.32,10.1,30.162,3.263,8.514,5.8,17.71,13.769,22.975a.343.343,0,0,0,.19.042,78.922,78.922,0,0,1-.725,13.333c-7.4,26.315-16.832,51.6-25.477,77.535a.346.346,0,0,0,.636.27c9.37-18.32,15.9-37.674,21.407-57.391a63.147,63.147,0,0,1,5.3-9.492q1.891-1.408,3.868-2.843a.3.3,0,0,0,.246-.12c.028-.038.052-.077.08-.115C372.593,269.837,414.111,245.212,412.827,206.973ZM356.692,204.4c.413-8.551-2.948-16.886-2.967-25.456,0-.465-.81-.469-.817,0-.145,7.476,1.319,14.943,2.561,22.337-2.3-5.27-5.408-10.436-6.5-16.133-2.059-10.692,1.988-22.419,6.565-31.874a59.051,59.051,0,0,1,5.234-8.34q3.915,3.243,2.169,8.516a57.225,57.225,0,0,0,.289,7.861,77.2,77.2,0,0,0-4.481,12.178c-2.993,10.844.12,21.635.326,32.58q-.56,1.542-1.124,3.089A26.166,26.166,0,0,0,356.692,204.4Zm4.091,2.326a.471.471,0,0,0-.671-.584v0a173.772,173.772,0,0,0,9.394-30.5c.089-.415-.552-.491-.646-.085a256.087,256.087,0,0,1-8.645,27.378c-.009-7.462-1.58-14.865-1.162-22.4a47.623,47.623,0,0,1,4.976-17.7.5.5,0,0,0,.324-.472c0-.063.007-.16.009-.228.378-.768.81-1.5,1.218-2.256a.6.6,0,0,0,.927-.549c-.035-.345-.047-.69-.073-1.035a85.99,85.99,0,0,1,8.692-12.405c1.544-1.84,4.335,13.875,4.4,14.734q.116,1.426.131,2.852c-.028.174-.07.34-.092.516a.473.473,0,0,0,.075.256,60.988,60.988,0,0,1-3.535,18.877c-3.183,9.492-9.351,17.065-15.659,24.552C360.568,207.36,360.666,207.038,360.783,206.724Zm4.615-2.063a62.472,62.472,0,0,0,15.433-40.939c1.73-5.481,5.807-8.734,10.067-12.452a9.483,9.483,0,0,0,1.678-1.789,12.088,12.088,0,0,0-1.115,3.364c-2.307,10.614-1.953,21.3-5.5,31.7-4.662,13.7-20.36,20.891-28.2,32.406a31.194,31.194,0,0,1,8.171-11.206A.619.619,0,0,0,365.4,204.661Zm-40.8,37.988c-3.739-9.851-7.352-19.614-9.413-29.984-2.533-12.743-2.225-24.909-.937-37.185a201.546,201.546,0,0,0,3.068,23.3c3.575,20.25,10.065,39.612,16.492,59.1.336,1.007,1.758.373,1.5-.606-5.857-21.853-13.433-42.751-17.137-65.174-1.765-10.682-2.641-21.52-1.58-32.317.042-.423.056-1.42.054-2.594.073-.5.143-1.007.216-1.512.138.209.256.422.394.631a54.8,54.8,0,0,0,1.62,7.241c2.751,9.309,7.206,17.644,9.051,27.275,2.235,11.659,1.765,23.679,3.859,35.376,2.476,13.842,6.082,28.153,6.577,42.382C330.856,261.5,328.154,252,324.6,242.649Zm8.495-19.529c-2.347-13.1-1-26.874-4.934-39.716-2.265-7.422-6.943-15.546-8.762-23.668,10.347,16.778,15.98,34.028,18.276,53.945,2.15,18.651.422,37.8,3.3,56.323a.757.757,0,0,0,.044.122c-.427,1.76-.864,3.518-1.317,5.26C341,258,336.125,240.029,333.1,223.119Zm72.955-6.953a34.455,34.455,0,0,0,4.819-5.784l.021-.014a.167.167,0,0,1-.007.049c-2.08,3.195-5.3,8.122-7.565,11.591-11.563,17.659-27.916,32.385-43.185,46.922,7.115-9.276,14.187-18.583,22.048-27.273,7.758-8.579,16.438-15.837,23.149-24.848C405.572,216.594,405.818,216.39,406.053,216.167Zm-51.969,58.564c-.054.054-.108.1-.167.157,8.453-14.525,16.044-29.8,28.862-40.777,5.516-4.725,11.656-8.582,17.4-13-6.042,6.77-12.882,12.87-19.212,19.576C371.053,251.19,362.37,262.87,354.084,274.731Zm-16.813,19.147c-.235.23-.467.47-.7.7.291-1.1.566-2.2.854-3.3,7.476-15.255,15.206-30.045,25.886-43.469,11.828-14.868,26.709-25.491,42.9-34.794-9.359,9.9-22.184,16.011-31.545,26.226-10.6,11.565-19.28,27.059-26.782,41.65A87.771,87.771,0,0,0,337.271,293.878Zm41.774-32.7c-9.821,8.265-20.879,15.3-31.021,23.311.148-.223.284-.453.434-.678q2.88-3.524,5.68-7.124c4.969-4.927,10.14-9.652,14.99-14.426,16.008-15.753,31.245-31.324,41.624-51.156-2.07,9.992-4.7,18.863-10.5,27.775C394.645,247.5,386.85,254.6,379.045,261.176Z" transform="translate(0 1.904)" fill="#fff"/>
      <path id="Path_325" data-name="Path 325" d="M336,150.261c-.1.425.6.615.737.2,2.666-7.913,4.373-17.724,9.617-24.585a2.205,2.205,0,0,0,.23.146c.052.141.073.261.134.411a.763.763,0,0,0,1.4.014c.12-.359.244-.768.373-1.2a14.829,14.829,0,0,0,1.185-3.627c.373-1.634-2.082-2.155-2.742-.746a8.012,8.012,0,0,0-.721,2.293C340.953,131.475,338.173,140.7,336,150.261Z" transform="translate(33.044)" fill="#fff"/>
      <path id="Path_326" data-name="Path 326" d="M346.369,127.93c-1.284,7.793-3.065,15.591-4.476,23.362-.12.653.9.784,1.014.134,1.239-6.61,1.843-13.933,3.96-20.487a1.411,1.411,0,0,0,2.188-.944,21.078,21.078,0,0,0,.131-5.852,1.57,1.57,0,0,0-3.1-.007A7.931,7.931,0,0,0,346.369,127.93Z" transform="translate(40.985 3.712)" fill="#fff"/>
      <path id="Path_327" data-name="Path 327" d="M343.086,147.929c-.141.739.988.878,1.148.155,1.265-5.779,4.117-11.438,7.115-16.8a.7.7,0,0,0,1.049-.232c.425-.735.8-1.465,1.169-2.2a1.173,1.173,0,0,0,.561-.575,21.485,21.485,0,0,0,1.211-3.293c.007-.028.021-.052.03-.08l-.007,0c.03-.122.078-.232.106-.357.406-1.568-2.049-2.12-2.664-.73a18.564,18.564,0,0,0-1.57,5.04C348.381,135.169,344.438,140.93,343.086,147.929Z" transform="translate(42.59 3.993)" fill="#fff"/>
      <path id="Path_328" data-name="Path 328" d="M337.694,141c-2.453,6.76-4.605,13.729-4.112,20.994a.238.238,0,0,0,.469,0,80.105,80.105,0,0,1,4.23-20.745C338.417,140.864,337.833,140.61,337.694,141Z" transform="translate(29.706 27.947)" fill="#fff"/>
      <path id="Path_329" data-name="Path 329" d="M339.454,163.922c4.4-5.622,7-12.225,8.633-19.128.094-.411-.606-.606-.725-.2a84.943,84.943,0,0,1-8.356,19.06C338.858,163.917,339.273,164.147,339.454,163.922Z" transform="translate(37.068 32.752)" fill="#fff"/>
    </g>
    <g id="Group_403" data-name="Group 403" transform="translate(1405.718 11584.386)" opacity="0.4">
      <path id="Path_324-2" data-name="Path 324" d="M465.414,251.328c.314-.645.638-1.28.941-1.939.46-1-1.12-1.982-1.7-1.005-.16.267-.342.51-.506.777.089-.2.189-.389.274-.588a.537.537,0,0,0-.987-.421,95.585,95.585,0,0,1-5.209,9.066c-47.6,20.816-82.615,63.129-104.187,109.916,5.091-20.185,9.939-40.445,15.308-60.512,2.431-6.346,5.472-12.813,7.027-19.451a.7.7,0,0,0,.278-.374c.349-1.251.767-2.439,1.18-3.622a.794.794,0,0,0,.282-.4c.1-.381.175-.784.271-1.166,8.77-22.705,30.042-33.564,43.96-53.161,13.554-19.076,10.321-46.986,15.807-68.687.339-1.362-1.644-2.032-2.428-1.034-5.889,7.593-15.048,12.592-19.023,21.026a105.049,105.049,0,0,0-4.688-26.377,1.318,1.318,0,0,0-2.232-.321A108.38,108.38,0,0,0,394.8,173.126c.011-13.094,4.285-26.124,7.54-38.962.036-.014.067-.043.1-.057.146.207.271.414.439.627a1.2,1.2,0,0,0,2.132-.859,19.951,19.951,0,0,1,.349-6.87c.214-.749.442-1.5.645-2.257.046-.132.075-.271.125-.4l-.007,0c.053-.185.111-.364.16-.553.663-2.453-3.087-3.166-4.1-1.119a12.664,12.664,0,0,0-1.672,6.61l-.677,2.46a1.984,1.984,0,0,0,.645,2.1c-2.92,14.149-8.5,27.764-7.458,42.438-.264.488-.563.959-.82,1.451.756-9.041,1.875-24.228-3.294-26.677a1.4,1.4,0,0,0-1.633.414c-13.137,15.911-22.934,36.7-22.4,57.778.3,11.479,4.827,21.247,8.887,31.176-.492.018-1,.485-.741,1.02a45.676,45.676,0,0,1,4.346,17.818,46.7,46.7,0,0,0-3.02-9.625.86.86,0,0,0-1.594.642c2.349,7.019,2.221,13.857,2.752,20.9a55.608,55.608,0,0,0-3.219,11.725c-5.686,18.378-9.64,37.44-13.993,56.184.667-54.3-.9-119.584-35.493-163.437a34.007,34.007,0,0,1,.492-13.148c.378-1.487-2.075-2.128-2.588-.706a84.63,84.63,0,0,0-3.783,14.5c-7.2,29.261-6.977,59.731-1.116,89.21,3.13,15.772,9.611,30.862,15.344,45.81,4.955,12.93,8.809,26.9,20.912,34.894a.52.52,0,0,0,.289.064,119.865,119.865,0,0,1-1.1,20.249c-11.237,39.967-25.565,78.373-38.694,117.759a.525.525,0,0,0,.966.41c14.231-27.825,24.153-57.218,32.513-87.164A95.908,95.908,0,0,1,354.09,383.1q2.872-2.139,5.875-4.317a.454.454,0,0,0,.374-.182c.043-.057.078-.118.121-.175C404.306,346.805,467.364,309.4,465.414,251.328Zm-85.257-3.911c.628-12.987-4.478-25.647-4.506-38.662,0-.706-1.23-.713-1.241,0-.221,11.355,2,22.695,3.889,33.924-3.5-8-8.214-15.85-9.875-24.5-3.127-16.239,3.019-34.049,9.971-48.409a89.687,89.687,0,0,1,7.95-12.666q5.947,4.925,3.294,12.934a86.912,86.912,0,0,0,.439,11.939,117.255,117.255,0,0,0-6.806,18.5c-4.545,16.47.182,32.859.5,49.482q-.85,2.342-1.708,4.692A39.747,39.747,0,0,0,380.157,247.417Zm6.214,3.533a.716.716,0,0,0-1.019-.888v0a263.93,263.93,0,0,0,14.267-46.32c.135-.631-.838-.745-.98-.128-3.422,14.2-8.164,27.914-13.13,41.582-.014-11.333-2.4-22.577-1.764-34.021.51-9.069,3.4-18.239,7.558-26.887a.752.752,0,0,0,.492-.717c0-.1.011-.242.014-.346.574-1.166,1.23-2.282,1.85-3.426a.907.907,0,0,0,1.408-.834c-.053-.524-.071-1.048-.111-1.572a130.6,130.6,0,0,1,13.2-18.841c2.346-2.795,6.585,21.073,6.688,22.377q.176,2.166.2,4.331c-.043.264-.107.517-.139.784a.719.719,0,0,0,.114.389c-.064,9.779-2.275,19.447-5.369,28.67-4.834,14.417-14.2,25.917-23.782,37.29C386.043,251.916,386.193,251.428,386.371,250.95Zm7.009-3.134a94.882,94.882,0,0,0,23.44-62.177c2.628-8.324,8.82-13.265,15.29-18.912a14.4,14.4,0,0,0,2.549-2.716,18.36,18.36,0,0,0-1.694,5.109c-3.5,16.121-2.966,32.349-8.353,48.152-7.08,20.805-30.923,31.728-42.826,49.218,2.923-6.228,6.5-12.06,12.41-17.019A.941.941,0,0,0,393.38,247.816Zm-61.959,57.7c-5.679-14.962-11.166-29.789-14.3-45.539-3.847-19.354-3.38-37.832-1.422-56.477.684,11.943,2.634,23.893,4.659,35.383,5.429,30.755,15.287,60.163,25.048,89.766.51,1.529,2.67.567,2.278-.92-8.895-33.19-20.4-64.929-26.028-98.986-2.681-16.224-4.011-32.684-2.4-49.083.064-.642.086-2.157.082-3.939.111-.763.218-1.529.328-2.3.21.317.388.642.6.959a83.24,83.24,0,0,0,2.46,11c4.178,14.139,10.944,26.8,13.747,41.425,3.394,17.707,2.681,35.964,5.861,53.728,3.761,21.023,9.237,42.759,9.989,64.369C340.917,334.146,336.814,319.722,331.42,305.512Zm12.9-29.661c-3.565-19.9-1.526-40.816-7.493-60.32-3.44-11.272-10.545-23.611-13.308-35.946,15.714,25.483,24.27,51.682,27.757,81.931,3.265,28.327.642,57.4,5.013,85.542a1.148,1.148,0,0,0,.067.185c-.649,2.674-1.312,5.344-2,7.989C356.318,328.82,348.921,301.533,344.322,275.851Zm110.8-10.559a52.33,52.33,0,0,0,7.319-8.784l.032-.021a.252.252,0,0,1-.011.075c-3.158,4.852-8.043,12.335-11.49,17.6-17.561,26.819-42.4,49.186-65.589,71.264,10.806-14.089,21.547-28.224,33.486-41.422,11.782-13.03,24.966-24.053,35.158-37.739C454.394,265.941,454.769,265.63,455.125,265.292ZM376.2,354.238c-.082.082-.164.157-.253.239,12.838-22.06,24.367-45.265,43.835-61.931,8.378-7.176,17.7-13.034,26.424-19.739-9.176,10.281-19.565,19.547-29.179,29.732C401.968,318.485,388.781,336.224,376.2,354.238ZM350.66,383.318c-.357.349-.709.713-1.062,1.066.442-1.672.859-3.348,1.3-5.02,11.355-23.169,23.094-45.632,39.315-66.02,17.964-22.581,40.566-38.716,65.15-52.844-14.214,15.041-33.693,24.317-47.91,39.832-16.1,17.565-29.283,41.1-40.677,63.257A133.306,133.306,0,0,0,350.66,383.318Zm63.446-49.667c-14.916,12.552-31.711,23.233-47.115,35.4.225-.339.431-.688.659-1.03q4.374-5.353,8.627-10.82c7.547-7.483,15.4-14.659,22.766-21.91,24.313-23.925,47.454-47.575,63.218-77.7-3.144,15.176-7.144,28.648-15.95,42.185C437.8,312.881,425.96,323.668,414.106,333.65Z" transform="translate(0 3.625)" fill="#fff"/>
      <path id="Path_325-2" data-name="Path 325" d="M336,165.927c-.15.645.913.934,1.119.307,4.05-12.018,6.642-26.919,14.606-37.34a3.349,3.349,0,0,0,.349.221c.078.214.111.4.2.624a1.158,1.158,0,0,0,2.125.021c.182-.546.371-1.166.567-1.818a22.521,22.521,0,0,0,1.8-5.508c.567-2.481-3.162-3.273-4.164-1.134a12.169,12.169,0,0,0-1.095,3.483C343.528,137.4,339.307,151.4,336,165.927Z" transform="translate(62.91 0)" fill="#fff"/>
      <path id="Path_326-2" data-name="Path 326" d="M348.7,130.583c-1.95,11.836-4.656,23.679-6.8,35.482-.182.991,1.362,1.191,1.54.2,1.882-10.039,2.8-21.162,6.014-31.115a2.142,2.142,0,0,0,3.323-1.433,32.012,32.012,0,0,0,.2-8.888c-.289-2.681-4.4-2.692-4.709-.011A12.046,12.046,0,0,0,348.7,130.583Z" transform="translate(78.03 7.067)" fill="#fff"/>
      <path id="Path_327-2" data-name="Path 327" d="M343.092,160.849c-.214,1.123,1.5,1.333,1.743.235,1.921-8.777,6.253-17.372,10.805-25.511a1.063,1.063,0,0,0,1.594-.353c.645-1.116,1.209-2.225,1.775-3.337a1.781,1.781,0,0,0,.852-.873,32.632,32.632,0,0,0,1.84-5c.011-.043.032-.078.046-.121l-.011,0c.046-.185.118-.353.16-.542.617-2.381-3.112-3.219-4.046-1.109a28.2,28.2,0,0,0-2.385,7.654C351.135,141.47,345.146,150.218,343.092,160.849Z" transform="translate(81.085 7.603)" fill="#fff"/>
      <path id="Path_328-2" data-name="Path 328" d="M339.864,141.1c-3.725,10.267-6.995,20.852-6.246,31.885a.361.361,0,0,0,.713,0,121.665,121.665,0,0,1,6.424-31.507C340.963,140.894,340.075,140.509,339.864,141.1Z" transform="translate(56.556 53.207)" fill="#fff"/>
      <path id="Path_329-2" data-name="Path 329" d="M339.7,174.064c6.684-8.538,10.638-18.566,13.112-29.051.143-.624-.92-.92-1.1-.3a129.01,129.01,0,0,1-12.691,28.948C338.8,174.057,339.428,174.406,339.7,174.064Z" transform="translate(70.571 62.354)" fill="#fff"/>
    </g>
    <g id="Group_400" data-name="Group 400" transform="translate(100.188 11248.534)" opacity="0.4">
      <path id="Path_309" data-name="Path 309" d="M233.844,297.247c-.153-.408-.247-.826-.408-1.23a1.539,1.539,0,0,0-2.132-.83c-1.176-.933-2.338-1.894-3.6-2.773a2.1,2.1,0,0,0-3.388,1.795c1.176,32.7-26.126,65.677-40.095,93.674-9.527,19.1-19.049,43.11-6.255,62.226.081.781.081,1.539.2,2.329a1.108,1.108,0,0,0,1.642.79c-4.51,12.838-7.355,25.955-6.237,39.13-4.694-10.846-9.9-21.521-15.5-32.031a.755.755,0,0,0,.265-.458c2.109-17.258-7.346-31.479-12.767-47.086.538-1.692,1.037-3.4,1.606-5.093,8.643-25.731,22.527-55.917,14.378-83.335a2.175,2.175,0,0,0-3.285-.992,145.754,145.754,0,0,0-35.248,31.99c-2.648-7.279-5.358-14.463-8.073-21.6a1.215,1.215,0,0,0,.184-2.2c-.467-.265-.88-.565-1.342-.839-.368-.974-.731-1.934-1.1-2.9,5.506-38.43,18.421-76.748,4.5-114.679-9.024-24.6-27.063-55.159-53.418-64.546a46.449,46.449,0,0,0-5.2-6.408c-1-1.01-2.3.525-1.683,1.579.637,1.086,1.221,2.194,1.817,3.3-.229-.049-.462-.076-.691-.13-.947-.444-1.916-.866-2.9-1.265l-.009-.031a.8.8,0,0,0-1.194-.422c-.862-.323-1.719-.651-2.607-.929-1.467-.458-2.136,1.934-.781,2.526.44.193.826.422,1.256.619a1.885,1.885,0,0,0,.036.969c18.533,58.946-5,145.6,57.021,182.322-.009,2.239.049,4.474.206,6.718.1,1.36,2.266,1.49,2.41.1.076-.722.184-1.445.269-2.163,3.191,7.566,6.363,15.078,9.374,22.536a147.707,147.707,0,0,0-14.108,22.271C92.738,351.8,71.01,328.861,49.448,305.756c3.182-.7,4.371-3.935,5.214-6.83,1.068-3.635,1.162-7.965,2.369-11.721l.018.036a9.88,9.88,0,0,0,2.962,3.469,12.454,12.454,0,0,0,1.265,1.557,2.089,2.089,0,0,0,3.132-.238,1.506,1.506,0,0,0,.687-1.3l-.013-.085A2.072,2.072,0,0,0,65,289.6c-.031-.117-.1-.233-.135-.35a11.238,11.238,0,0,0-3.092-5.434,2.845,2.845,0,0,0-1.351-1.041c-.583-.565-1.194-1.135-1.858-1.7a1.731,1.731,0,0,0-2.423.242c-2.253,3.271-2.782,7.355-3.4,11.2-.462,2.9-.628,10.406-4.2,11.335a.8.8,0,0,0-.507.408q-3.049-3.271-6.076-6.547a214.321,214.321,0,0,1-6.807-31.385,1.577,1.577,0,0,0,.144-1.795c-.22-.435-.44-.862-.651-1.3a.732.732,0,0,0-.09-.117,1.729,1.729,0,0,0-.22-.377c-.117-.22-.238-.449-.354-.673,11.479-5.026.687-26.911-11.218-16.774-1.418,1.207-1.844,3.6-.135,4.851,3.671,2.683,6.211,2.661,9.652.4,1.463,2.428,1.046,6.56-2.5,7.1-1.826.283-3.428,2.625-1.957,4.281q2.033,2.194,3.9,4.51a1.99,1.99,0,0,0,.669.507c3.038,6.372,3.563,16.738,4.981,23.132.269,1.221.624,2.419.929,3.639-6.924-7.6-13.673-15.356-20-23.4a.957.957,0,0,0,.144-1.795c-8.643-4-9.145-22.257-7.458-33.637a3.029,3.029,0,0,0,2.055-2.114c1.041-3.711.458-10.622-5.214-9.213-6.381,1.589-4.469,10.034-1.642,13.758a1.313,1.313,0,0,0,1.849.247c-.256,6.089-.772,12.986.112,19a188.551,188.551,0,0,1-13.875-23.6c2.531-1.835,3.173-5.748,3.6-8.692.476-3.253.022-6.807-2.383-9.226-3.994-4.007-10.465-1.948-14.019,1.494a7.682,7.682,0,0,0-.839,1.081c-1.032-.453-2.616.669-2.042,1.921.166.364.377.714.552,1.081-1.09,4.474,1.319,9.666,6.237,10.783a1.211,1.211,0,0,0,.749-.067c1.71,1.669,3.859,3.034,6.166,2.54a3.622,3.622,0,0,0,.485-.175,205.043,205.043,0,0,0,20.938,35.935c-11.1,3.02-22.616-3.877-34.126-6.583a16.457,16.457,0,0,0,.453-7.144c-.444-1.9-3.6-1.939-4.214-.148a7.32,7.32,0,0,1-1.216,2.809,1.165,1.165,0,0,0,1,1.651,8.564,8.564,0,0,1-.444,1.71,7.225,7.225,0,0,0-4.559-1.759,3.61,3.61,0,0,0-2.661,2.172,1.81,1.81,0,0,0-1.445,1.93,12.991,12.991,0,0,0,.426,1.669c-.193,2.338.381,4.662,2.033,5.421a6.442,6.442,0,0,0,3.069.628c1.687.5,3.576.1,5.466-1.692a3.641,3.641,0,0,0,1.014-3.738c12.4,2.674,25.574,10.68,36.805,5.255C23.283,282.65,31.984,292.984,41,303.126c.444,1.387.853,2.778,1.328,4.155a1.225,1.225,0,0,0,2.315-.081c5.484,6.1,11.034,12.165,16.545,18.264-9.118-.552-17.272-6.821-25.47-10.379C27.707,311.6,19.6,308.412,11.8,304.508c6.619-6.709-.363-22.361-11.12-17.371C-9.475,291.845-6.594,310.283,5,306.729a9.761,9.761,0,0,0,2.962,1.907,2.075,2.075,0,0,0,2.764-1.064c10.056,4.945,20.476,8.988,30.756,13.525,7.355,3.244,13.148,8.032,21.4,6.255,15.679,17.415,30.891,35.2,42.89,55.253a126.191,126.191,0,0,0-11.232,35.226c-13.274-3.68-29.958-6.417-40.359-16.235,7.992-4.25,4.95-18.371-5.789-20.359-17.021-3.15-19.534,20.108-3.235,18.542.076,1.728,1.207,3.433,3.267,3.038.085-.022.175-.027.26-.045A14.194,14.194,0,0,0,51.1,402.6c10.42,10.711,29.015,16.186,43.142,17.285-3.33,23.819,1.09,48.176,16.415,69.631.341,2.4.772,4.784,1.2,7.153-.678,1.149-1.342,2.3-2.055,3.433-1.458,2.293,1.8,5.021,3.294,2.737a191.918,191.918,0,0,0,5.358,19.605,191,191,0,0,0-31.286-25.376c-5.223-3.348-10.29-6.866-15.3-10.456a1.687,1.687,0,0,0-.453-1.916C56.247,470.7,49.583,450.263,40.362,432.3c-6.547-12.762-16.213-22.405-26.852-31.811-25.533-22.54-58.789-35.441-92.6-37.277a1.8,1.8,0,0,0-1.44,3.15c27.117,23.77,37.416,60.355,62.783,85.781,23.375,23.442,58.874,22.845,86.831,37.568.96.714,1.9,1.481,2.863,2.176,27.4,19.749,50.384,38.313,70.313,66.2A324.76,324.76,0,0,1,165.869,597a121.333,121.333,0,0,0-22.93-16.671,2.181,2.181,0,0,0-.516-.736c-39.471-37.254-96.568-108.047-154.657-66.122l-.206-.179c-.9-.767-1.853.426-1.3,1.292-.714.538-1.427,1.019-2.141,1.589-1.948,1.562.314,4.721,2.275,3.146.866-.687,1.728-1.288,2.589-1.93,20.462,20.382,43.088,39.108,68.388,53.09,26.8,14.813,55.262,3.195,82.967,12.461a2.268,2.268,0,0,0,1.18.049,130.477,130.477,0,0,1,27.548,20.148c7.741,15.459,14.548,31.412,20.866,47.485A1.64,1.64,0,0,0,193,649.475c-16.078-43.918-38.147-89.357-71.152-123.641-2.661-8.863-4.932-17.653-6.646-26.485,12.322-20.839,18.129-43.555,24.443-66.409,16.774,29.334,32.762,58.951,43.146,91.255.3.933.516,1.876.8,2.814-15.849-9.576-27.292-25.152-42.572-35.63a1.119,1.119,0,0,0-1.79.664c-.013.135.022.247.018.368-1.965-1.212-4.766,1.647-3.114,3.608.157.188.292.3.444.467l0,0,.013.009a12.439,12.439,0,0,0,4.169,3.222,6.081,6.081,0,0,1,.911,1.239c.583,1.781,2.652,1.3,3.231-.049a1.141,1.141,0,0,0,.521-1.965c-.413-.305-.749-.687-1.135-1.014a12.7,12.7,0,0,0-2-2.643c-.956-2.158,4.016,2.926,4.442,3.289,4.775,3.971,9.127,8.463,13.592,12.78,7.489,7.22,15.006,14.274,24.254,19.085,10.025,34.786,11.129,70.9,9.473,106.885-.2,4.537-.395,9.082-.538,13.637a1.332,1.332,0,0,0-.139.942l-.022,4.048a2.063,2.063,0,0,0-.009.794c-1.557,60.054,3.917,121.186,44.69,168.739,1.557,1.813,4.609-.35,3.038-2.2-29.195-34.324-38.78-73.79-41.58-114.935,9.818-5.277,11.752-18.21,15.271-28.6a2.019,2.019,0,0,0,2.239-.8c1.364-1.956.835-4.057.1-6.161a1.662,1.662,0,0,0-3.051-.108c-2.1,5.6-3.814,11.295-5.668,16.989-1.817,5.551-4.124,12.076-9.1,15.513-.911-15.32-.956-30.851-.727-46.431A1.889,1.889,0,0,0,200.2,658c15.58-20.772,22.971-44.385,27.741-68.944,1.149-.467,2.414-2.464,3.37-4.227,4.164-7.633,10.2-14.063,15.374-21.041,4.339-5.87,8.539-11.8,13-17.55.1.8.229,1.624.377,2.513a1.271,1.271,0,0,0,2.508.1,25.114,25.114,0,0,0,.18-6.453c.35-.413.678-.857,1.023-1.274a1.175,1.175,0,0,0-.166-1.66c-.678-.426-1.324-.821-2.015-1.225a1.429,1.429,0,0,0-1.979,1.05,23.423,23.423,0,0,0-.162,4.286c-1.328,1.472-3.231,3.15-4.057,4.223-4.375,5.672-8.481,11.56-12.695,17.348-3.164,4.344-6.57,8.463-9.908,12.677-.422.543-2.266,3.433-3.823,5.685.458-2.567.92-5.125,1.337-7.709a1.577,1.577,0,0,0,.709-2.015c-.09-.238-.188-.471-.283-.7,1.346-8.634,2.522-17.326,3.742-26.013a.76.76,0,0,0,.547-.924c-.085-.292-.206-.565-.3-.853q.666-4.7,1.378-9.37c15.127-6.605,22.208-22.15,28.993-36.509a1.407,1.407,0,0,0,1.629-.512c.094-.126.229-.305.35-.453l.144.081a1.937,1.937,0,0,0,.61.211h.04a1.952,1.952,0,0,0,.646-.031,1.727,1.727,0,0,0,.305-.1,1.269,1.269,0,0,0,.287-.126,1.853,1.853,0,0,0,.283-.211,10.542,10.542,0,0,0,4.564-1.36c4.761-2.571,6.83-10.146,3.608-14.584-2.621-3.612-7.593-4.039-11.29-2.06-2.782,1.485-4.048,5.048-3.5,8.136a1.131,1.131,0,0,0-.875.911,7.8,7.8,0,0,0,1.885,6.583l-.013.1c-5.937,14.212-13.422,30.191-27.292,37.541.853-5.5,1.79-10.976,2.849-16.41,5.344-1.063,8.293-6.7,10.186-12.111l.018.04a1.676,1.676,0,0,0,2.849-.278c1.427-3.4-.229-6.691-1.472-9.931-.965-2.526-4.236-1.88-4.887.449a12.946,12.946,0,0,0-.754,4.788,2.476,2.476,0,0,0,.363.987c-1.144,3.917-2.589,7.561-5.156,10.545,3.244-15.185,7.655-29.989,14.562-43.954a11.867,11.867,0,0,0,1.153,1.072,7.747,7.747,0,0,0,10.227-.543c4.631-4.384,5.039-11.447.108-15.665-3.554-3.033-9.486-4.254-13.8-2.284-5.6,2.535-5.739,10.824-.951,14.256a1.4,1.4,0,0,0,.9.251c.063.112.148.2.215.314-8.373,15.831-13.157,32.942-16.527,50.411a1.116,1.116,0,0,0-.058.3c-1.476,7.714-2.715,15.473-3.814,23.236-4.635-11.6-11.393-22.607-16.563-34.059a.76.76,0,0,0,.5-.848,9.912,9.912,0,0,0-1.378-3.814c.135-.081.265-.1.4-.2,4.77-3.28,5.789-13.336,1.5-17.4-3.3-3.119-8.575-2.423-12.044.013a6.347,6.347,0,0,0-2.365,7.472,1.4,1.4,0,0,0-1.4,1.683c1.171,5.044,5.5,10.11,10.55,9.589a339.732,339.732,0,0,0,20.175,41.97c-.224,1.6-.453,3.2-.669,4.806q-1.313,9.612-2.746,19.175c-.408-.992-.794-1.992-1.2-2.984a1.43,1.43,0,0,0-2.706.184c-.96-1.333-1.921-2.661-2.867-4.007-1.185-1.678-5.762-7.1-7.1-10.927a2.154,2.154,0,0,0,.538.13.94.94,0,0,0,1.028-1.239c-.35-1.382-.525-3.428-1.665-4.425.175-.09.355-.135.516-.238,4.573-2.773,5.165-8.616,2.333-12.785-2.428-3.568-7.027-5.838-11.286-4.846a6.1,6.1,0,0,0-4.155,4.12c-.965,3.065.081,5.914,1.732,8.508a.986.986,0,0,0,1.759-.4c.157-1.629.175-3.922.844-5.434a10.214,10.214,0,0,1,.561-1.256c.363-.485.395-.4.633-.5a4.158,4.158,0,0,1,1.005-.1c-.328,0,1.185.256,1.068.215a7.743,7.743,0,0,1,2.975,1.8c1.58,1.422,2.253,3.294,1.126,5.358-.565,1.05-2.262,2.9-3.6,2.437-1.562-.547-2.2-3.02-2.212-4.46-.009-.88-1.463-1.162-1.741-.292-.781,2.486-.7,5.057,1.09,7.121a4.877,4.877,0,0,0,4.447,1.669c-2.571,3.518.462,6.924,2.405,10.186a205.3,205.3,0,0,0,13.381,19.318c-1.373,8.468-2.917,16.913-4.81,25.3a188.746,188.746,0,0,1-8.459,26.767c-3.159,8.1-13.332,17.353-14.333,25.793-.2-.435-.4-.87-.606-1.3a1.616,1.616,0,0,0-.471-.673c.274-14.467.651-28.93.624-43.267a268.451,268.451,0,0,0-11.586-76.227,1.177,1.177,0,0,0-.422-1.75,1.428,1.428,0,0,0-.121-.076c-3.038-10-6.623-19.825-10.586-29.531a74.583,74.583,0,0,1-.494-20.633.8.8,0,0,0,1.467-.184c5.9-23.24,27.732-33.664,45.789-46.53C239,421.1,247.974,406.573,254.23,388.588,265.354,356.58,259.381,319.5,233.844,297.247ZM-8.044,228.164c-.067-.157-.148-.305-.22-.462-.39-.871-1.755-.372-1.391.525.117.287.256.556.377.844-1.8-.529-3.567-2.692-4.631-3.922-.7-.8-1.333-1.66-1.965-2.517a3.98,3.98,0,0,1,1.046-2.333,6.816,6.816,0,0,1,3.545-2.114,4.015,4.015,0,0,1,3.141.462c.915.714,1.252,2.616,1.14,4.267a19.865,19.865,0,0,1-.826,4.761A3.349,3.349,0,0,1-8.044,228.164Zm14.5,73.467c-.534-.3-1.09-.557-1.615-.866a1.692,1.692,0,0,0-2.378,1.382c-1.97-.889-2.665-2.5-2.019-4.873C1.308,290.449,13.442,298.639,6.455,301.632Zm42.567,94.841a1.243,1.243,0,0,0-.534.058,5.128,5.128,0,0,1-.615.072,2.4,2.4,0,0,0-1.835.727c-.049-.022-.063-.081-.117-.1a8.985,8.985,0,0,1-5.843-4.478q.693-8.118,8.046-4.743C52.661,389.687,54.035,395.786,49.022,396.472Zm-118.88-27.808c51.3,10.357,73.947,51.062,103.447,87.078C22.372,445.824,11.445,435.548.63,425.035c-19.893-19.327-40.893-40.705-66.521-52.426C-67.21,371.289-68.534,369.979-69.857,368.664Zm54.324,80.75c-14.988-13.319-24.375-32.673-34.3-49.729-1.526-2.616-5.677-10.505-10.29-17.873,33.189,35.814,69.334,73.746,111.6,96.452.79.422,1.5-.763.812-1.306-22.338-17.68-45.264-33.848-66.319-53.2-16.437-15.122-31.937-31.205-47.692-47.019,42.531,23.711,74.867,64.847,111.781,97.43q4.449,4.483,9.244,8.679C34.133,471.528,6.033,468.58-15.533,449.414Zm68.518,22.679C16.569,430.949-10.664,377.2-69.364,367.448c34.023,3.069,65.552,21.113,89.855,44.295,19.282,18.4,24.34,46.341,40.319,66.651C58.158,476.352,55.6,474.2,52.985,472.094ZM.217,510.6c25.9-3.608,47.562,2.316,70.34,15.41,18.65,10.707,31.331,28.549,47.979,41.576-22.23-11.8-40.032-28.638-61.508-41.4-11.358-6.745-22.926-9.9-34.952-11.3a60.409,60.409,0,0,0-23.8-3.366C-1.079,511.183-.429,510.909.217,510.6ZM91.8,555.415a186.144,186.144,0,0,1-17.932-10.168c-11.591-7.588-23.68-16.76-36.532-23.644,10.779,3.213,21.171,8.342,32.3,16.751C76.848,543.793,84.145,549.9,91.8,555.415ZM-8.955,516.3c-.09-.081-.179-.161-.278-.242.377-.26.745-.489,1.108-.731a1.012,1.012,0,0,0,.893.651c11.452.408,21.62.992,31.192,2.576,18.811,7.063,35.895,21.423,52.453,31.659,13.381,8.279,27.826,14.6,42.047,21.216C91.477,568.967,70.826,559,47.645,544.354c-17.7-11.187-35.616-23.5-56.343-28.1C-8.8,516.227-8.865,516.285-8.955,516.3Zm103.2,59.592c-38.7.574-71.542-31.811-99.768-56.586,23.415,9.109,43.729,22.7,65.179,35.787,18.4,11.214,40.9,22.132,63.039,18.4.022-.009.031-.031.058-.04,1.921.915,3.855,1.795,5.762,2.733C117.145,574.9,105.805,575.721,94.246,575.891Zm33.785-3.388C90.7,542.119,57.988,501.481,6.94,507.791c42.872-14.629,84.87,27.252,114.993,57.264q4.382,4.368,8.777,8.732C129.822,573.342,128.924,572.938,128.031,572.5ZM119.2,232.84c5.187,23.913-2.4,47.23-7.095,70.7a518,518,0,0,0-11.129-87.127c-4.662-21.548-13.072-46.166-30.047-61.06C96.642,169.33,113.492,206.553,119.2,232.84ZM69.233,158.48c40.543,34.391,32.866,104.659,38.587,156.439-11.232-29.908-21.432-59.633-25.641-92.507C79.815,203.919,78.006,178.022,69.233,158.48ZM65.72,232.827c-.61-6.682-1.064-13.377-1.494-20.068,6.053,38.484,14.252,76.793,36.209,108.254C75.61,299.074,68.82,266.608,65.72,232.827Zm42.572,94.423c-1.265-.88-2.437-1.813-3.626-2.737a.925.925,0,0,0-.1-.691c-30.739-54.432-33.35-112.454-47.786-171.4a1.566,1.566,0,0,1,1.651-1.535c1.072.619,2.145,1.234,3.164,1.9,12.847,26.861,15.822,57.245,19.457,86.651C84.773,269.6,96.337,298.791,108.291,327.25Zm1.764,157.309c-16.9-26.956-16.989-58.058-6.193-88.285,4.837-13.543,12.632-25.933,21.2-37.389,1.9-2.535,13.435-15.194,22.639-22.28-29.464,35.845-64.686,101.065-37.842,145.916C109.929,483.2,109.974,483.882,110.055,484.56Zm2.8-.525a180.158,180.158,0,0,1-.736-36.913c2.751-31.946,17.2-57.847,34.382-84.013a.916.916,0,0,0-1.418-1.158c-28.428,30.061-38.838,72.83-35.832,114.15-18.6-47.773,14.054-101.859,42.069-139.813a1.286,1.286,0,0,0-.471-1.952c.669-.435,1.315-.83,1.93-1.171-1.265,32.623-13.8,58.915-26.951,88.774-8.885,20.175-15.647,41.544-12.26,63.434C113.331,484.928,113.093,484.483,112.86,484.035Zm23.734-57.2-.018.094c-6.188,21.306-10.779,42.5-20.754,62.357-8.082-56.442,48.32-102.362,39.422-157.22,2.208-.7,3.765-.269,4.142,2.006,4.429,26.749-11.622,57.762-19.655,82.514C138.626,420,137.59,423.423,136.593,426.838Zm3.922,2.984q1.986-7.148,4.187-14.288c5.654,12.91,12.3,27.943,11.824,42.006Q148.94,443.513,140.515,429.823ZM268.1,487.355a2.8,2.8,0,0,1,.956-1.894,3.163,3.163,0,0,1,3.33-.076,2.242,2.242,0,0,1,.9,1.238,6.179,6.179,0,0,1-.821,3.805,5.077,5.077,0,0,1-3.491,2.724l-.157-.413a2.263,2.263,0,0,0-1.216-1.194A31.883,31.883,0,0,0,268.1,487.355Zm-14.88-30.079a2.487,2.487,0,0,1,1.328-2.1c2.333-1.212,5.475-.592,7.952.79,2.616,1.467,3.141,3.989,1.768,6.762-1.871,3.8-4.923,3.262-7.427,1.27.045-.085.081-.17.126-.256.781-1.458-1.019-2.526-2.181-1.849a12.012,12.012,0,0,1-1.382-2.221A8.915,8.915,0,0,1,253.225,457.276Zm-44.874,40.14c-2.526-.942-3.886-3.289-4.635-5.739a4.985,4.985,0,0,0,2.262,1.086,1.274,1.274,0,0,0,1.4-1.687c-.83-2-1.687-3.1.238-4.617a5.652,5.652,0,0,1,5.964-.776c3.007,1.584,1.458,8.234.139,10.227A4.253,4.253,0,0,1,208.351,497.416Zm21.723-198.329c.521.359,1,.754,1.5,1.126a50.047,50.047,0,0,1,1.5,6,56.391,56.391,0,0,0-4.833-7.4C228.6,298.455,229.15,298.45,230.074,299.087Zm-.162,7.427a64.346,64.346,0,0,1,4.061,8.234c.951,29.949-20.853,62.267-31.78,87.836-6.471,15.145-15.253,31.308-21.427,47.984-.229-.35-.422-.709-.637-1.055-2.948-30.281,19.493-51.609,33.781-76.03C225.69,353.362,234.5,329.8,229.913,306.514Zm-27.754,56.559c7.027-12.686,14.041-25.336,19.785-38.663a108.563,108.563,0,0,0,5.313-16.087,11.083,11.083,0,0,0,.247-1.4c5.65,35.706-15.4,63.833-34.153,92.382-9.141,13.933-15.939,28.755-15.787,45.085C167.224,418.532,190.267,384.518,202.158,363.073ZM180.65,462.239a33.632,33.632,0,0,0-2.661,5.412c6.161-28.082,23.092-56.711,34.441-80.1,9.109-18.775,21.921-42.338,24.138-65.143,6.5,23.088,2.926,50.86-5.874,71.04-11.165,25.609-35.307,44.205-50.2,67.589A.96.96,0,0,0,180.65,462.239Zm44.631-36.209c-9.85,8.207-24.268,15.392-34.966,24.9,17.532-21.669,40.149-41.225,47.633-68.518,5.573-20.319,7-46.723-1.019-67.836-.027-1.629-.148-3.244-.305-4.86,12.888,27.876,8.984,57.443-1.167,86.494a.759.759,0,0,0,1.382.628c15.616-28.674,14.947-64.757-1.1-92.889-.031-.135-.045-.269-.067-.4C269.792,334.134,257.34,399.295,225.282,426.031Z" transform="translate(0 0)" fill="#fff"/>
      <path id="Path_310" data-name="Path 310" d="M-62.386,178.018a1.518,1.518,0,0,0,1.31-.66,1.434,1.434,0,0,1,.121.112c3.325,2.181,6.211-.251,7.471-3.406,1.678-4.2,1.274-9.4-3.76-10.693-3.487-.9-7.862,1.1-9.868,3.967C-69.893,171.292-67.658,177.776-62.386,178.018Zm3.191-10.146a2.366,2.366,0,0,1,1.728.35c.2.157.157.112.332.61a11.381,11.381,0,0,1,.045,1.3c-.1.965-.722,4.438-1.817,4.052-1.808-.646-3.092-2.854-3.85-4.694A6.648,6.648,0,0,1-59.2,167.872Z" transform="translate(44.896 74.306)" fill="#fff"/>
      <path id="Path_311" data-name="Path 311" d="M-53.133,174.691c.319.489.7,1.041,1.122,1.589a8.971,8.971,0,0,0,1,3.738c.507.929,1.755.489,2.172-.22a6.91,6.91,0,0,0,.4-.965,3.171,3.171,0,0,0,1.687-.162c2.944-1.149,3.3-4.51,3.164-7.27a2.338,2.338,0,0,0-2.544-2.131,6.856,6.856,0,0,0-5.187,3.392A1.4,1.4,0,0,0-53.133,174.691Z" transform="translate(96.936 95.525)" fill="#fff"/>
      <path id="Path_312" data-name="Path 312" d="M-46.692,197.129c-4.285,2.612-3.882,10.227.381,12.632a1.337,1.337,0,0,0,1.867-.987c0-.027,0-.054,0-.081,1.548,1.795,3.469,2.917,5.82,2.114,2.4-.812,3.9-4.3,4.362-6.592a6.651,6.651,0,0,0-1.544-5.672A8.745,8.745,0,0,0-46.692,197.129Zm7.121,3.989a2.192,2.192,0,0,1,1.01,2.06,5.948,5.948,0,0,1-1.8,3.738c-.924.79-3.083-2.472-4.514-4.95a2.069,2.069,0,0,1,.494-.83A4.15,4.15,0,0,1-39.57,201.118Z" transform="translate(109.764 188.322)" fill="#fff"/>
      <path id="Path_313" data-name="Path 313" d="M-50.806,207.958c.866,1.463,3.11.987,4.38.619A1.849,1.849,0,0,0-45.34,206.2c-.669-1.458-1.974-2.1-2.778-3.352-1.18-1.853-4.164-.2-3.37,1.8.063.144.162.292.233.444a7.14,7.14,0,0,1-.045,1.149A3.18,3.18,0,0,0-50.806,207.958Z" transform="translate(103.113 209.914)" fill="#fff"/>
      <path id="Path_314" data-name="Path 314" d="M-27,228.469a5.446,5.446,0,0,0,2.54,2.1c2.491.965,5.425-.3,7.121-2.2,2.912-3.276-.072-7.552-2.908-9.576-2.9-2.069-7.216-3.864-10.6-1.948a5,5,0,0,0-2.212,4.873c.2,2.459,1.93,6.3,4.348,7.2A1.474,1.474,0,0,0-27,228.469Zm-.844-6.1c-.054-.278-.076-.565-.1-.844-.031-.372-.049-.067,0-.328.027,0,.018,0,.045,0a1.875,1.875,0,0,1,.278,0c.247.018.494.058.736.1a10.163,10.163,0,0,1,2.836,1.158,12.167,12.167,0,0,1,1.153.794c.251.2,1.18,1.1.947.835a6.64,6.64,0,0,1,.413.525c.1.126.139.175.171.211,0,.013,0,.013.022.076s.09.256.121.337a4.986,4.986,0,0,1-1.342.817c-1.423.718-2.769-1.615-3.59-2.544a1.168,1.168,0,0,0-1.458-.3C-27.7,222.928-27.786,222.645-27.84,222.367Z" transform="translate(167.781 258.693)" fill="#fff"/>
      <path id="Path_315" data-name="Path 315" d="M3.19,220.782c-5.569,1.907-6.323,9.235-2.9,13.39.036.049.094.058.135.094,2.374,3.729,6.749,6.215,10.99,4.021,4.833-2.508,7.458-9.293,3.953-13.848A11.443,11.443,0,0,0,3.19,220.782Zm7.427,12.04c-2.329,3.639-6.269.96-8.347-2.114a13.987,13.987,0,0,1,.251-2.764,4.9,4.9,0,0,1,.637-1.4,4.2,4.2,0,0,1,1.005-.911,6.571,6.571,0,0,1,6.534.969,3.651,3.651,0,0,1,1.521,2.351C12.4,230.318,11.406,231.583,10.616,232.822Z" transform="translate(276.955 273.456)" fill="#fff"/>
      <path id="Path_316" data-name="Path 316" d="M-2.185,233.6a6.1,6.1,0,0,0-1.508,4.079,2.806,2.806,0,0,0,3.388,2.661,1.49,1.49,0,0,0,.911-1.046c1.292,2.975,3.5,6.547,6.754,5.632,2.5-.709,2.235-4.51,1.9-6.381a10.888,10.888,0,0,0-2.93-6.148C3.761,229.9-.1,231.277-2.185,233.6Zm7.436,6.471c.013.166.009.323.009.489A12.241,12.241,0,0,1,1.9,236.532a.994.994,0,0,0-.48-.453,1.689,1.689,0,0,1,2.019-.547c.579.278.969,1.36,1.2,1.983A12.814,12.814,0,0,1,5.25,240.068Z" transform="translate(270.254 311.142)" fill="#fff"/>
      <path id="Path_317" data-name="Path 317" d="M-3.2,268.651c-.9-9.85-2.908-20.135-2.58-30.173A12.793,12.793,0,0,0-4.662,239.8a1.544,1.544,0,0,0,2.486-.929c.022-.13,0-.256.022-.395a2.243,2.243,0,0,0,1.7-2.625c-.188-1.189-.422-2.32-.691-3.41A8.781,8.781,0,0,0,.974,221.026c-1.764-3.128-5.6-5.932-9.361-5.358-5.048.776-5.793,7.229-3.213,10.81a.879.879,0,0,0,.3.224,11.468,11.468,0,0,0,2.9,5.371c-.7,12.394,1.988,24.268,3.59,36.711A.809.809,0,0,0-3.2,268.651Zm-5.43-47.171c.063-.162.516-.781.377-.646.04-.036.283-.171.359-.229a2.056,2.056,0,0,0,.251-.063,3.522,3.522,0,0,1,2.114.57,6.5,6.5,0,0,1,2.091,1.916A4.022,4.022,0,0,1-3,227.479a16.887,16.887,0,0,0-1.418-2.2,1.872,1.872,0,0,0-3.123.265,2.735,2.735,0,0,0-.893.664c-.368-.651-.687-1.292-.911-1.795A25.679,25.679,0,0,1-8.625,221.48Z" transform="translate(237.627 257.179)" fill="#fff"/>
      <path id="Path_318" data-name="Path 318" d="M13.108,234.363a2.157,2.157,0,0,0,2.971-1.773,2.383,2.383,0,0,0,.269-2.625,12.934,12.934,0,0,0-1.674-3.168,2.23,2.23,0,0,0-2.962-.812l-.067.018-.058.027a2.232,2.232,0,0,0-1.71,2.562,7.666,7.666,0,0,0,.476,2.428,25.269,25.269,0,0,0-4.9,3.056c-4.357,3.267-8.284,7.463-13.314,9.747-1.216.552-.906,2.553.543,2.387a20.581,20.581,0,0,0,4.568-1.054.906.906,0,0,0,.619-.924,43.554,43.554,0,0,0,4.106-2.688C3.963,240.1,10.425,233.519,13.108,234.363Z" transform="translate(253.09 292.584)" fill="#fff"/>
      <path id="Path_319" data-name="Path 319" d="M-50.9,186.015a3.238,3.238,0,0,0-6.049,2.3c.049.184.1.368.157.547-1.777.449-3.321,1.382-3.787,3.357-.615,2.589,1.342,4.483,3.361,5.685a6.114,6.114,0,0,0,4.245.646,22.821,22.821,0,0,0,6.421,7.328,1.261,1.261,0,0,0,1.965-1.4c-1.422-3.877-2.858-7.691-4.16-11.568a11.656,11.656,0,0,0-.565-3.029c1.117-.467,2.257-.888,3.383-1.279,6.592-2.275,13.817-1.454,20.4-3.684,1.171-.395,1.081-2.405-.233-2.5C-34.045,181.8-43.083,182.771-50.9,186.015Z" transform="translate(71.486 140.862)" fill="#fff"/>
      <path id="Path_320" data-name="Path 320" d="M7.307,240.619c.067.305.13.538.2.817-3.06.745-6.076,2.953-8.459,5.093-3.132,2.818-9.926,8.84-10.4,13.449a1.267,1.267,0,0,0,2.495.435c.435-2.432,5.672-6.6,7.427-8.436,1.3-1.36,6.605-6.794,10.168-7.4a5.34,5.34,0,0,0,2.522,1.948,1.479,1.479,0,0,0,.713.018c1.324,1.3,4.187.709,3.693-1.512a18.6,18.6,0,0,0-3.482-7.023C10.224,235.235,6.638,237.743,7.307,240.619Z" transform="translate(243.517 331.157)" fill="#fff"/>
      <path id="Path_321" data-name="Path 321" d="M-23.925,237.354a9.554,9.554,0,0,0-.435-4.025c-.09-.224-.108-.368-.171-.556.31-.256.628-.507.911-.772,4.757-2.5,11.075-1.2,16.137-.9.969.054,1.956-1.288.9-1.961-3.765-2.4-8.831-3.069-13.592-2.342a3.312,3.312,0,0,0-2.953-2.172c-4.079-.04-7.467,1.979-8.167,6.188a6.767,6.767,0,0,0,5.8,7.987A1.368,1.368,0,0,0-23.925,237.354Z" transform="translate(173.626 288.683)" fill="#fff"/>
    </g>
    <g id="Group_401" data-name="Group 401" transform="translate(1576.685 11149.488)" opacity="0.4">
      <path id="Path_322" data-name="Path 322" d="M-78.393,276.285c-.022.164-.026.336-.047.5l-.013,0-.013.22a71.677,71.677,0,0,0-.375,16.677c.017.569.022,1.155.069,1.724.009.129.1.215.155.323C-81.1,311-82.1,326.384-83.254,341.876c-.073-.086-.078-.194-.194-.263l-.022-.017c-.6-4.046-1.625-8.041-4.077-10.674-.241-1.138-.444-2.137-.642-2.827-1.263-4.055-2.594-8.463-5.662-11.557a1.659,1.659,0,0,0-2.814,1.151C-97.514,329.849-92.4,342.682-86,352.8a1.936,1.936,0,0,0,1.689.97c-1.155,10.756-3.017,21.344-5.1,31.888a62.859,62.859,0,0,0-3.434-19.215,1.841,1.841,0,0,0-3.047-.819,2.237,2.237,0,0,0-2.349,1.642c-2.452,8.067-.892,16.854,1.569,24.83.5,2.612,1.043,5.188,1.543,7.666a2.167,2.167,0,0,0,2.461,1.577c-.017.215-.047.44-.06.668q-1.674,8.067-3.241,16.177c-.392-6.619-2.15-13.036-6.378-17.922a1.822,1.822,0,0,0-3.038.806c-3.529,12.126.638,25.692,4.2,37.335a1.937,1.937,0,0,0,1.478,1.392q-2.081,12.6-4.232,25.149c-2.383-8.588-7.231-16.957-11.988-22a2,2,0,0,0-3.146.414c-7.321,12.449,3.219,31.16,10.032,41.671a2.059,2.059,0,0,0,1.469.9q-2.088,11.751-4.262,23.472a.94.94,0,0,1,0-.159,1.315,1.315,0,0,0-.435-1,32.772,32.772,0,0,0-6.123-14.173,1.9,1.9,0,0,0-3.185.853,58,58,0,0,0-.091,22.7c.939,4.71,2.254,10.851,5.335,15.151q-2.624,13.245-5.438,26.459c-3.034-9.825-9.972-22.6-11.622-25.235-.612-.987-2.469-1.3-3-.009-4.253,10.239,1.107,22.748,6.447,33.534a102.121,102.121,0,0,0,3.878,10.864c-.685,3.029-1.327,6.055-2.03,9.062-8.981,38.034-18.754,75.869-29,113.571-5.775,10.562-11.441,21.184-16.8,31.936-29.9,59.98-57.636,124.822-69.913,191.016a1.018,1.018,0,0,0,1.969.508c22.723-66.931,43.252-133.108,75.938-196.192.862-1.681,1.793-3.344,2.672-5.02-1.706,6.149-3.391,12.3-5.106,18.444-14.6,51.892-33.6,102.405-48.044,154.263-.539,1.952,2.241,2.534,2.952.754,24.942-61.743,44.64-126.283,61.734-191.353,14.832-19.189,30.609-37.2,49.186-52.642a1.758,1.758,0,0,0,2.646-1.353c.009-.276.047-.552.056-.832.323-.254.659-.509.978-.763A36.833,36.833,0,0,0-92.2,646c.715.2,1.418.4,2.163.573,12.191,6.089,31.177,3.318,41.524-4.7a1.632,1.632,0,0,0-.327-2.551c-9.1-5.947-21.365-5.128-32.44-2.154A318.921,318.921,0,0,1-45.169,617.1a1.687,1.687,0,0,0,.763,1.349,24.612,24.612,0,0,0,8.032,2.943c9.506,3.883,20.482,5.141,30.178,1.374.728-.284,1.293-1.336.534-1.965a31.285,31.285,0,0,0-6.007-3.758,1.4,1.4,0,0,0-.711-1.353c-7.326-3.624-16.414-3.8-24.576-2.435,8.64-3.93,17.409-7.614,26.291-11.178,11.958,7.83,30.971-.944,40.692-8.843a1.4,1.4,0,0,0-.629-2.331,39.3,39.3,0,0,0-6.847-.892c.28-.345.616-.659.9-1.013.776-1.039-.34-2.267-1.383-2.362-10.653-.845-21.029,4.546-30.423,8.916-.879.422-.254,1.706.625,1.513.909-.2,1.819-.466,2.715-.724-.982.508-1.969,1-2.9,1.551-.056.035-.073.091-.121.129-1.133.362-2.271.72-3.4,1.09a1.092,1.092,0,0,0-1.181.379c-6.572,2.163-13.109,4.6-19.612,7.257,4.6-4.154,8.313-9.024,10.235-13.975.448-1.159-.853-2.017-1.849-1.836-14.4,2.611-25.179,13.755-35.362,23.434a1.765,1.765,0,0,0,.039,2.473c-.267.263-.513.534-.771.8-.517.539.177,1.556.832,1.095.56-.422,1.095-.875,1.642-1.31a1.147,1.147,0,0,0,.388.716c-6.576,3.374-13.01,7.05-19.344,10.9,4.128-6.468,6.839-13.333,6.972-19.137a1.344,1.344,0,0,0-1.672-1.284c-14.324,4.464-31.212,22.481-32.061,38.766a241.376,241.376,0,0,0-39.249,38.1A1049.578,1049.578,0,0,1-55.615,556.572q12.081-15.248,24.8-30.061a.969.969,0,0,0,1.78-.22c.155-.8.332-1.59.487-2.383Q-18.15,511.879-7.416,500.1c.116.073.259.142.392.224-.888.405-1.25,1.84-.177,2.318,15.289,6.972,37.926-2.995,50.13-12.557a2.074,2.074,0,0,0-.414-3.253c-12.721-7.27-30.557.526-43.941,6.774Q12.446,478.641,26.852,464.1a1.158,1.158,0,0,0,1.013.922c.444.047.918.056,1.37.09.052.026.073.073.134.095a44.612,44.612,0,0,0,19.241-.177c12.066-1.25,24.085-4.736,33.987-10.829a1.821,1.821,0,0,0,.392-2.844c-15.233-12.4-38.74.81-53.008,9.6Q48.693,442.2,68.16,424.123A22.236,22.236,0,0,0,78.942,425.5c5.007.577,10.4-.78,15.388-3.094a80.5,80.5,0,0,0,19.991-8.123,2.062,2.062,0,0,0,.013-3.546c-13.428-6.916-28.674.978-40.46,8.162q17.5-16.082,35.439-31.664a.907.907,0,0,0,.228.5c4.934,4.981,14.479,3.611,20.564,2.055,7.408-1.9,15.574-4.956,20.641-10.971.638-.767.78-2.28-.349-2.754-11.488-4.792-26.92,1.37-36.749,7.593a1.95,1.95,0,0,0-.017,3.344c.241.151.5.254.754.392a20.412,20.412,0,0,1-3.659-1.185.675.675,0,0,0-.2-.026q17.31-14.945,34.948-29.428c13.005,2.952,28.3,2.564,39.473-4.969a1.972,1.972,0,0,0,.017-3.383c-9.153-4.654-19.948-2.271-29.678,1.017-.427.129-.849.254-1.271.392q10.5-8.513,21.064-16.888c3.719,1.133,8.606.026,11.984-.754,6.761-1.564,14.152-3.715,20.094-7.416,1.021-.638,1.327-2.542,0-3.107a26.4,26.4,0,0,0-16.229-1.138c4.016-3.116,8.024-6.231,12.049-9.308.858-.353,1.7-.754,2.568-1.2,8.924,3.232,22.667-1.525,29.57-6.563a1.413,1.413,0,0,0,0-2.4c-4.921-3.788-10.39-3.822-15.948-2.137q9.515-7.175,19.077-14.246a.554.554,0,0,0,.237.293c4.042,2.392,10.191-2.237,13.436-4.426,4.654-3.163,10.166-6.886,12.32-12.3a1.514,1.514,0,0,0-.724-1.741c-10.45-4.434-23.115,7.278-29.057,16.259-6.5,3.314-12.863,6.942-19.112,10.82a53.4,53.4,0,0,0,8.213-14.979c.465-1.327-1.151-2.284-2.237-1.715-5.042,2.6-8.386,7.059-11.088,11.937-2.349,4.24-5.658,8.575-7.55,13.036-5.154,3.538-10.213,7.24-15.216,11.053,3.3-6.356,5.21-13.048,4.723-18.206a1.653,1.653,0,0,0-2.426-1.4c-5.688,2.366-30.341,29.014-20.909,34.651-1.047.884-2.073,1.793-3.116,2.689-.129.039-.233.1-.362.134a1.152,1.152,0,0,0-.836.888c-7.123,6.132-14.121,12.419-21.068,18.784,1.34-2.379,2.5-4.813,3.559-7.054,2.995-6.317,6.119-13.074,6.623-20.133.108-1.491-1.694-1.818-2.646-1.09-10.239,7.83-17.754,21.24-18.168,34.2a1.625,1.625,0,0,0,1.53,1.745c-.241.228-.457.47-.707.664a.957.957,0,0,0-.28,1.038c-8.162,7.615-16.25,15.255-24.287,22.762,6.326-9.213,10.713-20.917,9.666-30.57-.134-1.258-1.5-2.456-2.771-1.607-13.557,9.23-21.71,25.955-23.5,41.972-.246,2.112,2.749,2.5,3.719.991.81-1.289,1.543-2.607,2.327-3.913a.74.74,0,0,0,.513-.375c5.167-8.864,9.411-18.237,14.47-27.174a2,2,0,0,0-1.814-2.948,43.569,43.569,0,0,1,3.422-3.154c-.276,12.949-9.136,26.459-17.224,35.629a1.12,1.12,0,0,0-.039,1.564q-5.507,5.048-11,9.959-10.9,9.722-21.663,19.573c7.339-10.571,12.238-23.843,10.269-35.788a1.758,1.758,0,0,0-2.555-1.069,24.054,24.054,0,0,0-3.284,2.142,1.568,1.568,0,0,0-.371.276C58.744,396.285,51.944,414,52.548,427.359c-.435,1.6-.849,3.206-1.215,4.792a1.42,1.42,0,0,0,1.629,1.711Q37.674,448.14,22.771,462.8c7.726-11.2,12.316-26.623,9.4-39.262a1.686,1.686,0,0,0-2.418-1c-13.531,5.766-21.7,26.48-18.409,41.339-.457,2.655-.875,5.3-1.232,7.869-.168,1.25,1.573,2.241,2.228.909.465-.939.827-1.913,1.233-2.879a2.107,2.107,0,0,0,1.551.69q-16.748,16.8-32.789,34.285c6.679-9.088,7.511-29.837,6.869-37.068a1.623,1.623,0,0,0-3-.8,86.77,86.77,0,0,0-13.126,32.531,96.969,96.969,0,0,0-3.818,19.926c-11.506,13.1-22.68,26.519-33.392,40.382a1099.1,1099.1,0,0,0-80.915,119.948c8-31.72,15.444-63.488,22.641-95.062a1.129,1.129,0,0,0,1.112-1.357c-.116-.552-.276-1.1-.405-1.655.086-.358.155-.7.246-1.056q2.14-9.424,4.133-18.862c9.2,9.385,36.87-18.6,41.028-25.123a1.8,1.8,0,0,0-2-2.629,68.106,68.106,0,0,0-7.869,3.3,1.932,1.932,0,0,0-1.689-.939c-12.23.121-21.693,11.48-28.545,20.883q2.153-10.387,4.154-20.8a1.148,1.148,0,0,0,1.077-1.431c-.164-.478-.379-.926-.543-1.392,1.108-5.873,2.215-11.738,3.284-17.612.078.095.228.142.323.22a2.445,2.445,0,0,1-.168.246.819.819,0,0,0,1.112,1.112c.427-.28.832-.595,1.241-.892,10.088.84,19.111-11.23,25.545-20.538a19.517,19.517,0,0,1,2.874-.6c-2.478,10.234-16.121,24.132-26.36,24.028-1.5-.017-1.426,2.142.017,2.279,12.7,1.2,28.251-16.3,29.661-28.014a1.479,1.479,0,0,0-1.5-1.487,18.249,18.249,0,0,0-2.249.254c.771-1.116,1.5-2.15,2.168-3.047.918-1.232-.806-2.6-1.965-1.982-1.793.935-8.58,6.093-14.626,11.7a66.809,66.809,0,0,0-14.315,14.815c-.164-.03-.336,0-.5-.03a1.132,1.132,0,0,0-.935.155c4.775-26.261,9.166-52.6,13.617-79.01a1.179,1.179,0,0,0,.25.233,1.4,1.4,0,0,0,2.349,1.267c.155-.155.293-.332.439-.5,12.85,1.177,27-24.688,29.777-33.763a1.686,1.686,0,0,0-2.06-2.038c-13.247,4-25.093,19.491-29.712,32.686l-.022.017a.919.919,0,0,0-.668.047c.5-3,1-5.99,1.508-9,1.956-11.5,4.529-22.887,6.774-34.323a2.487,2.487,0,0,0,1.793-.987,6.118,6.118,0,0,0,.539-.9c7.964-.039,18.47-22.115,20.81-26.179.776-1.353-.827-3.133-2.224-2.228-6.352,4.128-11.23,9.735-15.561,15.888-.789,1.129-2.15,2.65-3.486,4.331A219.655,219.655,0,0,0-80.9,354.528c.086-1.625.151-3.241.233-4.857a1.092,1.092,0,0,0,.763-.422,22,22,0,0,0,2.792-5.606c8.838-1.806,13.066-19.749,13.691-26.476.151-1.564-1.9-2.112-2.891-1.2-5.667,5.184-11.243,14.294-13.9,23.033.5-12.708.97-25.4,2.5-38a55.053,55.053,0,0,0,1.887,6.705c.8,2.172,4.555,2.06,4.292-.577-.487-4.632-1.65-9.489-2.461-14.363,2.577-4.844,2.379-19.18,2.172-21.064a1.759,1.759,0,0,0-3.258-.866,22.673,22.673,0,0,0-2.03,4.068A1.515,1.515,0,0,0-78.393,276.285Zm-4.43,108.576c1.978-3.2,6.136-8.356,6.908-9.424a71.431,71.431,0,0,1,5.964-7.356C-73.813,374.812-79.195,383.357-82.823,384.861Zm-6.085,48.195c7.378-9.851,11.058-22.219,22.7-28.04C-70.055,414.134-79.854,430.543-88.908,433.056Zm-7.576,74.761c.978-1.021,1.974-2.038,2.982-3.029,1.336-1.28,2.56-2.374,3.426-3.163a33.5,33.5,0,0,1,5.128-3.633c-4.137,5.718-9.317,11.756-14.63,14.557A13.507,13.507,0,0,1-96.484,507.817Zm5.632,39.119a48.243,48.243,0,0,0,3.21-4.762c1.2-.681,2.4-1.327,3.641-1.939C-85.922,542.283-88.279,544.6-90.851,546.936Zm-23.533,13.393c6.425-6.24,12.2-15.724,20.792-18.866a63.859,63.859,0,0,0-16.9,15.94,1.97,1.97,0,0,0,.5,2.594A7.653,7.653,0,0,1-114.384,560.33Zm90.671-53.766a4.6,4.6,0,0,1-.457.138c.082-.75.159-1.5.25-2.254A145.308,145.308,0,0,1-18.2,487.908,93.174,93.174,0,0,1-23.713,506.563ZM23,440.437c-.875,8.252-2.788,16.681-7.227,23.386C18.263,456.02,19.806,447.953,23,440.437Zm3.042,8.855a115.5,115.5,0,0,0,2.086-18.715,1.863,1.863,0,0,0-1.319-1.974,22.784,22.784,0,0,1,2.611-2.008c1.25,7.214-.431,14.927-2.978,21.688C26.356,448.509,26.218,448.871,26.046,449.293ZM99.2,380.224a57.577,57.577,0,0,1,9.511-17.883q-1.551,2.786-3.016,5.606C103.535,372.049,101.4,376.152,99.2,380.224Zm140.115-96.359c1.108-.8,2.176-1.62,3.275-2.417a1.231,1.231,0,0,0-.336-2.228c4.792-5.287,9.791-10.881,16.418-10.7,3.766.108.655,2.111-1.146,3.805a55.53,55.53,0,0,1-7.063,5.641C248.175,279.465,242.474,283.96,239.315,283.865ZM208.3,308.458c7.61-4.533,15.328-10.64,23.533-6.205a40.347,40.347,0,0,1-11.661,4.641C216.614,307.751,212.275,308.794,208.3,308.458Zm10.178-25.541a55.55,55.55,0,0,1-6.9,10.8C213.585,289.928,215.558,285.989,218.48,282.917Zm-24.162,40.714a22.632,22.632,0,0,1,7.334.047,60.457,60.457,0,0,1-7.834,3.012,15.34,15.34,0,0,0,1.4-1.03C196.085,324.932,195.318,323.609,194.318,323.631ZM188.949,297.6c-.457,6.567-4.137,14.742-9.144,21.4-.228.194-.457.384-.694.565.035-.047.06-.1.095-.142a1.007,1.007,0,0,0-.047-1.013c2.482-3.874,5.059-7.688,7.4-11.656.651-1.112-.832-2-1.642-1.254l-.056-.052a86.269,86.269,0,0,0-6.9,8.743h-.013c.405-1.069.836-2.137,1.344-3.167.315-.668-.659-1.254-1-.582-1,1.965-1.663,4.09-2.818,5.981a.752.752,0,0,0,.284,1q-1.829,2.76-3.568,5.568a1.619,1.619,0,0,0,.2,1.978c-.31.246-.612.483-.922.741C167.919,319.011,181.6,302.981,188.949,297.6Zm-21.382,56.292a13.7,13.7,0,0,0,3.646-4,25.146,25.146,0,0,1,8.149.573A35.169,35.169,0,0,1,167.566,353.895Zm-47.191,31.522c6.546-1.771,12.708-4.68,19.474-5.391A22.983,22.983,0,0,1,120.375,385.417ZM80.985,420.852c6.692-2.866,13.285-7.369,20.3-7.571a44.486,44.486,0,0,1-9.3,5.71c-.375.1-.75.211-1.129.315A67.991,67.991,0,0,1,80.985,420.852ZM65.609,405.11a72.993,72.993,0,0,1-6.024,15.905C61.653,415.75,63.536,410.389,65.609,405.11Zm3.047,4.594a116.649,116.649,0,0,0,3.792-17.5A43.623,43.623,0,0,1,68.656,409.7Zm-2.318,47.9a49.422,49.422,0,0,0,8.39-6.709l.022-.043a18.387,18.387,0,0,1,3.486,1.6A65.028,65.028,0,0,1,66.337,457.605Zm-27.489,4.6c9.407-3.792,18.491-8.3,28.467-10.036a49.7,49.7,0,0,1-24.576,9.847q-1.144.1-2.318.177C39.909,462.221,39.379,462.195,38.849,462.2ZM28.192,488.163a23.338,23.338,0,0,1,9.2.931,72.233,72.233,0,0,1-6.615,4.085c.448-.5.9-1,1.3-1.521a2.173,2.173,0,0,0-1.332-3.176A20.652,20.652,0,0,0,28.192,488.163ZM.259,498.643c8.6-.155,16.617-6.33,25.381-6.4C19.358,497.561,8.5,500.47.259,498.643Zm13.626,94.618A32.13,32.13,0,0,1-.594,598.1c2.456-.965,4.917-1.935,7.395-2.887a.725.725,0,0,0,.431-.47A52.719,52.719,0,0,1,13.885,593.261Zm-21.891,7.748c.168-.052.323-.125.487-.185,9.174,2.124,20.236-1.629,27.459-8.114a38.266,38.266,0,0,1,5.714.383C16.8,599.41,2.108,605.659-8.006,601.009Zm-26.485-2.159a104.017,104.017,0,0,1-11.9,9.015A76.443,76.443,0,0,1-34.491,598.85Zm7,23.055a43.969,43.969,0,0,0,13.678-3.1,29.582,29.582,0,0,1,4.645,2.469A36.734,36.734,0,0,1-27.488,621.9Zm-12.2-4.581a35.705,35.705,0,0,1,10.028-1.552c.146,0,.293-.009.444,0a41.118,41.118,0,0,1,10.958,1.5C-25.041,619.293-33.215,619.78-39.688,617.324Zm-13.436-1.862c9.9-4.581,18.482-12.169,26.312-19.655C-32.1,604.706-43.247,612.653-53.124,615.462Zm-35.556,27.8c.09-.078.181-.181.276-.254,1.245-.465,2.517-.931,3.84-1.379a.82.82,0,0,0,.75.539c8.007-.134,16.173-4.279,23.921-1.681C-68.379,644.8-79.208,645.144-88.68,643.261Zm1.077-7.041a76.57,76.57,0,0,1,9.248-9.864,70.4,70.4,0,0,1-4.357,6.585C-84.366,634.014-85.978,635.125-87.6,636.22Zm-1.263-10.48a61.042,61.042,0,0,1,8.644-8.786c.659-.513,9.1-7.662,7.511-2.65a54.026,54.026,0,0,1-3.719,8.679c-.056.013-.116-.03-.181.009-5.05,2.241-8.993,6.7-12.721,10.653-2.81,2.986-6.434,6.235-9.282,9.752A47.139,47.139,0,0,1-88.865,625.74Zm-34.323-60.161c-.1.491-.224.978-.328,1.469-1.482-5.382-3.21-10.691-5.137-15.918C-126.153,556.619-123.882,562.221-123.188,565.578Zm6.442-44.135a29.53,29.53,0,0,1-1.25-4.8,59.639,59.639,0,0,1-.625-15.923,34.356,34.356,0,0,1,3.116,10.347A26.956,26.956,0,0,0-116.746,521.443Zm8.313-43.226c-5.236-8.718-11.213-21.008-8.356-30.1a42.8,42.8,0,0,1,4.723,7.132.863.863,0,0,0-.56.939C-111.665,463.608-108.175,470.788-108.433,478.217Zm7.08-54.831a49.272,49.272,0,0,1-1.31-17.448,23.658,23.658,0,0,1,2.09,4.8,1.094,1.094,0,0,0-.978,1.159C-101.521,415.732-101.431,419.55-101.353,423.386Zm33.591-100.565c-1.357,6.067-4.064,14.246-8.1,17.125.483-1.547.974-3.081,1.547-4.546A54.487,54.487,0,0,1-67.762,322.821Zm-23.192,6.248a1.473,1.473,0,0,0-.991,1.108,46.182,46.182,0,0,1-1.258-7.05A36.663,36.663,0,0,1-90.955,329.069Z" transform="translate(0)" fill="#fff"/>
      <path id="Path_323" data-name="Path 323" d="M-203.22,337.664c11.191-4.52,21.861-19.28,24.7-29.018a1.937,1.937,0,0,0-2.357-2.331c-12.574,4.214-20.322,18.521-26.98,29.743-.6.258-1.228.586-1.827.793a1.114,1.114,0,0,0,.116,2.159c-.771,1.767,1.551,3.206,3.016,1.987A27.353,27.353,0,0,0-203.22,337.664Zm5.494-7.86c3.921-6.555,7.412-13.436,13.893-17.681A50.827,50.827,0,0,1-197.726,329.8Z" transform="translate(110.378 134.744)" fill="#fff"/>
    </g>
  </g>
</svg>
